<svg width="400" height="267" viewBox="0 0 400 267" fill="none" xmlns="http://www.w3.org/2000/svg">
<path d="M384.149 67.1627C384.149 67.1627 379.691 64.4427 374.763 75.0453C369.835 85.648 368.037 91.7333 368.037 91.7333C368.037 91.7333 366.709 93.9627 365.163 92.592C363.616 91.2213 361.429 87.2587 358.891 88.0693C356.277 88.9173 355.515 91.8987 356.176 96.2133C356.837 100.528 357.931 110.032 358.032 110.891C358.133 111.749 357.685 113.024 356.48 112.235C355.275 111.445 348.235 104.176 344.971 107.723C341.707 111.269 345.504 122.987 345.92 124.256C346.336 125.525 346.075 126.107 345.467 126.453C344.859 126.8 342.725 124.123 340.667 122.128C338.608 120.133 335.808 118.192 334.101 120.395C332.395 122.597 332.139 131.504 341.115 145.627L345.701 151.899L353.472 151.184C370.005 148.645 376.544 142.597 377.077 139.861C377.611 137.125 374.325 136.315 371.456 136.059C368.587 135.803 365.163 135.947 365.024 135.264C364.885 134.581 365.152 134.032 366.384 133.483C367.616 132.933 378.939 128.091 379.467 123.296C379.995 118.501 369.867 118.011 368.496 117.605C367.125 117.2 367.787 116.037 368.496 115.552C369.205 115.067 377.088 109.632 380.763 107.291C384.437 104.949 386.133 102.427 385.067 99.8987C384 97.4613 379.589 98.4213 377.536 98.1547C375.483 97.888 376.293 95.424 376.293 95.424C376.293 95.424 379.691 90.0907 384.427 79.3867C389.163 68.6827 384.048 67.12 384.048 67.12" fill="#F5F5F5"/>
<path d="M379.733 76.6507C379.733 76.6507 379.707 76.7307 379.643 76.88C379.579 77.0293 379.483 77.264 379.365 77.5467L378.267 80.08C377.307 82.2827 375.899 85.4613 374.144 89.3813C370.635 97.2213 365.696 108.005 360.203 119.899C354.709 131.792 349.728 142.576 346.176 150.4L341.979 159.664L340.837 162.181C340.704 162.459 340.603 162.677 340.533 162.832C340.5 162.907 340.462 162.98 340.421 163.051C340.445 162.972 340.473 162.896 340.507 162.821C340.576 162.661 340.667 162.443 340.784 162.16C341.04 161.568 341.413 160.715 341.883 159.621C342.843 157.419 344.251 154.245 346.005 150.325C349.515 142.485 354.453 131.701 359.947 119.803C365.44 107.904 370.405 97.1307 373.957 89.312C375.728 85.4133 377.157 82.2507 378.155 80.0533L379.301 77.536C379.429 77.2533 379.531 77.04 379.605 76.88C379.68 76.72 379.733 76.6507 379.733 76.6507Z" fill="#E0E0E0"/>
<path d="M361.744 93.744C361.84 93.9115 361.913 94.0908 361.963 94.2774C362.091 94.6134 362.256 95.1093 362.459 95.7227C362.853 96.9547 363.36 98.6614 363.883 100.56L365.2 105.424C365.36 106.005 365.493 106.491 365.605 106.896C365.67 107.067 365.711 107.247 365.728 107.429C365.632 107.262 365.559 107.083 365.509 106.896C365.381 106.56 365.216 106.064 365.019 105.445C364.635 104.213 364.149 102.496 363.627 100.597L362.277 95.744L361.867 94.2774C361.806 94.1048 361.764 93.9259 361.744 93.744Z" fill="#E0E0E0"/>
<path d="M366.448 107.541C366.448 107.472 369.904 106.272 374.219 104.875C378.533 103.477 382.053 102.373 382.075 102.443C382.096 102.512 378.619 103.712 374.304 105.109C369.989 106.507 366.469 107.611 366.448 107.541Z" fill="#E0E0E0"/>
<path d="M357.184 125.429C357.374 125.394 357.567 125.378 357.76 125.381L359.317 125.328C360.629 125.28 362.448 125.211 364.448 125.056C366.448 124.901 368.256 124.72 369.568 124.571L371.115 124.395C371.304 124.359 371.498 124.349 371.691 124.363C371.518 124.425 371.339 124.47 371.157 124.496C370.795 124.565 370.267 124.656 369.616 124.752C368.315 124.949 366.501 125.173 364.496 125.323C362.491 125.472 360.667 125.515 359.344 125.509C358.688 125.509 358.155 125.509 357.787 125.483C357.584 125.493 357.381 125.475 357.184 125.429Z" fill="#E0E0E0"/>
<path d="M350.187 113.888C350.31 114.015 350.418 114.156 350.507 114.309C350.699 114.587 350.976 114.997 351.307 115.509C351.973 116.528 352.875 117.947 353.856 119.52C354.837 121.093 355.717 122.528 356.341 123.573C356.656 124.107 356.901 124.523 357.067 124.821C357.168 124.968 357.248 125.128 357.307 125.296C357.178 125.172 357.069 125.03 356.981 124.875C356.789 124.592 356.517 124.187 356.181 123.675C355.52 122.656 354.619 121.237 353.632 119.659C352.645 118.08 351.771 116.651 351.147 115.605C350.837 115.072 350.613 114.656 350.421 114.363C350.324 114.214 350.245 114.055 350.187 113.888Z" fill="#E0E0E0"/>
<path d="M340 128.64C340.155 128.803 340.293 128.981 340.411 129.173L341.44 130.709C342.293 132.011 343.467 133.819 344.747 135.824C346.027 137.829 347.173 139.659 347.989 140.987L348.949 142.587C349.073 142.776 349.181 142.976 349.269 143.184C349.114 143.021 348.977 142.842 348.859 142.651L347.835 141.115C346.976 139.808 345.803 138 344.523 135.995C343.243 133.989 342.101 132.16 341.28 130.832C340.896 130.203 340.576 129.669 340.325 129.232C340.196 129.047 340.087 128.848 340 128.64Z" fill="#E0E0E0"/>
<path d="M349.147 142.768C349.383 142.714 349.624 142.686 349.867 142.683L351.84 142.544C353.504 142.427 355.808 142.256 358.341 142.011C360.875 141.765 363.141 141.477 364.821 141.248L366.779 140.987C367.018 140.944 367.261 140.922 367.504 140.923C367.274 141.002 367.036 141.057 366.795 141.088C366.336 141.179 365.669 141.296 364.848 141.429C363.195 141.701 360.907 142.021 358.368 142.277C355.829 142.533 353.52 142.677 351.851 142.747C351.013 142.779 350.341 142.8 349.872 142.8C349.63 142.81 349.387 142.799 349.147 142.768Z" fill="#E0E0E0"/>
<path d="M66.5547 119.696C78.9974 111.392 82.0214 95.696 81.7707 81.5147C81.7227 79.1467 82.0267 76.6613 80.9174 74.5813C79.808 72.5013 77.184 71.0293 75.0134 71.9947C73.2267 72.7947 72.416 74.8267 71.3974 76.5013C70.0236 78.7388 68.0478 80.5446 65.696 81.712C64.16 82.4693 62.2667 82.9173 60.7734 82.0747C58.7254 80.9227 58.5227 78.1013 58.576 75.7493L58.864 62.608C58.912 60.256 58.96 57.856 58.2507 55.6107C57.5414 53.3653 55.9414 51.2747 53.6854 50.6133C51.4294 49.952 48.608 51.2 48.0907 53.4933C47.8774 54.448 48.0587 55.4453 47.9787 56.4213C47.8987 57.3973 47.4454 58.4693 46.4747 58.7253C45.504 58.9813 44.5814 58.304 43.8774 57.6107C41.456 55.1947 39.8347 52.1173 38.3254 49.0773C36.816 46.0373 35.344 42.8747 33.1574 40.256C30.9707 37.6373 27.9094 35.536 24.5014 35.2907C21.0934 35.0453 17.4294 37.0773 16.5014 40.368C15.5734 43.6587 17.4934 47.0613 19.584 49.776C22.6971 53.7974 26.3741 57.3487 30.5014 60.32C31.248 60.8533 32.048 61.4347 32.3254 62.3093C32.816 63.9093 31.2907 65.4187 29.712 65.9147C27.9254 66.448 25.9787 66.2613 24.144 66.448C22.3094 66.6347 20.256 67.4133 19.5254 69.1147C18.5174 71.504 20.512 74.0533 22.4907 75.7333C26.4547 79.0984 30.9639 81.7624 35.824 83.6107C37.568 84.272 39.4027 84.8533 40.7947 86.0907C42.1867 87.328 43.0134 89.4507 42.1334 91.0933C41.2534 92.736 39.0507 93.2267 37.2214 92.8747C35.392 92.5227 33.7654 91.504 32.0267 90.8267C28.768 89.5573 24.56 89.7173 22.4 92.48C20.992 94.2933 20.832 96.848 21.4934 99.0453C22.1547 101.243 23.5414 103.147 25.0134 104.912C30.1654 111.067 36.8107 116.059 44.3627 118.779C51.9147 121.499 58.9387 122.299 66.528 119.685" fill="#EBEBEB"/>
<path d="M65.6 119.968C63.6 112.795 58.1333 95.9147 54.8533 87.968L52.416 82.1014C51.6107 80.176 50.816 78.272 49.9147 76.4534C48.1828 72.9721 46.2598 69.5891 44.1547 66.32C42.16 63.1734 40.1547 60.2614 38.288 57.5467C36.4213 54.832 34.5547 52.352 32.8053 50.1494C30.0467 46.6591 27.015 43.3937 23.7387 40.384C22.5813 39.3174 21.6587 38.5174 21.024 37.984L20.2667 37.3334C20.1013 37.2 20.0107 37.136 20.0107 37.136C20.0107 37.136 20.0853 37.216 20.24 37.36L20.944 37.9894C21.5573 38.5227 22.4693 39.3547 23.6107 40.4374C26.8377 43.4825 29.8327 46.7645 32.5707 50.256C34.3093 52.464 36.112 54.96 38.0053 57.6694C39.8987 60.3787 41.8827 63.3014 43.872 66.4427C45.9639 69.713 47.8744 73.0959 49.5947 76.576C50.4853 78.3894 51.28 80.3093 52.0853 82.2134C52.8907 84.1174 53.6853 86.1014 54.5227 88.08C57.7813 96.016 63.264 112.88 65.28 120.032" fill="#E0E0E0"/>
<path d="M49.8027 76.416C49.9131 76.0901 49.9916 75.7543 50.0373 75.4133C50.1653 74.7627 50.3253 73.8133 50.5067 72.6507C50.8747 70.3147 51.2747 67.072 51.7067 63.4933C52.1387 59.9147 52.592 56.688 53.008 54.3627C53.2107 53.2 53.3867 52.2613 53.5413 51.616C53.6247 51.2834 53.68 50.9445 53.7067 50.6027C53.5761 50.9195 53.4761 51.2481 53.408 51.584C53.232 52.224 53.0187 53.184 52.784 54.32C52.2667 56.6347 51.7867 59.872 51.3547 63.4667C50.9227 67.0613 50.5493 70.224 50.2613 72.6347C50.1173 73.7547 49.9947 74.688 49.8987 75.408C49.8383 75.7407 49.8061 76.0779 49.8027 76.416Z" fill="#E0E0E0"/>
<path d="M19.264 70.3093C19.3659 70.3418 19.4718 70.3598 19.5787 70.3627L20.4854 70.4533C21.2747 70.5333 22.4107 70.64 23.808 70.816C26.608 71.1467 30.464 71.7493 34.688 72.5973C38.912 73.4453 42.688 74.4 45.408 75.1627C46.768 75.536 47.8614 75.8667 48.608 76.0907L49.4827 76.3467C49.5818 76.3851 49.686 76.4084 49.792 76.416C49.7032 76.3574 49.6061 76.3125 49.504 76.2827C49.2694 76.192 48.9707 76.0853 48.6507 75.9627C47.9094 75.696 46.8214 75.3227 45.4507 74.896C42.7467 74.0693 38.96 73.0827 34.7307 72.2293C30.5014 71.376 26.6667 70.8373 23.8347 70.5653C22.432 70.4213 21.2854 70.352 20.496 70.32H19.584C19.4782 70.3031 19.3707 70.2995 19.264 70.3093Z" fill="#E0E0E0"/>
<path d="M62.624 110.203C62.7054 110.087 62.775 109.964 62.832 109.835L63.3654 108.768C63.824 107.819 64.432 106.432 65.2214 104.709C66.7467 101.269 68.704 96.448 70.8 91.104C72.896 85.76 74.8107 80.9067 76.2667 77.44L78.016 73.344C78.208 72.8854 78.368 72.5173 78.4907 72.2293C78.5511 72.1008 78.5994 71.9669 78.6347 71.8293C78.5485 71.9417 78.4785 72.0656 78.4267 72.1973L77.8934 73.264C77.4347 74.2133 76.8 75.6 76.0427 77.3173C74.5174 80.7627 72.5547 85.584 70.464 90.928C68.3734 96.272 66.448 101.104 64.9814 104.571L63.232 108.667L62.7627 109.781C62.6994 109.916 62.6528 110.057 62.624 110.203Z" fill="#E0E0E0"/>
<path d="M22.1281 96.6507C22.2556 96.7174 22.3897 96.771 22.5281 96.8107L23.7067 97.2107L28.0481 98.6667C31.7121 99.8933 36.752 101.648 42.3147 103.6C47.8774 105.552 52.9387 107.269 56.6241 108.437C58.4641 109.019 59.9627 109.477 60.9974 109.776L62.1974 110.112C62.3358 110.159 62.4788 110.191 62.6241 110.208C62.4946 110.14 62.3588 110.085 62.2187 110.043L61.0401 109.643L56.6987 108.197C53.0347 106.971 47.9947 105.216 42.4321 103.264C36.8694 101.312 31.8134 99.5893 28.1281 98.4267C26.2827 97.8453 24.7894 97.3867 23.7494 97.088L22.5547 96.7467C22.416 96.7008 22.2731 96.6686 22.1281 96.6507Z" fill="#E0E0E0"/>
<path d="M271.339 37.5307H338.576L325.424 46.88V54.688C325.394 58.5458 323.834 62.234 321.085 64.9414C318.337 67.6488 314.626 69.1537 310.768 69.1253H268.576C264.718 69.1537 261.007 67.6488 258.259 64.9414C255.51 62.234 253.95 58.5458 253.92 54.688C253.937 52.4176 254.401 50.1727 255.285 48.0816C256.17 45.9905 257.458 44.0942 259.075 42.5009C260.693 40.9076 262.608 39.6486 264.712 38.7958C266.817 37.943 269.068 37.5131 271.339 37.5307Z" fill="#F5F5F5"/>
<path d="M314.08 47.968C314.08 48.0427 302.88 48.1067 289.013 48.1067C275.147 48.1067 263.947 48.0427 263.947 47.968C263.947 47.8933 275.147 47.8293 289.013 47.8293C302.88 47.8293 314.08 47.888 314.08 47.968Z" fill="#E0E0E0"/>
<path d="M314.08 53.1627C314.08 53.2374 302.88 53.3014 289.013 53.3014C275.147 53.3014 263.947 53.2374 263.947 53.1627C263.947 53.088 275.147 53.024 289.013 53.024C302.88 53.024 314.08 53.0827 314.08 53.1627Z" fill="#E0E0E0"/>
<path d="M169.328 197.557H89.7654L102.725 206.933V225.333C102.725 225.838 102.825 226.338 103.018 226.804C103.212 227.27 103.495 227.694 103.852 228.051C104.209 228.407 104.633 228.69 105.1 228.883C105.566 229.075 106.066 229.174 106.571 229.173H169.328C169.833 229.174 170.333 229.075 170.799 228.883C171.266 228.69 171.69 228.407 172.047 228.051C172.404 227.694 172.687 227.27 172.881 226.804C173.074 226.338 173.173 225.838 173.173 225.333V201.397C173.172 200.378 172.766 199.402 172.045 198.682C171.324 197.962 170.347 197.557 169.328 197.557Z" fill="#F5F5F5"/>
<path d="M166.011 210.56C166.011 210.64 154.011 210.699 139.211 210.699C124.411 210.699 112.411 210.64 112.411 210.56C112.411 210.48 124.405 210.421 139.211 210.421C154.016 210.421 166.011 210.485 166.011 210.56Z" fill="#E0E0E0"/>
<path d="M166.011 217.627C166.011 217.701 154.011 217.765 139.211 217.765C124.411 217.765 112.411 217.701 112.411 217.627C112.411 217.552 124.405 217.488 139.211 217.488C154.016 217.488 166.011 217.552 166.011 217.627Z" fill="#E0E0E0"/>
<path d="M331.776 106.88H238.661C227.236 106.88 217.973 116.142 217.973 127.568V203.355C217.973 214.78 227.236 224.043 238.661 224.043H331.776C343.202 224.043 352.464 214.78 352.464 203.355V127.568C352.464 116.142 343.202 106.88 331.776 106.88Z" fill="#FFCC34"/>
<g opacity="0.4">
<path d="M331.776 106.88H238.661C227.236 106.88 217.973 116.142 217.973 127.568V203.355C217.973 214.78 227.236 224.043 238.661 224.043H331.776C343.202 224.043 352.464 214.78 352.464 203.355V127.568C352.464 116.142 343.202 106.88 331.776 106.88Z" fill="black"/>
</g>
<path d="M352.427 147.723H372.571L351.973 168.325L352.427 147.723Z" fill="#FFCC34"/>
<g opacity="0.4">
<path d="M352.427 147.723H372.571L351.973 168.325L352.427 147.723Z" fill="black"/>
</g>
<path d="M214.752 160.389L206.309 150.789C204.027 148.507 203.243 147.408 203.701 147.008C204.309 146.475 204.048 146.651 208.789 150.208C208.789 150.208 202.069 145.072 204.4 145.04C204.811 145.04 205.952 145.701 207.173 146.501C205.509 145.088 205.04 144.133 205.365 143.68C205.899 142.891 210.016 145.744 211.909 147.115C210.363 145.963 207.413 143.728 206.896 143.024C206.181 142.064 207.627 142.144 208.8 142.544C210.117 142.992 217.397 146.709 219.552 147.669C219.725 147.772 219.918 147.837 220.118 147.858C220.318 147.879 220.52 147.857 220.711 147.793C220.901 147.728 221.076 147.623 221.222 147.485C221.368 147.347 221.482 147.179 221.557 146.992C222.352 143.653 224.757 141.483 225.675 141.2C226.592 140.917 227.301 142.091 226.645 142.944C226.028 143.937 225.551 145.01 225.227 146.133C224.93 147.014 224.783 147.939 224.795 148.869C224.795 149.936 224.869 150.859 224.939 151.632L232.656 162.219L219.749 169.685L214.752 160.389Z" fill="#B78876"/>
<path d="M211.733 151.701C211.648 151.819 210.133 150.789 208.384 149.397C206.635 148.005 205.269 146.779 205.371 146.667C205.472 146.555 206.971 147.589 208.72 148.971C210.469 150.352 211.808 151.579 211.733 151.701Z" fill="#AA6550"/>
<path d="M213.365 150.016C213.28 150.139 211.621 149.125 209.659 147.76C207.696 146.395 206.171 145.184 206.256 145.067C206.341 144.949 208 145.952 209.963 147.317C211.925 148.683 213.451 149.893 213.365 150.016Z" fill="#AA6550"/>
<path d="M214.56 148.224C214.475 148.347 212.885 147.419 211.013 146.149C209.141 144.88 207.691 143.755 207.771 143.627C207.851 143.499 209.44 144.432 211.317 145.701C213.195 146.971 214.64 148.101 214.56 148.224Z" fill="#AA6550"/>
<path d="M225.659 153.067L256.421 192.075L249.376 208.475C249.376 208.475 240.939 206.608 238.379 203.056C235.819 199.504 214.752 160.389 214.752 160.389L225.659 153.067Z" fill="#B78876"/>
<path d="M303.749 98.496C305.963 100.416 305.957 103.797 305.701 106.715C305.445 109.632 305.248 112.955 307.269 115.077C308.939 116.827 311.963 117.589 312.347 119.973C312.438 120.533 312.353 121.108 312.104 121.618C311.855 122.128 311.454 122.548 310.957 122.821C310.459 123.094 309.89 123.207 309.326 123.143C308.762 123.079 308.232 122.842 307.808 122.464C308.459 124.347 308.011 126.699 306.379 127.84C304.747 128.981 302.011 128.277 301.504 126.352C301.587 126.673 301.603 127.008 301.55 127.336C301.498 127.664 301.379 127.978 301.2 128.257C301.021 128.537 300.786 128.777 300.511 128.962C300.235 129.147 299.924 129.273 299.598 129.332C299.271 129.392 298.936 129.383 298.613 129.308C298.289 129.232 297.985 129.09 297.719 128.891C297.453 128.693 297.231 128.442 297.067 128.153C296.902 127.865 296.798 127.546 296.763 127.216" fill="#263238"/>
<path d="M272.053 118.187C271.756 118.901 271.186 119.468 270.471 119.762C269.755 120.057 268.952 120.055 268.237 119.757C267.523 119.46 266.956 118.89 266.662 118.175C266.367 117.459 266.369 116.656 266.667 115.941C267.173 114.832 268.373 114.032 268.491 112.816C268.629 111.349 267.131 110.299 265.824 109.659C264.517 109.019 262.939 108.187 262.795 106.715C262.651 105.243 263.925 104.192 264.987 103.243C266.048 102.293 267.12 100.821 266.443 99.5573C266.107 98.9066 265.408 98.5386 264.955 97.9573C263.957 96.688 264.48 94.6666 265.755 93.6906C267.029 92.7146 268.789 92.56 270.379 92.8426C271.968 93.1253 273.461 93.7866 275.008 94.2506C277.572 94.9962 280.263 95.202 282.91 94.855C285.557 94.508 288.104 93.6157 290.389 92.2346" fill="#263238"/>
<path d="M281.499 152.581C284.254 153.137 287.118 152.588 289.471 151.051C291.825 149.515 293.48 147.114 294.08 144.368L301.648 109.669C302.12 107.666 302.186 105.588 301.842 103.558C301.497 101.529 300.749 99.5889 299.641 97.8536C298.534 96.1182 297.09 94.6225 295.395 93.455C293.699 92.2874 291.787 91.4717 289.771 91.056L288.981 90.9386C285.126 90.3719 281.198 91.2783 277.981 93.4775C274.764 95.6767 272.493 99.0071 271.621 102.805C269.936 110.128 268.171 118.24 267.637 122.224C266.533 130.475 274.571 132.96 274.571 132.96L273.125 139.893C272.839 141.275 272.828 142.699 273.094 144.085C273.359 145.47 273.896 146.79 274.673 147.967C275.45 149.145 276.452 150.157 277.622 150.946C278.791 151.735 280.105 152.286 281.488 152.565L281.499 152.581Z" fill="#B78876"/>
<path d="M273.104 108.267C273.057 108.573 273.131 108.885 273.31 109.138C273.489 109.391 273.76 109.564 274.064 109.621C274.211 109.655 274.364 109.659 274.513 109.633C274.662 109.606 274.805 109.551 274.932 109.469C275.059 109.387 275.168 109.28 275.254 109.155C275.339 109.03 275.399 108.89 275.429 108.741C275.479 108.436 275.407 108.122 275.228 107.869C275.05 107.616 274.779 107.443 274.475 107.387C274.327 107.353 274.174 107.349 274.024 107.375C273.875 107.401 273.732 107.457 273.605 107.539C273.477 107.621 273.367 107.728 273.281 107.852C273.195 107.977 273.135 108.118 273.104 108.267Z" fill="#263238"/>
<path d="M272.8 107.093C272.923 107.269 273.909 106.736 275.179 106.928C276.448 107.12 277.275 107.883 277.435 107.749C277.515 107.691 277.403 107.392 277.045 107.04C276.553 106.58 275.931 106.284 275.264 106.192C274.606 106.093 273.934 106.205 273.344 106.512C272.912 106.757 272.741 107.013 272.8 107.093Z" fill="#263238"/>
<path d="M285.472 110.293C285.424 110.6 285.497 110.913 285.676 111.166C285.856 111.419 286.127 111.592 286.432 111.648C286.58 111.682 286.733 111.685 286.882 111.659C287.032 111.632 287.174 111.576 287.301 111.493C287.429 111.411 287.538 111.304 287.623 111.178C287.708 111.053 287.768 110.911 287.797 110.763C287.845 110.457 287.772 110.144 287.592 109.892C287.413 109.64 287.142 109.468 286.837 109.413C286.69 109.379 286.537 109.375 286.387 109.401C286.238 109.426 286.096 109.482 285.968 109.564C285.841 109.646 285.731 109.753 285.646 109.878C285.561 110.004 285.502 110.145 285.472 110.293Z" fill="#263238"/>
<path d="M285.205 109.152C285.328 109.323 286.315 108.795 287.579 108.987C288.843 109.179 289.68 109.941 289.84 109.808C289.915 109.749 289.808 109.451 289.445 109.099C288.953 108.639 288.331 108.343 287.664 108.251C287.006 108.151 286.334 108.263 285.744 108.571C285.333 108.8 285.141 109.072 285.205 109.152Z" fill="#263238"/>
<path d="M279.237 117.867C279.237 117.792 278.485 117.541 277.237 117.195C276.917 117.115 276.624 117.003 276.603 116.773C276.625 116.437 276.747 116.116 276.955 115.851C277.378 115.115 277.817 114.341 278.272 113.531C280.112 110.219 281.472 107.483 281.36 107.408C281.248 107.333 279.627 109.957 277.787 113.275L276.507 115.611C276.248 115.973 276.124 116.414 276.155 116.859C276.187 116.976 276.246 117.086 276.326 117.178C276.407 117.27 276.506 117.343 276.619 117.392C276.789 117.465 276.969 117.517 277.152 117.547C277.831 117.739 278.532 117.847 279.237 117.867Z" fill="#263238"/>
<path d="M285.6 104.144C285.675 104.507 286.965 104.528 288.421 104.923C289.877 105.317 291.019 105.899 291.264 105.621C291.371 105.488 291.211 105.131 290.779 104.731C290.192 104.227 289.499 103.864 288.751 103.669C288.004 103.474 287.221 103.452 286.464 103.605C285.867 103.744 285.573 104 285.6 104.144Z" fill="#263238"/>
<path d="M273.803 103.499C273.984 103.819 274.869 103.648 275.936 103.787C277.003 103.925 277.845 104.267 278.069 103.995C278.181 103.861 278.069 103.552 277.739 103.221C277.265 102.819 276.683 102.567 276.065 102.496C275.448 102.426 274.824 102.541 274.272 102.827C273.888 103.067 273.723 103.344 273.803 103.499Z" fill="#263238"/>
<path d="M294.032 99.328L294.069 99.3707C295.231 100.597 295.873 102.225 295.861 103.915V104.08C295.861 106.48 295.429 108.88 295.435 111.253C295.44 113.627 295.899 116.155 297.397 118.021C298.011 118.795 299.205 119.435 299.904 118.741C300.15 118.446 300.307 118.088 300.357 117.707C301.627 112.101 303.909 107.301 304.768 101.371C304.887 100.577 304.815 99.7659 304.558 99.0053C304.301 98.2448 303.867 97.5564 303.291 96.9973C302.181 95.9306 300.8 94.7787 299.323 95.232C297.845 95.6853 295.685 98.0053 294.453 98.9653" fill="#263238"/>
<path d="M298.325 112.987C298.475 112.944 304.229 112.139 303.221 117.744C302.213 123.349 296.821 121.184 296.821 121.019C296.821 120.853 298.325 112.987 298.325 112.987Z" fill="#B78876"/>
<path d="M298.912 119.205C298.912 119.205 298.997 119.291 299.147 119.392C299.362 119.534 299.624 119.588 299.877 119.541C300.507 119.429 301.173 118.581 301.381 117.573C301.489 117.098 301.489 116.604 301.381 116.128C301.359 115.944 301.293 115.767 301.188 115.614C301.083 115.461 300.943 115.335 300.779 115.248C300.672 115.198 300.551 115.187 300.436 115.217C300.322 115.247 300.222 115.317 300.155 115.413C300.053 115.552 300.069 115.675 300.037 115.675C300.005 115.675 299.936 115.563 300.037 115.339C300.093 115.206 300.193 115.096 300.32 115.029C300.495 114.94 300.698 114.923 300.885 114.981C301.109 115.07 301.305 115.215 301.457 115.402C301.608 115.589 301.709 115.811 301.749 116.048C301.897 116.569 301.917 117.118 301.808 117.648C301.568 118.773 300.8 119.723 299.952 119.813C299.793 119.83 299.633 119.811 299.482 119.758C299.332 119.704 299.195 119.617 299.083 119.504C298.896 119.339 298.891 119.211 298.912 119.205Z" fill="#AA6550"/>
<path d="M299.387 96.1333C301.104 94.08 297.787 90.2933 295.12 89.008C292.453 87.7227 288.613 88.544 285.712 89.056C283.883 89.3813 282.027 89.936 280.203 89.5893C278.992 89.2864 277.834 88.8027 276.768 88.1547C275.699 87.5182 274.513 87.1029 273.28 86.9333C272.66 86.857 272.031 86.9513 271.46 87.206C270.89 87.4607 270.4 87.8661 270.043 88.3787C269.408 89.4453 269.851 91.1147 271.045 91.4613C270.685 91.188 270.264 91.0061 269.819 90.9312C269.373 90.8563 268.915 90.8907 268.486 91.0314C268.056 91.1721 267.667 91.4149 267.352 91.739C267.037 92.063 266.805 92.4587 266.676 92.8921C266.548 93.3254 266.526 93.7835 266.614 94.2271C266.701 94.6706 266.894 95.0863 267.178 95.4386C267.461 95.7909 267.825 96.0692 268.24 96.2496C268.654 96.4301 269.106 96.5073 269.557 96.4747C268.848 95.7493 267.472 96.576 267.424 97.5893C267.376 98.6027 268.176 99.4613 269.024 100C271.216 101.376 274 101.445 276.549 100.987C279.099 100.528 281.541 99.5787 284.08 99.056C286.619 98.5333 290.88 97.5413 293.173 98.752C294.859 99.6373 295.787 101.952 296.859 101.637C297.366 101.45 297.823 101.148 298.194 100.753C298.564 100.359 298.837 99.8837 298.992 99.3653C299.281 98.3245 299.402 97.2442 299.349 96.1653" fill="#263238"/>
<path d="M310.357 122.133C310.462 122.109 310.562 122.066 310.651 122.005C310.914 121.836 311.125 121.596 311.259 121.312C311.465 120.858 311.529 120.352 311.44 119.861C311.302 119.216 310.948 118.637 310.437 118.219C309.831 117.72 309.149 117.322 308.416 117.04C307.592 116.739 306.801 116.357 306.053 115.899C305.27 115.348 304.673 114.573 304.341 113.675C303.977 112.708 303.808 111.678 303.845 110.645C303.899 108.512 304.491 106.512 304.635 104.629C304.779 102.747 304.539 100.981 303.739 99.76C303.137 98.7778 302.183 98.0623 301.072 97.76C300.774 97.685 300.467 97.6544 300.16 97.6693C300.053 97.671 299.948 97.6872 299.845 97.7173C300.25 97.7147 300.654 97.7649 301.045 97.8667C302.102 98.2007 302.998 98.9128 303.563 99.8667C304.304 101.051 304.56 102.768 304.373 104.608C304.187 106.448 303.616 108.448 303.552 110.64C303.518 111.71 303.699 112.777 304.085 113.776C304.442 114.725 305.08 115.542 305.915 116.117C306.68 116.577 307.489 116.959 308.331 117.259C309.044 117.523 309.712 117.897 310.309 118.368C310.797 118.753 311.142 119.29 311.291 119.893C311.388 120.353 311.343 120.831 311.163 121.264C310.998 121.635 310.715 121.941 310.357 122.133Z" fill="#455A64"/>
<path d="M270.864 91.328C270.789 91.2719 270.707 91.227 270.619 91.1946C270.519 91.1455 270.416 91.1045 270.309 91.072C270.162 91.0215 270.01 90.984 269.856 90.96C269.35 90.8802 268.833 90.9165 268.343 91.0662C267.853 91.2159 267.404 91.475 267.029 91.824C266.65 92.2865 266.366 92.8197 266.193 93.3928C266.021 93.9659 265.965 94.5675 266.027 95.1626C266.098 95.9019 266.317 96.6193 266.671 97.2724C267.025 97.9256 267.506 98.5012 268.085 98.9653C269.418 100.039 271.041 100.691 272.747 100.837C274.599 100.997 276.464 100.883 278.283 100.501C281.167 99.9362 283.929 98.8675 286.443 97.344C287.52 96.6775 288.647 96.0945 289.813 95.6C290.831 95.1871 291.916 94.9647 293.013 94.944C294.611 94.9094 296.192 95.2761 297.611 96.0106C298.124 96.2977 298.62 96.6129 299.099 96.9546C298.672 96.5351 298.189 96.1762 297.664 95.888C296.241 95.0952 294.637 94.6853 293.008 94.6986C291.883 94.7072 290.77 94.9224 289.723 95.3333C288.544 95.8272 287.405 96.4103 286.315 97.0773C283.819 98.5692 281.083 99.6176 278.229 100.176C276.437 100.556 274.599 100.672 272.773 100.523C271.12 100.386 269.545 99.762 268.245 98.7306C267.687 98.2889 267.221 97.7401 266.877 97.1165C266.533 96.4929 266.316 95.8069 266.24 95.0986C266.175 94.5311 266.222 93.9563 266.38 93.4072C266.537 92.8581 266.801 92.3454 267.157 91.8986C267.513 91.5592 267.94 91.3032 268.406 91.1491C268.873 90.9951 269.368 90.9469 269.856 91.008C270.201 91.0835 270.539 91.1907 270.864 91.328Z" fill="#455A64"/>
<path d="M273.984 86.6613C273.965 87.0899 274.032 87.5179 274.181 87.92C274.597 89.0313 275.375 89.9705 276.389 90.5866C277.071 91.0307 277.828 91.3453 278.624 91.5146C279.536 91.6985 280.471 91.747 281.397 91.6586C283.355 91.5146 285.403 90.8426 287.552 90.288C289.701 89.7333 291.851 89.44 293.707 89.936C295.354 90.3724 296.819 91.3235 297.888 92.6506C298.623 93.5321 299.168 94.5563 299.488 95.6586C299.701 96.4426 299.728 96.9013 299.765 96.896C299.772 96.7859 299.772 96.6754 299.765 96.5653C299.736 96.2509 299.684 95.939 299.611 95.632C299.326 94.4948 298.796 93.4336 298.059 92.5226C296.979 91.141 295.483 90.1442 293.792 89.68C291.872 89.1466 289.664 89.4506 287.504 90.0106C285.344 90.5706 283.312 91.2426 281.397 91.3973C280.495 91.4906 279.584 91.4529 278.693 91.2853C277.922 91.1285 277.186 90.8359 276.517 90.4213C275.528 89.8382 274.754 88.9517 274.309 87.8933C274.167 87.4925 274.058 87.0804 273.984 86.6613Z" fill="#455A64"/>
<path d="M276.709 122.053C276.779 122.604 276.925 123.142 277.141 123.653C277.255 123.906 277.42 124.131 277.627 124.315C277.834 124.499 278.077 124.637 278.341 124.72C278.627 124.779 278.924 124.766 279.203 124.681C279.483 124.596 279.736 124.443 279.941 124.235C280.35 123.804 280.613 123.255 280.693 122.667C280.779 122.133 280.693 121.467 280.16 121.296C279.945 121.243 279.719 121.243 279.504 121.296L276.549 121.829" fill="#AA6550"/>
<path d="M277.227 124.293C277.696 124.474 278.195 124.568 278.699 124.571C279.22 124.54 279.711 124.316 280.075 123.941C280.29 123.712 280.454 123.44 280.556 123.144C280.658 122.847 280.696 122.531 280.667 122.219C280.651 122.058 280.615 121.901 280.56 121.749C280.491 121.605 280.512 121.616 280.389 121.6C280.267 121.584 280.075 121.6 279.915 121.627L279.419 121.664C278.779 121.712 278.203 121.749 277.717 121.776C277.186 121.85 276.646 121.839 276.117 121.744C276.616 121.562 277.139 121.454 277.669 121.424C278.149 121.355 278.736 121.285 279.36 121.211L279.851 121.157C280.027 121.131 280.205 121.115 280.384 121.109C280.525 121.113 280.662 121.162 280.773 121.248C280.873 121.336 280.948 121.448 280.992 121.573C281.064 121.765 281.111 121.966 281.131 122.171C281.166 122.555 281.115 122.942 280.984 123.304C280.852 123.666 280.642 123.995 280.368 124.267C279.913 124.699 279.305 124.935 278.677 124.923C278.267 124.924 277.864 124.812 277.515 124.597C277.333 124.448 277.211 124.315 277.227 124.293Z" fill="#263238"/>
<path d="M274.581 132.96C274.581 132.96 279.957 134.997 285.189 133.493C285.189 133.493 281.243 136.805 274.043 135.536L274.581 132.96Z" fill="#AA6550"/>
<path d="M282.784 209.424C282.525 209.254 282.279 209.065 282.048 208.859C281.819 208.672 281.515 208.443 281.189 208.197C280.864 207.952 280.469 207.664 280.016 207.371C279.563 207.077 279.093 206.757 278.544 206.453C277.995 206.149 277.413 205.829 276.789 205.509C274.053 204.163 271.111 203.283 268.085 202.907C267.387 202.832 266.725 202.747 266.101 202.731C265.477 202.715 264.896 202.688 264.368 202.693C263.84 202.699 263.355 202.725 262.933 202.741C262.512 202.757 262.149 202.789 261.867 202.821C261.561 202.868 261.253 202.889 260.944 202.885C261.244 202.808 261.549 202.751 261.856 202.715C262.209 202.654 262.565 202.611 262.923 202.587C263.344 202.555 263.824 202.496 264.363 202.496C264.901 202.496 265.483 202.464 266.112 202.496C266.741 202.528 267.413 202.581 268.117 202.645C269.643 202.835 271.152 203.146 272.629 203.573C274.095 204.024 275.522 204.593 276.896 205.275C277.52 205.605 278.123 205.909 278.651 206.251C279.179 206.592 279.68 206.896 280.117 207.205C280.555 207.515 280.939 207.813 281.275 208.069C281.611 208.325 281.888 208.571 282.107 208.773C282.35 208.971 282.577 209.189 282.784 209.424Z" fill="#FAFAFA"/>
<path d="M251.44 182.032L255.813 163.083C257.488 155.957 259.472 149.109 262.805 148.299V150.501L261.376 204.64C261.376 204.64 252.464 214.773 241.109 209.152C237.557 207.387 231.077 194.987 231.077 194.987C231.077 194.987 216 168.085 216.629 166.864C217.259 165.643 226.469 153.771 227.408 153.179L251.44 182.032Z" fill="#FFCC34"/>
<path d="M296.443 142.933C305.136 144.597 314.923 149.669 319.429 162.667C321.072 167.413 333.04 202.405 333.04 202.405L312.629 201.979L309.333 194.773L310.933 206.48L312.315 223.173L260.773 224.043L261.136 198.891L261.632 148.864C261.632 148.864 262.208 148.107 271.099 143.205C276.613 140.16 296.443 142.933 296.443 142.933Z" fill="#FFCC34"/>
<g opacity="0.2">
<path d="M301.584 176.395C302.432 186.955 303.403 190.219 304.251 200.779C304.271 201.779 304.451 202.769 304.784 203.712C304.962 204.181 305.248 204.602 305.619 204.94C305.989 205.278 306.434 205.524 306.917 205.659C308.421 205.963 310.373 207.051 310.795 205.579L309.371 195.408C309.064 193.928 308.592 192.488 307.963 191.115C304.8 184.091 303.632 183.68 301.563 176.395" fill="black"/>
</g>
<path d="M271.093 148.619L271.264 147.52L272.912 136.981C272.959 136.675 273.121 136.398 273.365 136.206C273.608 136.014 273.915 135.921 274.224 135.947L294.517 137.643C295.13 137.693 295.698 137.984 296.098 138.451C296.498 138.919 296.696 139.525 296.651 140.139L296.197 146.261L289.861 154.528L280.736 155.952" fill="#FFCC34"/>
<path d="M260.901 168.432C260.981 168.432 261.04 176.688 261.04 186.869C261.04 197.051 260.981 205.307 260.901 205.307C260.821 205.307 260.763 197.051 260.763 186.869C260.763 176.688 260.827 168.432 260.901 168.432Z" fill="#263238"/>
<path d="M313.067 203.675C313.067 203.675 313.067 203.637 313.003 203.557C312.939 203.477 312.901 203.344 312.832 203.195L312.213 201.792L309.989 196.613L302.741 179.488C301.333 176.139 299.995 172.949 298.779 170.043C298.164 168.681 297.723 167.248 297.467 165.776C297.242 164.49 297.124 163.188 297.115 161.883C297.047 159.991 297.321 158.103 297.925 156.309L298.091 155.867L298.277 155.493C298.365 155.295 298.472 155.105 298.597 154.928L298.821 154.597C298.847 154.56 298.876 154.524 298.907 154.491C298.556 155.08 298.261 155.702 298.027 156.347C297.469 158.136 297.227 160.01 297.312 161.883C297.321 164.664 297.9 167.414 299.013 169.963L302.997 179.397L310.171 196.555L312.304 201.765L312.875 203.189L313.019 203.563C313.038 203.598 313.054 203.636 313.067 203.675Z" fill="#263238"/>
<path d="M302.768 144.795C302.581 144.984 302.384 145.162 302.176 145.328C301.576 145.785 300.922 146.167 300.229 146.464C299.131 146.922 297.981 147.245 296.805 147.424C295.251 147.665 293.684 147.82 292.112 147.888C290.363 147.963 288.453 147.931 286.405 147.968C284.23 147.964 282.062 148.229 279.952 148.757C277.614 149.31 275.498 150.557 273.883 152.336C273.078 153.305 272.502 154.442 272.197 155.664C271.872 156.917 271.894 158.236 272.261 159.477C272.465 160.09 272.766 160.666 273.152 161.184C273.541 161.687 274.031 162.101 274.592 162.4C275.136 162.698 275.756 162.828 276.373 162.773C276.977 162.711 277.537 162.426 277.941 161.973C278.302 161.497 278.558 160.951 278.694 160.369C278.83 159.788 278.843 159.184 278.731 158.597C278.642 158.018 278.462 157.456 278.197 156.933C277.934 156.423 277.618 155.942 277.253 155.499C275.828 153.856 273.908 152.72 271.781 152.261C269.939 151.827 268.018 151.849 266.187 152.325C264.68 152.715 263.241 153.332 261.92 154.155C260.914 154.782 259.965 155.496 259.083 156.288C258.352 156.928 257.835 157.483 257.483 157.845L257.088 158.272C257.045 158.323 256.997 158.369 256.944 158.411C257.572 157.617 258.268 156.88 259.024 156.208C259.897 155.4 260.843 154.675 261.851 154.043C263.185 153.194 264.642 152.557 266.171 152.155C268.033 151.655 269.989 151.622 271.867 152.059C274.048 152.519 276.02 153.678 277.483 155.36C277.855 155.805 278.181 156.288 278.453 156.8C278.722 157.349 278.902 157.938 278.987 158.544C279.08 159.162 279.069 159.791 278.955 160.405C278.84 161.045 278.558 161.643 278.139 162.139C277.69 162.642 277.07 162.959 276.4 163.029C275.727 163.093 275.051 162.954 274.459 162.629C273.863 162.311 273.342 161.872 272.928 161.339C272.521 160.796 272.204 160.191 271.989 159.547C271.606 158.256 271.584 156.886 271.925 155.584C272.236 154.319 272.833 153.143 273.669 152.144C275.324 150.329 277.488 149.056 279.877 148.491C282.012 147.969 284.203 147.714 286.4 147.733C288.453 147.701 290.363 147.733 292.101 147.685C293.667 147.631 295.228 147.49 296.779 147.264C297.948 147.096 299.093 146.792 300.192 146.357C300.881 146.077 301.536 145.72 302.144 145.291C302.357 145.147 302.501 145.013 302.608 144.939C302.657 144.886 302.71 144.837 302.768 144.795Z" fill="#FAFAFA"/>
<path d="M320.405 166.992C320.33 167.013 320.254 167.026 320.176 167.029C320.027 167.029 319.808 167.067 319.52 167.077C318.714 167.104 317.907 167.084 317.104 167.019C316.085 166.944 314.88 166.789 313.547 166.603C312.213 166.416 310.752 166.219 309.205 166.139C307.759 166.06 306.309 166.169 304.891 166.464C303.731 166.7 302.618 167.123 301.595 167.717C300.668 168.284 299.845 169.006 299.163 169.851C299.191 169.779 299.231 169.713 299.28 169.653C299.392 169.465 299.521 169.286 299.664 169.12C300.181 168.489 300.799 167.948 301.493 167.52C302.523 166.891 303.652 166.44 304.832 166.187C306.273 165.872 307.749 165.754 309.221 165.835C310.784 165.915 312.251 166.128 313.584 166.325C314.917 166.523 316.112 166.699 317.12 166.795C318.128 166.891 318.955 166.933 319.52 166.939C319.816 166.938 320.112 166.956 320.405 166.992Z" fill="#FAFAFA"/>
<path d="M307.589 190.901C306.587 190.668 305.556 190.58 304.528 190.64C303.323 190.722 302.13 190.934 300.971 191.275C299.611 191.643 298.091 192.181 296.384 192.709C294.531 193.338 292.591 193.674 290.635 193.707C288.381 193.706 286.152 193.243 284.085 192.347C281.788 191.376 279.745 189.89 278.112 188.005C277.229 187.02 276.509 185.9 275.979 184.688C275.415 183.433 275.203 182.049 275.365 180.683C275.551 179.306 276.222 178.04 277.259 177.115C277.773 176.666 278.391 176.351 279.056 176.197C279.707 176.059 280.381 176.078 281.024 176.251C281.666 176.425 282.259 176.748 282.752 177.195C283.234 177.636 283.569 178.215 283.712 178.853C283.85 179.478 283.8 180.129 283.568 180.725C283.344 181.298 283.004 181.819 282.571 182.256C281.744 183.084 280.744 183.72 279.643 184.117C279.124 184.314 278.589 184.462 278.043 184.56C277.776 184.608 277.509 184.667 277.248 184.704L276.453 184.8C274.504 184.993 272.537 184.854 270.635 184.389C269.066 184.016 267.554 183.435 266.139 182.661C265.069 182.083 264.065 181.389 263.147 180.592L262.613 180.128L262.176 179.685C261.94 179.462 261.719 179.223 261.515 178.971L261.131 178.512C261.087 178.462 261.048 178.409 261.013 178.352C261.065 178.396 261.113 178.444 261.157 178.496L261.557 178.933C261.769 179.178 261.995 179.41 262.235 179.627L262.677 180.059L263.211 180.512C264.133 181.287 265.136 181.961 266.203 182.523C267.61 183.275 269.111 183.838 270.667 184.197C272.55 184.646 274.496 184.772 276.421 184.571L277.2 184.475C277.461 184.432 277.733 184.373 277.989 184.325C278.523 184.229 279.046 184.082 279.552 183.888C280.617 183.5 281.584 182.883 282.384 182.08C282.792 181.667 283.111 181.175 283.323 180.635C283.532 180.085 283.578 179.487 283.456 178.912C283.298 178.325 282.982 177.792 282.543 177.37C282.104 176.949 281.559 176.656 280.965 176.523C280.358 176.347 279.715 176.329 279.099 176.47C278.482 176.611 277.911 176.906 277.44 177.328C276.452 178.208 275.815 179.414 275.643 180.725C275.49 182.04 275.692 183.372 276.229 184.581C276.745 185.765 277.444 186.861 278.299 187.829C279.904 189.68 281.91 191.139 284.165 192.096C286.2 192.984 288.394 193.448 290.613 193.461C292.55 193.437 294.472 193.114 296.309 192.501C298.011 191.968 299.509 191.467 300.912 191.109C302.083 190.78 303.287 190.582 304.501 190.517C304.944 190.49 305.387 190.49 305.829 190.517C306.208 190.576 306.533 190.603 306.789 190.661L307.371 190.805C307.448 190.827 307.521 190.859 307.589 190.901Z" fill="#FAFAFA"/>
<path d="M260.725 185.211C260.677 185.211 260.432 184.677 259.915 183.781C258.561 181.507 256.587 179.667 254.224 178.475C253.317 178.016 252.72 177.813 252.736 177.765C252.886 177.778 253.033 177.812 253.173 177.867C253.562 177.982 253.941 178.125 254.309 178.293C255.531 178.851 256.655 179.602 257.637 180.517C258.621 181.432 259.448 182.502 260.085 183.685C260.287 184.039 260.465 184.406 260.619 184.784C260.673 184.921 260.709 185.064 260.725 185.211Z" fill="#FAFAFA"/>
<path d="M240.032 208.037C240.032 208.037 239.995 207.995 239.947 207.904C239.899 207.813 239.819 207.669 239.728 207.504C239.536 207.152 239.259 206.624 238.917 205.941C237.926 204.014 237.109 202.003 236.475 199.931C236.05 198.491 235.795 197.008 235.712 195.509C235.669 194.672 235.703 193.833 235.813 193.003C235.946 192.123 236.156 191.258 236.443 190.416C237.065 188.596 238.143 186.966 239.573 185.68C240.337 184.979 241.235 184.44 242.214 184.097C243.192 183.753 244.229 183.611 245.264 183.68C246.339 183.76 247.343 184.249 248.069 185.045C248.415 185.439 248.666 185.907 248.804 186.412C248.941 186.918 248.962 187.448 248.864 187.963C248.749 188.468 248.485 188.926 248.107 189.28C247.737 189.619 247.29 189.862 246.805 189.989C245.866 190.234 244.87 190.114 244.016 189.653C243.224 189.226 242.531 188.635 241.984 187.92C241.459 187.258 241.027 186.528 240.699 185.749C240.121 184.353 239.882 182.84 240 181.333C240.108 180.09 240.471 178.883 241.067 177.787C241.508 176.96 242.073 176.204 242.741 175.547C243.159 175.13 243.618 174.756 244.112 174.432C244.277 174.32 244.416 174.251 244.507 174.197L244.645 174.128C244.645 174.128 244.475 174.251 244.144 174.48C243.668 174.82 243.223 175.202 242.816 175.621C242.177 176.285 241.638 177.037 241.216 177.856C240.649 178.938 240.31 180.125 240.219 181.344C240.115 182.821 240.364 184.302 240.944 185.664C241.268 186.419 241.691 187.128 242.203 187.771C242.733 188.455 243.402 189.02 244.165 189.429C244.962 189.858 245.893 189.969 246.768 189.739C247.217 189.634 247.628 189.407 247.957 189.083C248.285 188.759 248.518 188.351 248.629 187.904C248.714 187.433 248.692 186.949 248.564 186.487C248.437 186.026 248.208 185.598 247.893 185.237C247.213 184.495 246.274 184.041 245.269 183.968C244.273 183.902 243.273 184.039 242.331 184.37C241.389 184.701 240.523 185.219 239.787 185.893C238.39 187.149 237.335 188.738 236.72 190.512C236.432 191.336 236.22 192.183 236.085 193.045C235.975 193.862 235.937 194.686 235.973 195.509C236.048 196.992 236.291 198.461 236.699 199.888C237.313 201.955 238.098 203.967 239.045 205.904L239.808 207.504C239.888 207.675 239.952 207.813 240.005 207.92C240.059 208.027 240.032 208.037 240.032 208.037Z" fill="#FAFAFA"/>
<path d="M233.445 160.955C233.445 160.955 233.472 161.029 233.493 161.173C233.531 161.389 233.558 161.606 233.573 161.824C233.644 162.621 233.644 163.422 233.573 164.219C233.358 166.871 232.45 169.421 230.942 171.614C229.433 173.806 227.376 175.565 224.976 176.715C224.257 177.065 223.51 177.353 222.741 177.573C222.475 177.659 222.256 177.696 222.112 177.733C221.968 177.771 221.888 177.776 221.888 177.765C222.155 177.65 222.43 177.552 222.709 177.472C223.457 177.213 224.186 176.901 224.891 176.539C227.227 175.358 229.229 173.61 230.713 171.453C232.197 169.296 233.114 166.801 233.381 164.197C233.465 163.411 233.496 162.62 233.472 161.829C233.444 161.539 233.435 161.246 233.445 160.955Z" fill="#FAFAFA"/>
<path d="M325.072 184.08C324.279 184.577 323.581 185.213 323.013 185.957C322.48 186.645 321.947 187.557 321.344 188.517C320.683 189.592 319.92 190.601 319.067 191.531C317.505 193.217 315.654 194.61 313.6 195.643C312.982 195.956 312.344 196.228 311.691 196.459C311.452 196.552 311.206 196.624 310.955 196.672C311.175 196.546 311.408 196.44 311.648 196.357C312.096 196.16 312.747 195.883 313.509 195.467C315.502 194.396 317.304 193.003 318.843 191.344C319.688 190.429 320.446 189.438 321.109 188.384C321.64 187.503 322.218 186.652 322.843 185.835C323.276 185.287 323.793 184.81 324.373 184.421C324.531 184.317 324.697 184.226 324.869 184.149C325.008 184.096 325.072 184.069 325.072 184.08Z" fill="#FAFAFA"/>
<path d="M296.251 143.573C296.173 143.607 296.09 143.628 296.005 143.637L295.296 143.765C294.677 143.867 293.781 144 292.677 144.149C290.459 144.448 287.387 144.8 283.979 145.051C282.383 145.196 280.781 145.253 279.179 145.221C277.857 145.189 276.547 144.965 275.291 144.555C274.442 144.28 273.642 143.875 272.917 143.355C272.72 143.215 272.531 143.064 272.352 142.901C272.235 142.784 272.176 142.725 272.181 142.715C272.187 142.704 272.459 142.928 272.976 143.248C273.713 143.722 274.511 144.091 275.349 144.347C276.595 144.726 277.888 144.927 279.189 144.944C280.792 144.961 282.394 144.897 283.989 144.752C287.387 144.501 290.459 144.187 292.677 143.936L295.307 143.637C295.619 143.594 295.935 143.573 296.251 143.573Z" fill="#263238"/>
<path d="M332.8 206.181C333.201 208.245 333.144 210.371 332.632 212.41C332.12 214.448 331.165 216.349 329.837 217.978C328.508 219.606 326.837 220.923 324.942 221.834C323.048 222.744 320.976 223.227 318.875 223.248L278.475 222.8L279.541 209.717L314.133 204.523" fill="#B78876"/>
<path d="M282.016 210.288C281.829 210.347 279.499 209.301 277.408 208.336C275.19 207.309 272.756 206.836 270.315 206.96L260.683 207.451C260.683 207.451 261.275 209.051 262.283 209.584C263.291 210.117 269.333 210.288 269.333 210.288L269.024 210.603C267.76 211.904 266.037 212.658 264.224 212.704H263.301C262.618 212.65 261.944 212.517 261.291 212.309L258.917 211.349C258.197 211.029 257.44 211.077 257.125 211.803C256.811 212.528 257.051 213.36 259.013 214.347C260.107 214.88 264.171 216.304 264.171 216.304C264.198 216.883 264.279 217.457 264.411 218.021C264.587 218.613 266.181 219.205 266.181 219.205C266.596 220.083 267.07 220.931 267.6 221.744C267.787 221.957 269.232 222.411 270.773 222.843C273.258 223.538 275.889 223.518 278.363 222.784L282.032 221.685V210.485" fill="#B78876"/>
<path d="M268.843 217.6C267.146 217.557 265.482 217.119 263.984 216.32C263.984 216.256 265.051 216.661 266.4 217.008C267.749 217.355 268.848 217.52 268.843 217.6Z" fill="#AA6550"/>
<path d="M268.501 219.845C268.049 219.939 267.58 219.904 267.147 219.744C266.694 219.66 266.273 219.454 265.931 219.147C266.367 219.234 266.795 219.357 267.211 219.515C267.649 219.592 268.08 219.702 268.501 219.845Z" fill="#AA6550"/>
<path d="M270.261 209.419C270.051 209.715 269.801 209.983 269.52 210.213C268.881 210.823 268.176 211.36 267.419 211.813C266.655 212.259 265.825 212.58 264.96 212.763C264.612 212.856 264.253 212.895 263.893 212.88C265.085 212.606 266.236 212.177 267.317 211.605C268.058 211.159 268.763 210.654 269.424 210.096C269.682 209.846 269.963 209.619 270.261 209.419Z" fill="#AA6550"/>
<path d="M282.997 208.533L282.016 223.328H320.069C322.653 223.33 325.188 222.627 327.403 221.296C329.909 219.79 331.89 217.549 333.077 214.877C334.264 212.205 334.6 209.232 334.037 206.363C333.49 203.553 332.668 200.804 331.584 198.155L312.448 201.307L313.061 203.685L282.997 208.533Z" fill="#FFCC34"/>
<path d="M321.877 202.443C321.751 202.479 321.623 202.508 321.493 202.528L320.379 202.731L316.267 203.413L302.741 205.547L289.2 207.621L285.093 208.219L283.973 208.368C283.842 208.386 283.711 208.397 283.579 208.4C283.705 208.356 283.835 208.326 283.968 208.309L285.077 208.112L289.173 207.424L302.699 205.291L316.267 203.2L320.373 202.603L321.493 202.453C321.621 202.436 321.749 202.433 321.877 202.443Z" fill="#263238"/>
<path d="M302.4 223.339C302.331 223.339 302.629 222.272 302.667 220.528C302.675 220.054 302.655 219.581 302.608 219.109C302.562 218.572 302.484 218.037 302.373 217.509C302.109 216.292 301.694 215.113 301.136 214C300.565 212.892 299.867 211.853 299.056 210.907L298.523 210.283C298.341 210.08 298.144 209.904 297.963 209.723C297.605 209.355 297.227 209.061 296.896 208.779C295.536 207.712 294.571 207.179 294.603 207.131C294.839 207.225 295.065 207.341 295.28 207.477C295.545 207.616 295.802 207.771 296.048 207.941C296.331 208.144 296.683 208.341 297.019 208.629C297.403 208.917 297.77 209.227 298.117 209.557C298.304 209.739 298.512 209.909 298.699 210.091L299.28 210.72C300.115 211.673 300.832 212.724 301.413 213.851C301.978 214.987 302.394 216.192 302.651 217.435C302.76 217.978 302.831 218.529 302.864 219.083C302.898 219.562 302.898 220.043 302.864 220.523C302.854 220.921 302.818 221.318 302.757 221.712C302.728 222.009 302.676 222.303 302.603 222.592C302.557 222.846 302.489 223.096 302.4 223.339Z" fill="#FAFAFA"/>
<path d="M325.568 222.224C324.974 222.22 324.382 222.151 323.803 222.016C323.12 221.859 322.458 221.625 321.829 221.317C320.996 220.903 320.242 220.343 319.605 219.664C318.832 218.832 318.271 217.826 317.968 216.731C317.799 216.122 317.704 215.495 317.685 214.864C317.647 214.197 317.701 213.527 317.845 212.875C317.988 212.18 318.255 211.517 318.635 210.917C319.03 210.282 319.581 209.757 320.235 209.392C320.911 208.998 321.688 208.812 322.469 208.859C322.871 208.886 323.263 208.995 323.621 209.179C323.979 209.362 324.297 209.616 324.555 209.925C324.821 210.23 325.021 210.587 325.143 210.974C325.264 211.361 325.303 211.768 325.259 212.171C325.193 212.561 325.041 212.933 324.814 213.257C324.587 213.582 324.291 213.852 323.947 214.048C322.656 214.724 321.169 214.928 319.744 214.624C317.721 214.309 315.872 213.296 314.517 211.761C313.162 210.226 312.387 208.265 312.325 206.219C312.291 205.624 312.341 205.028 312.475 204.448C312.425 205.035 312.411 205.625 312.432 206.213C312.531 207.819 313.056 209.368 313.952 210.704C314.62 211.684 315.481 212.518 316.482 213.154C317.484 213.789 318.605 214.213 319.776 214.4C321.138 214.693 322.559 214.504 323.797 213.867C324.107 213.692 324.373 213.45 324.578 213.16C324.783 212.869 324.921 212.537 324.981 212.187C325.013 211.822 324.972 211.454 324.861 211.105C324.75 210.756 324.571 210.432 324.335 210.152C324.098 209.872 323.809 209.641 323.484 209.473C323.158 209.306 322.802 209.204 322.437 209.173C321.714 209.124 320.992 209.289 320.363 209.648C319.77 210.002 319.261 210.48 318.87 211.049C318.478 211.617 318.215 212.264 318.096 212.944C317.952 213.577 317.896 214.227 317.931 214.875C317.945 215.486 318.033 216.093 318.192 216.683C318.473 217.749 319.007 218.731 319.749 219.547C320.359 220.216 321.081 220.774 321.883 221.195C322.497 221.509 323.145 221.754 323.813 221.925C324.933 222.176 325.573 222.187 325.568 222.224Z" fill="#FAFAFA"/>
<path d="M174.619 61.0507H79.3173C73.7471 61.0507 68.4049 63.2634 64.4662 67.2022C60.5274 71.141 58.3146 76.4831 58.3146 82.0533V116.016H37.7546L58.3146 136.576V159.664C58.3146 165.234 60.5274 170.576 64.4662 174.515C68.4049 178.454 73.7471 180.667 79.3173 180.667H174.619C180.189 180.667 185.531 178.454 189.47 174.515C193.409 170.576 195.621 165.234 195.621 159.664V82.0533C195.621 76.4831 193.409 71.141 189.47 67.2022C185.531 63.2634 180.189 61.0507 174.619 61.0507Z" fill="#FFCC34"/>
<path d="M135.685 64.64C135.083 66.2027 136.117 67.904 137.285 69.1093C138.453 70.3147 139.851 71.456 140.219 73.088C140.523 74.4587 140.016 75.8827 140.139 77.28C140.261 78.6773 141.035 79.9947 141.472 81.36C142.267 83.8347 141.947 86.5387 141.237 89.04C140.726 91.1185 139.748 93.0536 138.379 94.6987C137.689 95.5134 136.834 96.1725 135.87 96.6322C134.907 97.0919 133.857 97.3418 132.789 97.3653C132.488 97.3843 132.185 97.341 131.901 97.2383C131.616 97.1355 131.356 96.9755 131.136 96.768C130.837 96.3365 130.672 95.8263 130.661 95.3013C129.44 84.5626 129.44 73.72 130.661 62.9813" fill="#263238"/>
<path d="M134.56 99.248C139.2 99.0453 143.488 103.488 143.12 108.117C147.819 109.264 151.12 114.432 150.219 119.179C149.915 120.747 149.216 122.24 149.12 123.829C149.013 125.568 149.653 127.259 149.968 128.965C150.572 132.076 150.249 135.295 149.04 138.224C148.309 139.989 146.944 141.813 145.035 141.867C144.388 141.839 143.757 141.653 143.199 141.325C142.641 140.997 142.173 140.536 141.835 139.984C141.17 138.866 140.731 137.628 140.544 136.341C139.717 132.171 139.477 127.888 138.325 123.797C137.173 119.707 134.933 115.675 131.237 113.6C129.195 112.448 126.741 111.904 125.115 110.213C124.296 109.291 123.751 108.158 123.539 106.944C123.327 105.729 123.457 104.479 123.915 103.333C124.394 102.198 125.107 101.177 126.008 100.336C126.908 99.4955 127.976 98.8539 129.141 98.4533" fill="#263238"/>
<path d="M102.443 68.464C102.389 66.48 104.219 64.9493 106.064 64.1973C107.909 63.4453 109.963 63.1947 111.605 62.064C113.067 61.0827 114.043 59.552 115.275 58.3307C116.796 56.7879 118.7 55.6778 120.793 55.1144C122.885 54.551 125.089 54.5545 127.179 55.1246C129.27 55.6946 131.171 56.8108 132.687 58.3583C134.203 59.9059 135.281 61.8292 135.808 63.9307C136.517 66.752 136.032 70.0907 133.808 71.968C131.227 74.144 127.408 73.6587 124.085 72.9813C120.763 72.304 117.029 71.6373 114.267 73.584C112.603 74.752 111.643 76.6613 110.624 78.4267C109.605 80.192 108.331 81.9893 106.405 82.656C104.48 83.3227 101.861 82.1707 101.787 80.1387" fill="#263238"/>
<path d="M110.261 68.8693C109.436 68.9586 108.673 69.3544 108.125 69.9785C107.577 70.6026 107.283 71.4096 107.301 72.24L109.28 117.04C109.365 122.331 117.099 125.301 122.763 125.168C128.485 125.035 128.667 122.229 128.741 117.195C128.859 108.789 128.848 105.632 128.853 105.68C128.859 105.728 136.08 104.464 137.557 95.0133C138.288 90.3253 138.037 82.6346 137.627 76.3466C137.259 70.688 133.493 63.7546 127.856 64.3626L110.261 68.8693Z" fill="#FFBE9D"/>
<path d="M136 82.288C136.003 82.6028 135.883 82.9064 135.666 83.1344C135.449 83.3624 135.152 83.4969 134.837 83.5093C134.685 83.5224 134.532 83.5051 134.386 83.4584C134.241 83.4117 134.106 83.3366 133.99 83.2373C133.874 83.138 133.779 83.0166 133.71 82.8802C133.641 82.7438 133.6 82.5951 133.589 82.4427C133.585 82.1275 133.704 81.8231 133.922 81.5948C134.139 81.3665 134.437 81.2324 134.752 81.2213C134.904 81.2082 135.058 81.2255 135.203 81.2722C135.348 81.3189 135.483 81.3941 135.599 81.4934C135.715 81.5926 135.811 81.714 135.88 81.8504C135.948 81.9868 135.989 82.1356 136 82.288Z" fill="#263238"/>
<path d="M135.968 80.368C135.819 80.528 134.901 79.8346 133.6 79.8346C132.299 79.8346 131.344 80.496 131.2 80.336C131.131 80.2666 131.285 79.9786 131.701 79.6746C132.263 79.2837 132.932 79.0768 133.616 79.0826C134.293 79.0787 134.954 79.2897 135.504 79.6853C135.904 80 136.043 80.2986 135.968 80.368Z" fill="#263238"/>
<path d="M123.493 82.288C123.496 82.6028 123.377 82.9064 123.16 83.1344C122.943 83.3624 122.645 83.4969 122.331 83.5093C122.178 83.5224 122.025 83.5051 121.88 83.4584C121.734 83.4117 121.599 83.3366 121.483 83.2373C121.367 83.138 121.272 83.0166 121.203 82.8802C121.134 82.7438 121.093 82.5951 121.083 82.4427C121.078 82.1275 121.198 81.8231 121.415 81.5948C121.632 81.3665 121.93 81.2324 122.245 81.2213C122.398 81.2082 122.551 81.2255 122.696 81.2722C122.842 81.3189 122.976 81.3941 123.093 81.4934C123.209 81.5926 123.304 81.714 123.373 81.8504C123.442 81.9868 123.483 82.1356 123.493 82.288Z" fill="#263238"/>
<path d="M123.2 80.64C123.051 80.8 122.133 80.1066 120.832 80.1066C119.531 80.1066 118.576 80.768 118.437 80.608C118.368 80.5386 118.517 80.2506 118.933 79.9466C119.495 79.5547 120.163 79.3461 120.848 79.3493C121.526 79.3469 122.187 79.5598 122.736 79.9573C123.109 80.2826 123.248 80.5706 123.2 80.64Z" fill="#263238"/>
<path d="M127.92 90.2827C127.92 90.208 128.72 90.0693 130.053 89.8987C130.384 89.8613 130.699 89.792 130.757 89.568C130.782 89.2242 130.704 88.8809 130.533 88.5813L129.541 86.0533C128.171 82.4533 127.173 79.4933 127.323 79.44C127.472 79.3867 128.699 82.2613 130.069 85.84L131.019 88.384C131.225 88.7846 131.288 89.2442 131.195 89.6853C131.148 89.8016 131.076 89.906 130.983 89.9909C130.891 90.0758 130.781 90.139 130.661 90.176C130.488 90.2239 130.308 90.249 130.128 90.2507C128.741 90.3467 127.925 90.3573 127.92 90.2827Z" fill="#263238"/>
<path d="M128.853 105.685C124.412 105.762 120.036 104.604 116.213 102.341C116.213 102.341 119.291 108.816 128.731 107.909L128.853 105.685Z" fill="#EB996E"/>
<path d="M127.376 93.4187C127.125 93.1031 126.797 92.8578 126.423 92.7064C126.049 92.555 125.643 92.5028 125.243 92.5547C124.955 92.5804 124.676 92.6641 124.423 92.8007C124.169 92.9373 123.945 93.1239 123.765 93.3493C123.592 93.5669 123.49 93.8325 123.472 94.1102C123.455 94.3878 123.524 94.6641 123.669 94.9013C123.878 95.1356 124.152 95.3015 124.457 95.3776C124.761 95.4537 125.082 95.4364 125.376 95.328C125.99 95.1097 126.554 94.7706 127.035 94.3307C127.182 94.2275 127.309 94.0972 127.408 93.9467C127.457 93.8751 127.483 93.7905 127.483 93.704C127.483 93.6175 127.457 93.5329 127.408 93.4613" fill="#EB996E"/>
<path d="M124.091 91.2C124.304 91.2 124.309 92.6026 125.52 93.6C126.731 94.5973 128.235 94.4426 128.245 94.6666C128.245 94.7573 127.909 94.944 127.275 94.96C126.447 94.975 125.64 94.6974 124.997 94.176C124.382 93.6725 123.986 92.9497 123.893 92.16C123.835 91.536 123.995 91.2 124.091 91.2Z" fill="#263238"/>
<path d="M123.733 78.3573C123.605 78.7146 122.304 78.5493 120.779 78.736C119.253 78.9227 118.016 79.344 117.813 79.024C117.723 78.8746 117.936 78.5386 118.432 78.1973C119.094 77.7717 119.845 77.5024 120.626 77.41C121.408 77.3176 122.201 77.4045 122.944 77.664C123.525 77.9146 123.808 78.192 123.733 78.3573Z" fill="#263238"/>
<path d="M135.467 76.6027C135.237 76.896 134.341 76.6027 133.259 76.6027C132.176 76.6027 131.269 76.8053 131.061 76.496C130.965 76.3467 131.109 76.0533 131.509 75.7707C132.044 75.4358 132.667 75.2667 133.298 75.2848C133.929 75.3028 134.541 75.5071 135.056 75.872C135.467 76.1547 135.579 76.4587 135.467 76.6027Z" fill="#263238"/>
<path d="M103.675 99.8987C104.975 100.162 106.319 100.112 107.597 99.7526C108.874 99.3937 110.047 98.7363 111.021 97.8345C111.994 96.9327 112.739 95.8125 113.194 94.5662C113.648 93.3199 113.801 91.9833 113.637 90.6667C113.344 88.3467 112.096 85.9947 112.901 83.7973C113.968 80.9013 118.027 80.0107 119.104 77.1147C119.728 75.4347 119.168 73.4667 119.877 71.8187C120.544 70.272 122.176 69.3813 123.765 68.8053C125.355 68.2293 127.051 67.8347 128.384 66.8C129.717 65.7653 130.544 63.8133 129.685 62.3573C122.641 63.2025 115.723 64.8836 109.077 67.3653C107.536 67.9413 105.92 68.6347 105.008 70C104.048 71.4507 104.096 73.3173 104.176 75.056C104.571 83.5253 103.28 91.456 103.675 99.9253" fill="#263238"/>
<path d="M101.429 97.2426C101.376 97.2346 101.323 97.2184 101.275 97.1947C101.122 97.1416 100.977 97.0699 100.843 96.9813C100.323 96.6452 99.9148 96.1627 99.6693 95.5947C99.2657 94.6968 99.1574 93.694 99.36 92.7306C99.6811 91.4791 100.265 90.3102 101.072 89.3013C101.899 88.1493 102.949 86.9813 103.664 85.4933C104.045 84.7372 104.258 83.9075 104.288 83.0613C104.257 82.1631 104.077 81.2763 103.755 80.4373C103.395 79.5303 103.205 78.5649 103.195 77.5893C103.246 76.5454 103.553 75.5301 104.087 74.632C104.622 73.7339 105.368 72.9804 106.261 72.4373C107.219 71.9147 108.281 71.6123 109.371 71.552C110.425 71.5003 111.469 71.3212 112.48 71.0187C113.429 70.6592 114.21 69.957 114.667 69.0507C115.102 68.159 115.449 67.2264 115.701 66.2667C115.971 65.3458 116.328 64.4529 116.768 63.6C117.57 61.983 118.791 60.6108 120.304 59.6267C121.64 58.7868 123.203 58.3806 124.779 58.464C126.084 58.5315 127.327 59.0412 128.304 59.9093C129.032 60.564 129.575 61.3992 129.877 62.3307C130.074 62.9137 130.148 63.5309 130.096 64.144C130.085 64.3572 130.049 64.5684 129.989 64.7733C129.989 64.7733 130.027 64.5547 130.043 64.1387C130.068 63.535 129.978 62.9321 129.776 62.3627C129.409 61.3146 128.735 60.4011 127.842 59.7411C126.949 59.081 125.878 58.7048 124.768 58.6613C123.236 58.5938 121.72 58.9998 120.427 59.824C118.954 60.7915 117.768 62.1359 116.992 63.7173C116.561 64.5704 116.215 65.4636 115.957 66.384C115.697 67.3611 115.34 68.3098 114.891 69.216C114.643 69.6849 114.321 70.1101 113.936 70.4747C113.538 70.8431 113.07 71.1279 112.56 71.312C111.521 71.6323 110.446 71.8222 109.36 71.8773C108.31 71.9326 107.286 72.2224 106.363 72.7253C105.509 73.2432 104.795 73.962 104.283 74.8191C103.771 75.6762 103.476 76.6455 103.424 77.6427C103.433 78.5882 103.614 79.5242 103.957 80.4053C104.297 81.27 104.486 82.1863 104.517 83.1146C104.481 83.9951 104.256 84.8574 103.856 85.6427C103.109 87.168 102.048 88.3093 101.216 89.4667C100.413 90.447 99.8276 91.5869 99.4987 92.8106C99.2862 93.7418 99.3739 94.7164 99.7493 95.5947C99.98 96.1542 100.365 96.6369 100.859 96.9867C101.216 97.168 101.435 97.2213 101.429 97.2426Z" fill="#455A64"/>
<path d="M128.837 56.1173C128.967 56.1269 129.092 56.1651 129.205 56.2293C129.525 56.3651 129.825 56.5446 130.096 56.7626C131.025 57.4836 131.641 58.535 131.815 59.6982C131.988 60.8614 131.707 62.0468 131.029 63.008C130.832 63.2944 130.599 63.5543 130.336 63.7813C130.144 63.9413 130.027 64.0106 130.016 63.9946C130.317 63.6539 130.6 63.2978 130.864 62.928C131.465 61.9908 131.706 60.8675 131.542 59.7662C131.378 58.665 130.821 57.6604 129.973 56.9386C129.611 56.6432 129.231 56.369 128.837 56.1173Z" fill="#455A64"/>
<path d="M149.733 120.848C149.846 120.52 149.937 120.185 150.005 119.845C150.13 118.914 149.968 117.967 149.541 117.131C148.883 115.903 147.837 114.927 146.565 114.357C145.821 114.005 145.044 113.728 144.245 113.531C143.413 113.317 142.533 113.141 141.653 112.853C140.768 112.612 139.951 112.166 139.269 111.552C138.659 110.94 138.264 110.147 138.144 109.291C138 108.496 137.952 107.744 137.776 107.072C137.618 106.45 137.325 105.871 136.917 105.376C136.321 104.651 135.529 104.112 134.635 103.824C134 103.632 133.621 103.632 133.621 103.6C133.712 103.591 133.803 103.591 133.893 103.6C134.154 103.618 134.413 103.659 134.667 103.723C135.602 103.981 136.438 104.514 137.067 105.253C137.506 105.765 137.825 106.368 138 107.019C138.192 107.717 138.251 108.48 138.4 109.248C138.51 110.058 138.885 110.808 139.467 111.381C140.121 111.962 140.9 112.384 141.744 112.613C142.603 112.891 143.483 113.072 144.32 113.291C145.13 113.489 145.916 113.771 146.667 114.133C147.98 114.735 149.052 115.763 149.707 117.051C150.134 117.926 150.272 118.913 150.101 119.872C150.051 120.128 149.97 120.376 149.861 120.613C149.827 120.696 149.784 120.774 149.733 120.848Z" fill="#455A64"/>
<path d="M108.709 104.144C103.909 102.864 99.8027 98.1867 98.128 93.5307C96.4533 88.8747 96.4533 83.792 96.8853 78.864C97.1947 75.296 97.824 71.52 100.192 68.832C103.765 64.7787 107.659 62.7093 113.035 62.88" fill="#263238"/>
<path d="M136.603 114.544L132.149 113.424C132.635 113.09 132.989 112.598 133.15 112.031C133.312 111.465 133.271 110.86 133.035 110.32C132.753 109.628 132.286 109.027 131.686 108.582C131.086 108.138 130.376 107.866 129.632 107.797L109.333 105.504C108.978 105.457 108.618 105.53 108.31 105.712C108.001 105.893 107.763 106.173 107.632 106.507C106.732 108.796 106.702 110.681 107.541 112.16H107.445L103.531 112.939L96.896 171.467L140.352 169.435L136.603 114.544Z" fill="#F5F5F5"/>
<path d="M130.213 113.648C129.947 113.726 129.674 113.779 129.397 113.808C128.864 113.893 128.101 113.984 127.152 114.08C122.184 114.542 117.175 114.292 112.277 113.339C111.339 113.152 110.587 112.981 110.069 112.843C109.798 112.79 109.531 112.711 109.275 112.608C109.55 112.628 109.823 112.673 110.091 112.741C110.624 112.843 111.376 112.987 112.315 113.147C117.207 113.989 122.184 114.236 127.136 113.883C128.085 113.819 128.853 113.749 129.387 113.696C129.661 113.658 129.937 113.642 130.213 113.648Z" fill="#263238"/>
<path d="M110.571 122.949C110.998 122.062 111.507 121.215 112.091 120.421C112.6 119.577 113.188 118.783 113.845 118.048C113.417 118.937 112.906 119.783 112.32 120.576C111.813 121.421 111.228 122.215 110.571 122.949Z" fill="#E0E0E0"/>
<path d="M124.576 123.941C123.22 122.549 122.001 121.031 120.933 119.408C121.644 120.073 122.29 120.803 122.864 121.589C123.509 122.316 124.083 123.104 124.576 123.941Z" fill="#E0E0E0"/>
<path d="M118.069 131.381C117.763 130.433 117.543 129.458 117.413 128.469C117.191 127.497 117.065 126.506 117.035 125.509C117.342 126.458 117.562 127.433 117.691 128.421C117.907 129.394 118.033 130.385 118.069 131.381Z" fill="#E0E0E0"/>
<path d="M128.763 131.84C128.01 132.776 127.186 133.654 126.299 134.464C125.475 135.341 124.583 136.153 123.632 136.891C124.385 135.954 125.209 135.077 126.096 134.267C126.923 133.393 127.815 132.582 128.763 131.84Z" fill="#E0E0E0"/>
<path d="M114.421 141.813C112.456 140.639 110.855 138.942 109.797 136.912C109.872 136.864 110.688 138.144 111.973 139.493C113.259 140.843 114.475 141.744 114.421 141.813Z" fill="#E0E0E0"/>
<path d="M119.029 149.515C119.029 149.595 117.813 149.984 116.405 150.736C114.997 151.488 113.968 152.277 113.915 152.208C114.586 151.489 115.388 150.905 116.277 150.485C117.123 149.987 118.058 149.657 119.029 149.515Z" fill="#E0E0E0"/>
<path d="M126.523 150.011C126.205 149.741 125.92 149.435 125.675 149.099C125.184 148.512 124.528 147.675 123.845 146.72C123.163 145.765 122.587 144.875 122.187 144.213C121.949 143.871 121.752 143.503 121.6 143.115C121.884 143.419 122.136 143.751 122.352 144.107L124.075 146.56L125.829 148.981C126.096 149.299 126.329 149.644 126.523 150.011Z" fill="#E0E0E0"/>
<path d="M127.275 156.581C126.238 156.945 125.165 157.195 124.075 157.328C122.996 157.553 121.896 157.662 120.795 157.653C121.86 157.386 122.941 157.186 124.032 157.056C125.103 156.834 126.185 156.675 127.275 156.581Z" fill="#E0E0E0"/>
<path d="M115.141 112.821C115.104 112.821 115.36 112.501 115.579 111.936C115.849 111.196 115.93 110.4 115.813 109.621C115.681 108.836 115.45 108.071 115.125 107.344C114.968 107.046 114.846 106.731 114.763 106.405C114.985 106.661 115.165 106.951 115.296 107.264C115.684 107.987 115.949 108.769 116.08 109.579C116.209 110.405 116.096 111.252 115.755 112.016C115.635 112.34 115.422 112.62 115.141 112.821Z" fill="#E0E0E0"/>
<path d="M123.259 108.437C123.639 108.961 123.911 109.555 124.058 110.185C124.206 110.815 124.226 111.469 124.117 112.107C124.037 112.107 124.027 111.259 123.787 110.251C123.547 109.243 123.2 108.48 123.259 108.437Z" fill="#E0E0E0"/>
<path d="M159.872 150.139L180.085 114.635L182.523 108.475C182.523 108.475 188.827 94.928 189.264 93.5413C189.771 91.9413 190.661 91.8133 191.237 92.0373C192.133 92.3947 192.421 93.728 192.027 95.1093C191.888 95.584 189.44 103.029 189.44 103.029C190.098 102.462 190.797 101.943 191.531 101.477C193.083 100.411 195.925 100.464 198.56 101.403C201.195 102.341 201.845 102.837 201.531 103.872C201.461 104.066 201.349 104.242 201.202 104.387C201.055 104.532 200.878 104.642 200.683 104.709C200.062 104.968 199.367 104.984 198.736 104.752C194.501 103.312 192.624 105.221 192.624 105.221L192.309 106.027C192.309 106.027 195.509 105.008 197.301 106.448C197.569 106.659 197.793 106.92 197.963 107.216C198.543 107.405 199.063 107.743 199.472 108.195C199.882 108.648 200.166 109.199 200.297 109.795C200.428 110.391 200.401 111.01 200.219 111.593C200.037 112.175 199.706 112.7 199.259 113.115C199.064 113.336 198.807 113.494 198.522 113.566C198.236 113.638 197.935 113.622 197.659 113.52C197.4 113.344 197.192 113.103 197.056 112.821C196.969 112.68 196.871 112.547 196.763 112.421L195.557 114.555C195.557 114.555 192.587 119.195 191.52 121.365L177.6 158.448C177.142 159.669 176.446 160.786 175.552 161.735C174.658 162.683 173.583 163.444 172.392 163.973C171.2 164.502 169.915 164.788 168.611 164.815C167.308 164.841 166.012 164.608 164.8 164.128C163.492 163.612 162.31 162.82 161.334 161.807C160.359 160.795 159.612 159.584 159.145 158.258C158.677 156.931 158.5 155.52 158.626 154.119C158.751 152.718 159.176 151.361 159.872 150.139Z" fill="#FFBE9D"/>
<path d="M181.477 114.512C182.192 114.981 183.179 114.661 183.819 114.107C184.459 113.552 184.885 112.789 185.504 112.187C187.301 110.389 190.304 110.219 192.027 108.336C192.267 108.075 192.48 107.675 192.272 107.387C192.064 107.099 191.68 107.152 191.36 107.216L183.088 108.853" fill="#FFBE9D"/>
<path d="M183.088 108.853C183.367 108.727 183.661 108.637 183.963 108.587C184.533 108.443 185.365 108.256 186.389 108.053L189.995 107.291L191.061 107.072C191.472 106.922 191.925 106.937 192.325 107.115C192.439 107.199 192.526 107.316 192.573 107.45C192.621 107.584 192.627 107.729 192.592 107.867C192.537 108.093 192.427 108.301 192.272 108.475C191.993 108.783 191.68 109.059 191.339 109.296C189.963 110.251 188.453 110.64 187.248 111.275C186.673 111.546 186.144 111.906 185.68 112.341C185.253 112.752 184.917 113.221 184.565 113.621C184.312 113.974 183.984 114.267 183.606 114.48C183.227 114.693 182.806 114.82 182.373 114.853C181.739 114.853 181.477 114.539 181.499 114.533C181.776 114.629 182.069 114.674 182.363 114.667C182.756 114.602 183.132 114.456 183.466 114.238C183.8 114.02 184.085 113.736 184.304 113.403C184.646 112.937 185.01 112.488 185.397 112.059C185.881 111.579 186.437 111.18 187.045 110.875C188.288 110.203 189.792 109.808 191.061 108.901C191.367 108.684 191.65 108.436 191.904 108.16C192.139 107.899 192.219 107.584 192.053 107.493C191.888 107.403 191.52 107.445 191.152 107.52L190.085 107.717L186.459 108.384C185.424 108.565 184.587 108.704 184.005 108.789C183.705 108.859 183.395 108.88 183.088 108.853Z" fill="#EB996E"/>
<path d="M192.197 106.037C192.409 105.542 192.734 105.104 193.147 104.757C193.608 104.411 194.17 104.224 194.747 104.224C195.472 104.228 196.192 104.347 196.88 104.576C197.583 104.813 198.309 104.978 199.045 105.067C199.664 105.138 200.29 105.042 200.859 104.789C201.054 104.699 201.226 104.564 201.36 104.396C201.495 104.227 201.588 104.03 201.632 103.819C201.672 103.67 201.672 103.514 201.632 103.365C201.6 103.365 201.6 103.525 201.52 103.792C201.461 103.972 201.364 104.136 201.235 104.275C201.106 104.413 200.949 104.521 200.773 104.592C200.23 104.794 199.646 104.86 199.072 104.784C198.357 104.671 197.653 104.493 196.971 104.251C196.258 104.016 195.512 103.901 194.763 103.909C194.133 103.924 193.526 104.149 193.04 104.549C192.717 104.818 192.469 105.165 192.32 105.557C192.187 105.872 192.176 106.032 192.197 106.037Z" fill="#EB996E"/>
<path d="M192.171 94.576C191.961 95.0531 191.794 95.5474 191.669 96.0533C191.355 97.0773 190.981 98.2933 190.565 99.6373C190.149 100.981 189.739 102.187 189.408 103.205C189.215 103.688 189.067 104.188 188.965 104.699C189.23 104.249 189.448 103.774 189.616 103.28C189.968 102.384 190.416 101.147 190.864 99.7333C191.312 98.32 191.659 97.0667 191.883 96.112C192.032 95.6115 192.129 95.0967 192.171 94.576Z" fill="#EB996E"/>
<path d="M193.339 108.267C193.501 108.29 193.667 108.29 193.829 108.267C194.034 108.232 194.244 108.241 194.444 108.295C194.645 108.348 194.832 108.444 194.992 108.576C195.085 108.674 195.151 108.794 195.183 108.925C195.216 109.056 195.214 109.193 195.179 109.323C195.092 109.65 194.965 109.966 194.8 110.261C194.586 110.632 194.516 111.069 194.603 111.488C194.675 111.71 194.799 111.912 194.964 112.078C195.129 112.244 195.33 112.369 195.552 112.443C195.771 112.512 196.001 112.536 196.23 112.513C196.458 112.49 196.679 112.421 196.88 112.309C197.253 112.119 197.56 111.819 197.76 111.451C198.049 110.843 198.246 110.196 198.347 109.531C198.424 109.084 198.424 108.628 198.347 108.181C198.33 108.014 198.265 107.854 198.16 107.723C198.133 107.723 198.203 107.893 198.229 108.197C198.252 108.632 198.214 109.069 198.117 109.493C197.991 110.124 197.783 110.735 197.499 111.312C197.325 111.637 197.049 111.895 196.713 112.046C196.377 112.198 196.001 112.234 195.643 112.149C195.467 112.093 195.307 111.995 195.175 111.866C195.044 111.736 194.945 111.578 194.885 111.403C194.816 111.054 194.874 110.692 195.051 110.384C195.217 110.061 195.342 109.719 195.424 109.365C195.46 109.196 195.452 109.02 195.4 108.855C195.349 108.69 195.256 108.541 195.131 108.421C194.945 108.275 194.728 108.173 194.497 108.125C194.265 108.077 194.026 108.083 193.797 108.144C193.639 108.16 193.484 108.201 193.339 108.267Z" fill="#EB996E"/>
<path d="M196.827 112C196.827 112 196.725 112.139 196.736 112.437C196.751 112.647 196.815 112.85 196.922 113.031C197.03 113.211 197.178 113.364 197.355 113.477C197.628 113.635 197.938 113.717 198.253 113.717C198.569 113.717 198.879 113.635 199.152 113.477C199.81 113.098 200.295 112.479 200.507 111.749C200.739 111.035 200.739 110.266 200.507 109.552C200.317 108.975 199.977 108.459 199.52 108.059C199.219 107.789 198.87 107.579 198.491 107.44C198.356 107.375 198.208 107.342 198.059 107.344C198.534 107.574 198.975 107.868 199.371 108.219C199.818 108.655 200.134 109.208 200.283 109.815C200.432 110.423 200.408 111.059 200.213 111.653C200.023 112.309 199.595 112.87 199.013 113.227C198.781 113.363 198.518 113.438 198.248 113.446C197.979 113.453 197.712 113.393 197.472 113.269C197.313 113.177 197.176 113.051 197.069 112.901C196.962 112.751 196.889 112.58 196.853 112.4C196.8 112.165 196.853 112 196.827 112Z" fill="#EB996E"/>
<path d="M190.096 115.349C189.885 115.207 189.636 115.13 189.381 115.131C188.731 115.067 188.077 115.223 187.525 115.573L187.755 115.728C187.827 115.376 187.877 115.02 187.904 114.661C188.091 112.603 187.435 111.013 187.371 111.056C187.576 112.237 187.653 113.437 187.6 114.635C187.574 114.976 187.53 115.316 187.467 115.653L187.403 116L187.696 115.803C188.196 115.476 188.779 115.302 189.376 115.301C189.819 115.312 190.085 115.387 190.096 115.349Z" fill="#EB996E"/>
<path d="M194.304 102.699C194.219 102.699 194.336 103.339 194.901 103.829C195.467 104.32 196.101 104.363 196.101 104.272C196.101 104.181 195.595 104.027 195.109 103.595C194.624 103.163 194.389 102.667 194.304 102.699Z" fill="#EB996E"/>
<path d="M131.2 179.6L152.347 179.808L148.8 164.464L149.989 167.36C151.086 170.034 152.952 172.321 155.352 173.931C157.752 175.541 160.577 176.4 163.467 176.4C170.155 176.4 174.779 171.424 177.605 165.365C184.219 151.2 190.592 128.389 190.592 128.389L177.701 117.061C168.368 134.715 159.6 150.043 159.6 150.043C159.6 150.043 157.067 142.347 155.109 135.477C153.152 128.608 153.168 125.003 150.165 121.579C145.541 116.309 138.965 115.003 132.843 113.424L132.613 141.925L131.2 179.6Z" fill="#FFCC34"/>
<path d="M107.003 158.4L145.509 165.867L147.381 180.661H88.3413C86.7252 180.681 85.1226 180.364 83.636 179.73C82.1494 179.095 80.8113 178.158 79.7072 176.978C78.6031 175.798 77.7573 174.4 77.2237 172.874C76.69 171.349 76.4803 169.729 76.608 168.117C77.456 157.333 78.3786 144.053 79.0826 138.437C79.616 134.059 81.376 129.531 83.44 125.637C86.4213 120.027 96.3573 112.837 105.067 112.464L106.715 149.141" fill="#FFCC34"/>
<g opacity="0.4">
<path d="M131.2 179.6L152.347 179.808L148.8 164.464L149.989 167.36C151.086 170.034 152.952 172.321 155.352 173.931C157.752 175.541 160.577 176.4 163.467 176.4C170.155 176.4 174.779 171.424 177.605 165.365C184.219 151.2 190.592 128.389 190.592 128.389L177.701 117.061C168.368 134.715 159.6 150.043 159.6 150.043C159.6 150.043 157.067 142.347 155.109 135.477C153.152 128.608 153.168 125.003 150.165 121.579C145.541 116.309 138.965 115.003 132.843 113.424L132.613 141.925L131.2 179.6Z" fill="black"/>
<path d="M107.003 158.4L141.733 164.768C142.441 164.899 143.094 165.237 143.609 165.739C144.125 166.241 144.48 166.885 144.629 167.589L147.381 180.693H88.3413C86.7252 180.713 85.1226 180.396 83.636 179.762C82.1494 179.127 80.8113 178.19 79.7072 177.01C78.6031 175.83 77.7573 174.432 77.2237 172.906C76.69 171.381 76.4803 169.761 76.608 168.149C77.456 157.365 78.3786 144.085 79.0826 138.469C79.616 134.091 81.376 129.563 83.44 125.669C86.4213 120.059 96.3573 112.869 105.067 112.496L106.715 149.173" fill="black"/>
</g>
<path d="M99.6693 157.301C99.6555 157.184 99.6555 157.066 99.6693 156.949C99.6693 156.688 99.6693 156.352 99.6693 155.941C99.6693 155.029 99.6693 153.771 99.6693 152.208C99.6693 149.077 99.6106 144.741 99.3706 139.979C99.248 137.589 99.0933 135.317 98.9279 133.259C98.8506 131.431 98.5915 129.616 98.1546 127.84C97.8496 126.654 97.2684 125.558 96.4586 124.64C96.145 124.32 95.8138 124.017 95.4666 123.733C95.8738 123.943 96.2433 124.219 96.5599 124.549C97.4234 125.461 98.0449 126.574 98.3679 127.787C98.8337 129.577 99.1126 131.411 99.1999 133.259C99.3813 135.323 99.5413 137.595 99.6639 139.984C99.9093 144.784 99.9359 149.099 99.8826 152.251C99.8506 153.819 99.808 155.088 99.7706 155.984L99.712 156.992C99.7099 157.096 99.6956 157.2 99.6693 157.301Z" fill="#263238"/>
<path d="M144.763 166.933C144.356 166.485 143.883 166.101 143.36 165.797C142.738 165.458 142.077 165.195 141.392 165.013C140.597 164.784 139.664 164.608 138.635 164.4C134.517 163.557 128.837 162.389 122.544 161.2C116.251 160.011 110.523 159.067 106.379 158.405L101.467 157.621L100.133 157.397C99.9763 157.378 99.8211 157.346 99.6693 157.301C99.8267 157.302 99.9837 157.316 100.139 157.344L101.483 157.515C102.645 157.669 104.331 157.904 106.405 158.213C110.56 158.832 116.293 159.749 122.592 160.928C128.891 162.107 134.571 163.301 138.672 164.187C139.701 164.411 140.635 164.603 141.435 164.848C142.127 165.044 142.792 165.327 143.413 165.691C143.812 165.916 144.173 166.204 144.48 166.544C144.562 166.628 144.637 166.719 144.704 166.816C144.741 166.88 144.768 166.933 144.763 166.933Z" fill="#263238"/>
<path d="M99.7866 157.301C99.7866 157.349 99.0773 157.515 97.9787 157.963C97.3372 158.228 96.7137 158.534 96.112 158.88C95.3844 159.314 94.6908 159.802 94.0373 160.341C93.4018 160.892 92.8098 161.491 92.2666 162.133C91.8197 162.663 91.4099 163.222 91.04 163.808C90.4106 164.816 90.1226 165.499 90.0746 165.477C90.1078 165.305 90.1634 165.139 90.24 164.981C90.4217 164.543 90.6319 164.117 90.8693 163.707C91.2254 163.098 91.6265 162.517 92.0693 161.968C93.1641 160.625 94.5033 159.501 96.016 158.656C96.6287 158.31 97.2692 158.016 97.9306 157.776C98.3755 157.61 98.8318 157.476 99.296 157.376C99.4552 157.328 99.6204 157.303 99.7866 157.301Z" fill="#263238"/>
<path d="M149.509 166.517C149.473 166.397 149.446 166.274 149.429 166.149C149.387 165.883 149.328 165.531 149.259 165.083C149.109 164.16 148.912 162.827 148.688 161.173C148.24 157.872 147.696 153.296 147.237 148.229C146.779 143.163 146.507 138.565 146.357 135.232C146.283 133.568 146.24 132.219 146.219 131.285C146.219 130.841 146.219 130.485 146.219 130.219C146.207 130.094 146.207 129.97 146.219 129.845C146.248 129.968 146.262 130.093 146.261 130.219L146.331 131.285C146.389 132.245 146.464 133.584 146.56 135.221C146.757 138.549 147.067 143.141 147.52 148.203C147.973 153.264 148.491 157.84 148.891 161.147C149.088 162.779 149.253 164.107 149.371 165.067C149.419 165.509 149.461 165.861 149.493 166.133C149.515 166.26 149.52 166.389 149.509 166.517Z" fill="#263238"/>
<path d="M162.277 160.784C162.277 160.784 162.155 160.667 161.968 160.432C161.709 160.092 161.473 159.735 161.259 159.365C159.827 156.922 159.168 154.104 159.365 151.28C159.392 150.855 159.449 150.433 159.536 150.016C159.555 149.86 159.594 149.708 159.653 149.563C159.701 149.563 159.6 150.224 159.563 151.291C159.473 154.075 160.117 156.833 161.429 159.291C161.931 160.213 162.32 160.752 162.277 160.784Z" fill="#263238"/>
<path d="M99.5146 137.483C99.5146 137.483 99.4453 137.509 99.3173 137.525C99.1248 137.556 98.9307 137.576 98.736 137.584C98.0206 137.614 97.3042 137.557 96.6026 137.413C95.5607 137.204 94.5435 136.886 93.568 136.464C92.464 136.005 91.2906 135.397 90.064 134.805C88.9157 134.229 87.7267 133.737 86.5066 133.333C85.5166 133.001 84.4875 132.798 83.4453 132.731C82.4799 132.699 81.5151 132.809 80.5813 133.056C80.6386 133.018 80.7016 132.989 80.768 132.971C80.9408 132.895 81.1191 132.833 81.3013 132.784C81.9965 132.598 82.7153 132.515 83.4346 132.539C84.4995 132.572 85.5547 132.751 86.5706 133.072C87.8065 133.47 89.0085 133.965 90.1653 134.555C91.3973 135.163 92.56 135.76 93.648 136.224C94.6058 136.65 95.6024 136.982 96.624 137.216C97.5749 137.41 98.5442 137.5 99.5146 137.483Z" fill="#FAFAFA"/>
<path d="M106.133 136.187C105.109 136.499 104.06 136.723 102.997 136.859C101.945 137.088 100.874 137.222 99.7973 137.259C100.822 136.947 101.871 136.722 102.933 136.587C103.986 136.357 105.057 136.223 106.133 136.187Z" fill="#FAFAFA"/>
<path d="M99.2746 147.632C99.0292 147.77 98.77 147.883 98.5013 147.968C97.9946 148.165 97.2533 148.432 96.3306 148.731C93.9179 149.505 91.4553 150.114 88.9599 150.555C87.4986 150.811 86.0959 150.997 84.8159 151.125C83.6807 151.272 82.5334 151.302 81.3919 151.216C80.6177 151.153 79.8635 150.938 79.1733 150.581C78.9856 150.484 78.8071 150.37 78.6399 150.24C78.5784 150.198 78.5228 150.148 78.4746 150.091C78.4746 150.091 78.7306 150.256 79.2159 150.485C79.9072 150.797 80.6505 150.978 81.4079 151.019C82.5355 151.077 83.666 151.027 84.7839 150.869C86.0586 150.725 87.4506 150.533 88.9066 150.277C91.3903 149.837 93.8474 149.258 96.2666 148.544C97.1946 148.267 97.9413 148.011 98.4586 147.867C98.7244 147.768 98.9972 147.69 99.2746 147.632Z" fill="#FAFAFA"/>
<path d="M105.957 150.443C104.996 150.595 104.023 150.658 103.051 150.629C102.081 150.69 101.108 150.66 100.144 150.539C101.105 150.386 102.078 150.324 103.051 150.352C104.02 150.291 104.993 150.321 105.957 150.443Z" fill="#FAFAFA"/>
<path d="M78.512 174.741C78.5181 174.643 78.5379 174.546 78.5706 174.453C78.624 174.24 78.6986 173.979 78.784 173.653L78.944 173.077C79.0133 172.869 79.104 172.651 79.1893 172.411C79.3811 171.866 79.6018 171.332 79.8506 170.811L80.2826 169.899C80.4373 169.579 80.6346 169.269 80.816 168.939C81.2182 168.239 81.6561 167.561 82.128 166.907C84.3068 163.894 87.1477 161.422 90.432 159.68C91.1462 159.303 91.8797 158.962 92.6293 158.661C92.9866 158.528 93.3173 158.373 93.6533 158.267L94.6186 157.963C95.1717 157.786 95.7344 157.642 96.304 157.531C96.5546 157.477 96.784 157.419 96.9973 157.381L97.5946 157.301L98.416 157.2C98.5114 157.186 98.6085 157.186 98.704 157.2C98.613 157.235 98.518 157.258 98.4213 157.269L97.6106 157.424L97.024 157.525L96.336 157.696C95.8453 157.829 95.2693 157.941 94.6773 158.165L93.728 158.485C93.3973 158.597 93.0666 158.752 92.72 158.891C91.9813 159.197 91.2586 159.541 90.5546 159.92C88.9508 160.807 87.4409 161.854 86.048 163.045C84.6721 164.259 83.4214 165.608 82.3146 167.072C81.8346 167.765 81.36 168.416 80.9973 169.072C80.8106 169.397 80.6133 169.701 80.464 170.016L80.016 170.912C79.712 171.477 79.5253 172.021 79.3226 172.512C79.232 172.747 79.136 172.965 79.0613 173.168L78.8746 173.733L78.6133 174.517C78.5878 174.595 78.5538 174.671 78.512 174.741Z" fill="#FAFAFA"/>
<path d="M105.259 158.357C104.367 159.132 103.625 160.065 103.072 161.109C102.49 162.251 102.077 163.471 101.845 164.731C101.569 166.281 101.391 167.846 101.312 169.419C101.246 171.003 101.067 172.58 100.779 174.139C100.517 175.416 100.066 176.648 99.44 177.792C99.0218 178.559 98.4813 179.252 97.84 179.845C97.6653 180.007 97.478 180.155 97.28 180.288C97.1466 180.379 97.072 180.427 97.0667 180.416C97.9749 179.658 98.7313 178.735 99.296 177.696C99.8869 176.561 100.311 175.347 100.555 174.091C100.839 172.542 101.017 170.976 101.088 169.403C101.157 167.817 101.335 166.238 101.621 164.677C101.87 163.4 102.308 162.166 102.923 161.019C103.342 160.245 103.882 159.542 104.523 158.939C104.69 158.778 104.869 158.628 105.056 158.491C105.118 158.438 105.186 158.393 105.259 158.357Z" fill="#FAFAFA"/>
<path d="M114.363 180.752C114.288 180.752 114.363 176.155 114.56 170.491C114.757 164.827 114.96 160.235 115.035 160.235C115.109 160.235 115.035 164.832 114.837 170.501C114.64 176.171 114.437 180.757 114.363 180.752Z" fill="#FAFAFA"/>
<path d="M128.837 179.963C128.737 179.749 128.658 179.526 128.603 179.296C128.516 179.033 128.443 178.766 128.384 178.496C128.315 178.181 128.219 177.824 128.16 177.429C127.994 176.488 127.9 175.536 127.877 174.581C127.825 172.234 128.186 169.896 128.944 167.675C129.253 166.77 129.629 165.889 130.069 165.04C130.245 164.672 130.443 164.363 130.603 164.085C130.738 163.844 130.888 163.611 131.051 163.387C131.17 163.183 131.311 162.993 131.472 162.821C131.52 162.848 130.939 163.675 130.24 165.131C129.825 165.98 129.469 166.857 129.173 167.755C128.443 169.954 128.082 172.259 128.107 174.576C128.119 175.52 128.192 176.463 128.325 177.397C128.592 178.987 128.891 179.947 128.837 179.963Z" fill="#FAFAFA"/>
<path d="M104.256 121.019C104.256 121.061 103.413 120.693 102.027 120.245C98.4149 119.079 94.5871 118.74 90.8266 119.253C89.3866 119.451 88.5066 119.675 88.496 119.627C88.6872 119.534 88.8899 119.468 89.0986 119.429C89.6566 119.275 90.2229 119.152 90.7946 119.061C94.5837 118.432 98.4705 118.775 102.091 120.059C102.635 120.251 103.169 120.469 103.691 120.715C103.891 120.792 104.081 120.894 104.256 121.019Z" fill="#FAFAFA"/>
<path d="M146.389 143.467C145.73 143.501 145.069 143.49 144.411 143.435C143.189 143.387 141.504 143.323 139.643 143.28C137.781 143.237 136.096 143.211 134.875 143.2C134.214 143.221 133.553 143.198 132.896 143.131C133.071 143.089 133.25 143.068 133.429 143.067C133.771 143.067 134.267 143.019 134.88 143.003C136.101 142.965 137.787 142.955 139.653 143.003C141.52 143.051 143.205 143.147 144.453 143.248C145.061 143.296 145.552 143.339 145.893 143.381C146.061 143.392 146.228 143.421 146.389 143.467Z" fill="#FAFAFA"/>
<path d="M156.917 141.445C156.917 141.493 156.251 141.723 155.211 142.235C152.49 143.573 150.185 145.627 148.544 148.176C147.915 149.152 147.611 149.803 147.568 149.776C147.598 149.608 147.655 149.445 147.739 149.296C147.926 148.872 148.139 148.461 148.379 148.064C149.161 146.745 150.143 145.556 151.291 144.539C152.435 143.518 153.728 142.678 155.125 142.048C155.547 141.858 155.98 141.694 156.421 141.557C156.581 141.499 156.748 141.461 156.917 141.445Z" fill="#FAFAFA"/>
<path d="M151.723 124.352C150.804 124.321 149.888 124.449 149.013 124.731C148.07 125.06 147.154 125.467 146.277 125.947C145.195 126.547 144.064 127.055 142.896 127.467C140.738 128.158 138.443 128.306 136.213 127.899C135.543 127.777 134.885 127.599 134.245 127.365C134.006 127.29 133.775 127.19 133.557 127.067C133.557 127.013 134.56 127.435 136.224 127.707C138.422 128.05 140.67 127.876 142.789 127.2C143.944 126.792 145.065 126.296 146.144 125.717C147.037 125.243 147.97 124.851 148.933 124.544C149.588 124.336 150.273 124.237 150.96 124.251C151.139 124.256 151.317 124.274 151.493 124.304C151.659 124.325 151.728 124.341 151.723 124.352Z" fill="#FAFAFA"/>
<path d="M149.061 160.096C148.868 160.219 148.66 160.317 148.443 160.389C148.24 160.475 147.989 160.576 147.691 160.672C147.392 160.768 147.056 160.896 146.677 160.992C145.784 161.241 144.876 161.43 143.957 161.557C142.833 161.703 141.699 161.762 140.565 161.733C139.432 161.691 138.304 161.565 137.189 161.355C136.285 161.172 135.394 160.928 134.523 160.624C134.144 160.507 133.819 160.363 133.531 160.245C133.243 160.128 132.997 160.016 132.795 159.92C132.583 159.832 132.38 159.721 132.192 159.589C132.192 159.541 133.093 159.968 134.587 160.437C135.461 160.712 136.352 160.933 137.253 161.099C139.459 161.507 141.715 161.575 143.941 161.301C144.85 161.19 145.752 161.022 146.64 160.8C148.144 160.416 149.045 160.048 149.061 160.096Z" fill="#FAFAFA"/>
<path d="M161.317 175.883C161.241 175.835 161.171 175.777 161.109 175.712C160.987 175.589 160.784 175.424 160.576 175.179C159.932 174.49 159.367 173.731 158.891 172.917C157.352 170.19 156.533 167.116 156.512 163.984C156.515 160.874 156.922 157.778 157.723 154.773C158.011 153.621 158.256 152.693 158.453 152.059C158.544 151.765 158.619 151.525 158.677 151.328C158.736 151.131 158.763 151.072 158.773 151.077C158.772 151.166 158.758 151.254 158.731 151.339C158.688 151.541 158.629 151.787 158.56 152.085C158.4 152.773 158.181 153.685 157.915 154.821C157.178 157.816 156.804 160.889 156.8 163.973C156.817 167.055 157.588 170.085 159.045 172.8C159.502 173.613 160.038 174.38 160.645 175.088C161.067 175.6 161.333 175.861 161.317 175.883Z" fill="#FAFAFA"/>
<path d="M180.725 157.771C179.873 157.095 178.921 156.555 177.904 156.171C176.791 155.786 175.65 155.488 174.491 155.28C173.051 155.037 171.626 154.711 170.224 154.304C167.692 153.481 165.381 152.091 163.467 150.24C162.889 149.682 162.354 149.081 161.867 148.443C161.691 148.219 161.573 148.032 161.488 147.909C161.403 147.787 161.365 147.717 161.376 147.712C161.582 147.92 161.775 148.141 161.952 148.373C162.464 148.982 163.014 149.558 163.6 150.096C165.523 151.88 167.81 153.225 170.304 154.037C171.692 154.442 173.1 154.773 174.523 155.029C175.692 155.254 176.84 155.573 177.957 155.984C178.712 156.269 179.42 156.665 180.059 157.157C180.233 157.288 180.397 157.433 180.549 157.589C180.683 157.707 180.736 157.765 180.725 157.771Z" fill="#FAFAFA"/>
<path d="M186.827 139.973C186.621 139.826 186.43 139.66 186.256 139.477C186.08 139.312 185.867 139.109 185.6 138.885C185.333 138.661 185.067 138.395 184.704 138.139C183.916 137.503 183.09 136.917 182.229 136.384C180.119 135.079 177.825 134.097 175.424 133.472C174.443 133.219 173.447 133.025 172.443 132.891C172.016 132.821 171.627 132.795 171.285 132.763C170.944 132.731 170.645 132.704 170.405 132.693C170.153 132.692 169.901 132.669 169.653 132.624C169.902 132.586 170.154 132.573 170.405 132.587C170.702 132.572 170.999 132.572 171.296 132.587C171.637 132.587 172.037 132.613 172.469 132.672C173.484 132.783 174.491 132.961 175.483 133.205C176.698 133.517 177.888 133.916 179.045 134.4C180.193 134.9 181.302 135.485 182.363 136.149C183.225 136.7 184.05 137.307 184.832 137.968C185.173 138.24 185.451 138.501 185.707 138.757C185.925 138.956 186.134 139.166 186.331 139.387C186.517 139.564 186.683 139.761 186.827 139.973Z" fill="#FAFAFA"/>
<path d="M140.16 115.493C139.847 115.702 139.506 115.866 139.147 115.979C138.305 116.309 137.441 116.576 136.56 116.779C135.683 116.985 134.791 117.128 133.893 117.205C133.522 117.262 133.145 117.262 132.773 117.205C132.773 117.12 134.464 116.981 136.507 116.496C138.549 116.011 140.128 115.413 140.16 115.493Z" fill="#FAFAFA"/>
<path d="M159.077 190.608C159.147 190.846 159.155 191.097 159.102 191.34C159.049 191.582 158.937 191.807 158.774 191.994C158.612 192.181 158.405 192.325 158.173 192.412C157.941 192.498 157.691 192.526 157.445 192.491C157.161 192.45 156.894 192.328 156.678 192.139C156.462 191.949 156.306 191.701 156.229 191.424L155.776 189.749H155.845C155.892 189.991 155.88 190.24 155.81 190.477C155.741 190.713 155.617 190.93 155.448 191.108C155.278 191.287 155.069 191.423 154.837 191.505C154.604 191.586 154.356 191.612 154.112 191.579C153.413 191.579 152.811 190.56 152.608 190.021C152.081 190.072 151.549 189.978 151.072 189.749C150.594 189.519 150.188 189.164 149.899 188.72L146.768 183.835L140.971 179.595L144.48 167.067L156.955 175.141C157.445 175.525 157.52 175.675 158.299 176.405L166.352 183.813C165.44 184.347 164.667 184.32 163.397 183.813C162.128 183.307 156.571 179.547 156.571 179.547L159.077 190.56" fill="#FFBE9D"/>
<path d="M148.405 180.304C148.405 180.304 148.549 180.368 148.773 180.523L149.189 180.811C149.387 180.935 149.566 181.085 149.723 181.259C149.907 181.471 150.052 181.715 150.149 181.979C150.245 182.261 150.347 182.549 150.453 182.853L151.136 184.859C151.611 186.288 152.027 187.579 152.315 188.523C152.497 189.023 152.634 189.539 152.725 190.064C152.483 189.588 152.283 189.092 152.128 188.581C151.792 187.653 151.344 186.373 150.869 184.949C150.64 184.24 150.416 183.563 150.208 182.939C150.112 182.629 150.021 182.336 149.931 182.059C149.851 181.814 149.73 181.585 149.573 181.381C149.438 181.215 149.284 181.064 149.115 180.933L148.731 180.608C148.501 180.427 148.395 180.32 148.405 180.304Z" fill="#EB996E"/>
<path d="M155.909 190.037C155.83 189.867 155.771 189.688 155.733 189.504L155.333 188.075C154.992 186.869 154.539 185.2 153.957 183.381C153.376 181.563 152.768 179.941 152.037 178.939C151.765 178.538 151.419 178.193 151.019 177.92C150.725 177.739 150.539 177.685 150.544 177.653C150.593 177.652 150.642 177.661 150.688 177.68C150.821 177.714 150.95 177.762 151.072 177.824C151.515 178.071 151.899 178.411 152.197 178.821C152.992 179.835 153.632 181.488 154.219 183.296C154.805 185.104 155.232 186.805 155.52 188.027C155.664 188.635 155.771 189.131 155.84 189.477C155.891 189.659 155.915 189.848 155.909 190.037Z" fill="#EB996E"/>
<path d="M159.131 190.795C159.034 190.618 158.961 190.43 158.912 190.235C158.779 189.808 158.613 189.291 158.416 188.677C158.011 187.36 157.472 185.536 156.891 183.52C156.309 181.504 155.824 179.733 155.424 178.347C155.286 177.833 154.987 177.377 154.571 177.045C154.402 176.937 154.223 176.844 154.037 176.768C154.09 176.755 154.145 176.755 154.197 176.768C154.347 176.802 154.49 176.861 154.619 176.944C155.084 177.264 155.428 177.732 155.595 178.272C156.032 179.589 156.549 181.413 157.141 183.429C157.733 185.445 158.235 187.285 158.592 188.613C158.752 189.232 158.891 189.76 158.997 190.213C159.062 190.402 159.107 190.597 159.131 190.795Z" fill="#EB996E"/>
<path d="M234.917 75.1413C234.917 75.5105 235.027 75.8714 235.232 76.1784C235.437 76.4854 235.729 76.7246 236.07 76.8659C236.411 77.0072 236.786 77.0442 237.148 76.9721C237.51 76.9001 237.843 76.7223 238.104 76.4613C238.365 76.2002 238.543 75.8676 238.615 75.5055C238.687 75.1434 238.65 74.7681 238.509 74.427C238.367 74.0859 238.128 73.7944 237.821 73.5892C237.514 73.3841 237.153 73.2747 236.784 73.2747C236.289 73.2747 235.814 73.4713 235.464 73.8214C235.114 74.1715 234.917 74.6463 234.917 75.1413Z" fill="#455A64"/>
<path d="M229.312 77.008C230.343 77.008 231.179 76.1723 231.179 75.1413C231.179 74.1104 230.343 73.2747 229.312 73.2747C228.281 73.2747 227.445 74.1104 227.445 75.1413C227.445 76.1723 228.281 77.008 229.312 77.008Z" fill="#455A64"/>
<path d="M219.995 74.208C219.81 74.5277 219.724 74.895 219.748 75.2635C219.772 75.6319 219.905 75.985 220.13 76.278C220.354 76.571 220.661 76.7907 221.011 76.9095C221.36 77.0283 221.737 77.0407 222.094 76.9452C222.45 76.8497 222.771 76.6505 223.014 76.3729C223.258 76.0954 223.413 75.7518 223.462 75.3857C223.51 75.0196 223.448 74.6475 223.285 74.3163C223.122 73.9852 222.864 73.7099 222.544 73.5253C222.332 73.4021 222.098 73.3221 221.855 73.2897C221.612 73.2573 221.364 73.2733 221.127 73.3368C220.891 73.4002 220.669 73.5098 220.474 73.6593C220.28 73.8089 220.117 73.9953 219.995 74.208Z" fill="#455A64"/>
<path d="M229.195 53.3333C229.07 53.324 228.946 53.324 228.821 53.3333L227.712 53.3653C227.467 53.3653 227.179 53.3653 226.891 53.4027L225.915 53.5413L224.773 53.7067L223.493 54.0213C221.301 54.5657 219.213 55.4666 217.312 56.688C214.501 58.4778 212.137 60.8863 210.399 63.7295C208.661 66.5728 207.596 69.7756 207.285 73.0933C207.202 74.0884 207.182 75.0878 207.227 76.0853C207.264 76.5867 207.253 77.104 207.328 77.6107C207.403 78.1173 207.483 78.6347 207.557 79.152C207.948 81.2716 208.649 83.3221 209.637 85.2373C210.69 87.244 212.028 89.0873 213.611 90.7093C215.297 92.3671 217.229 93.7541 219.339 94.8213C221.522 95.9384 223.885 96.6607 226.32 96.9547C226.936 97.0465 227.558 97.0982 228.181 97.1093C228.808 97.1565 229.436 97.169 230.064 97.1467C231.33 97.0944 232.59 96.9356 233.829 96.672C236.505 96.0923 239.05 95.0198 241.333 93.5093L241.109 93.536L248.752 96.6027L249.205 96.784L249.077 96.3147L246.827 88.144L246.789 88.3413C248.864 85.5941 250.262 82.3965 250.869 79.008C251.162 77.4259 251.262 75.8142 251.168 74.208C251.15 73.4376 251.077 72.6694 250.949 71.9093C250.892 71.5324 250.834 71.1591 250.773 70.7893C250.709 70.4213 250.597 70.064 250.507 69.7227C249.226 64.698 246.202 60.2918 241.973 57.2907C240.413 56.1736 238.706 55.2763 236.901 54.624L235.755 54.2133L234.688 53.936L233.696 53.6907C233.376 53.632 233.067 53.6 232.779 53.552C232.203 53.4827 231.712 53.3813 231.248 53.36L230.128 53.3227H229.44C229.362 53.3169 229.284 53.3169 229.205 53.3227C229.281 53.3468 229.361 53.3576 229.44 53.3547L230.123 53.4133L231.237 53.488C231.68 53.52 232.181 53.632 232.757 53.7173C236.906 54.4381 240.756 56.3478 243.841 59.2145C246.925 62.0812 249.111 65.7817 250.133 69.8667C250.213 70.2187 250.325 70.5707 250.389 70.9333C250.453 71.296 250.496 71.6587 250.555 72.032C250.677 72.7781 250.744 73.5321 250.757 74.288C250.841 75.8574 250.737 77.4312 250.448 78.976C249.829 82.2902 248.443 85.4135 246.4 88.096L246.331 88.1867L246.363 88.2987C247.074 90.9369 247.817 93.6622 248.592 96.4747L248.917 96.1867L241.275 93.1093L241.157 93.0613L241.045 93.1307C237.768 95.3024 233.956 96.5312 230.027 96.6827C229.413 96.7041 228.799 96.6934 228.187 96.6507C227.578 96.6396 226.97 96.5879 226.368 96.496C223.988 96.2079 221.677 95.502 219.541 94.4107C217.477 93.3662 215.585 92.0119 213.931 90.3947C212.379 88.8141 211.064 87.0178 210.027 85.0613C209.064 83.1815 208.381 81.1709 208 79.0933C207.92 78.56 207.84 78.0853 207.765 77.584C207.691 77.0827 207.701 76.5813 207.664 76.0853C207.614 75.1077 207.628 74.1278 207.707 73.152C207.997 69.8863 209.028 66.7297 210.72 63.9214C212.412 61.1132 214.721 58.7271 217.472 56.944C219.34 55.7086 221.395 54.7829 223.557 54.2027L224.816 53.8667L225.947 53.68L226.917 53.52C227.216 53.488 227.488 53.4773 227.728 53.4613L228.832 53.3813C228.954 53.3781 229.076 53.362 229.195 53.3333Z" fill="#455A64"/>
</svg>
