<svg width="25" height="25" viewBox="0 0 25 25" fill="none" xmlns="http://www.w3.org/2000/svg">
<path d="M12.9651 2.5C7.44515 2.5 2.96515 6.98 2.96515 12.5C2.96515 18.02 7.44515 22.5 12.9651 22.5C18.4851 22.5 22.9651 18.02 22.9651 12.5C22.9651 6.98 18.4851 2.5 12.9651 2.5ZM17.6051 9.3C17.4551 10.88 16.8051 14.72 16.4751 16.49C16.3351 17.24 16.0551 17.49 15.7951 17.52C15.2151 17.57 14.7751 17.14 14.2151 16.77C13.3351 16.19 12.8351 15.83 11.9851 15.27C10.9951 14.62 11.6351 14.26 12.2051 13.68C12.3551 13.53 14.9151 11.2 14.9651 10.99C14.9721 10.9582 14.9712 10.9252 14.9625 10.8938C14.9537 10.8624 14.9375 10.8337 14.9151 10.81C14.8551 10.76 14.7751 10.78 14.7051 10.79C14.6151 10.81 13.2151 11.74 10.4851 13.58C10.0851 13.85 9.72515 13.99 9.40515 13.98C9.04515 13.97 8.36515 13.78 7.85515 13.61C7.22515 13.41 6.73515 13.3 6.77515 12.95C6.79515 12.77 7.04515 12.59 7.51515 12.4C10.4351 11.13 12.3751 10.29 13.3451 9.89C16.1251 8.73 16.6951 8.53 17.0751 8.53C17.1551 8.53 17.3451 8.55 17.4651 8.65C17.5651 8.73 17.5951 8.84 17.6051 8.92C17.5951 8.98 17.6151 9.16 17.6051 9.3Z" fill="white"/>
</svg>
