<svg width="25" height="25" viewBox="0 0 25 25" fill="none" xmlns="http://www.w3.org/2000/svg">
<g clip-path="url(#clip0_1_52)">
<path fill-rule="evenodd" clip-rule="evenodd" d="M10.3302 3.608C12.4185 3.4911 14.5118 3.4911 16.6002 3.608L17.2322 3.644L17.8142 3.686C18.7462 3.766 19.4962 3.90499 20.1982 4.28299C21.0515 4.76247 21.7558 5.46846 22.2332 6.32299C22.6482 7.09699 22.7712 7.916 22.8432 8.962L22.8962 9.87199C22.9713 11.2897 22.9713 12.7103 22.8962 14.128L22.8432 15.038C22.7712 16.085 22.6482 16.903 22.2332 17.677C21.7558 18.5316 21.0515 19.2376 20.1982 19.717C19.3552 20.171 18.4442 20.28 17.2322 20.356L16.6002 20.393C15.5563 20.4576 14.5109 20.4933 13.4652 20.5L11.8312 20.505C11.6662 20.505 11.4992 20.503 11.3322 20.5L10.8312 20.488L8.59016 22.281C8.4515 22.392 8.28578 22.4641 8.11002 22.4898C7.93427 22.5156 7.75483 22.4941 7.59017 22.4275C7.4255 22.3609 7.28154 22.2516 7.1731 22.1109C7.06465 21.9702 6.99564 21.8032 6.97316 21.627L6.96516 21.5V19.834C6.88631 19.7974 6.80861 19.7584 6.73216 19.717C5.87876 19.2376 5.1745 18.5316 4.69716 17.677C4.28316 16.903 4.15916 16.085 4.08716 15.039L4.05116 14.444L4.03416 14.128C3.95873 12.7103 3.95873 11.2897 4.03416 9.87199L4.08716 8.962C4.15916 7.916 4.28316 7.09699 4.69716 6.32399C5.1745 5.46943 5.87876 4.76343 6.73216 4.28399C7.50416 3.86699 8.33516 3.74 9.40216 3.664L10.0072 3.62599L10.3302 3.608ZM9.93016 7.385C8.95316 7.804 8.11716 8.863 8.15816 9.965L8.16716 10.127L8.18616 10.322C8.19016 10.357 8.19416 10.392 8.20016 10.43L8.23816 10.67C8.41716 11.644 8.96416 13.225 10.6032 14.863C12.2412 16.502 13.8232 17.049 14.7962 17.228L15.0362 17.266L15.2462 17.291L15.5002 17.308C16.6012 17.348 17.6602 16.518 18.0792 15.541C18.1312 15.4201 18.1498 15.2875 18.1331 15.157C18.1164 15.0265 18.065 14.9028 17.9842 14.799C17.5512 14.243 17.0022 13.806 16.4322 13.399L15.8592 12.999C15.6996 12.8884 15.5034 12.8439 15.3117 12.8749C15.1201 12.9058 14.9478 13.0098 14.8312 13.165L14.1962 14.132C14.1628 14.1838 14.1109 14.221 14.051 14.2359C13.9912 14.2507 13.9279 14.2422 13.8742 14.212C13.4442 13.967 12.8182 13.549 12.3682 13.098C11.9182 12.648 11.5252 12.05 11.3042 11.648C11.2766 11.5969 11.2685 11.5375 11.2813 11.4809C11.2942 11.4242 11.3272 11.3742 11.3742 11.34L12.3502 10.616C12.4897 10.4951 12.5798 10.327 12.6034 10.1439C12.627 9.96077 12.5824 9.77536 12.4782 9.623L12.1482 9.13799C11.7472 8.55199 11.2742 7.918 10.6532 7.464C10.5498 7.38924 10.4289 7.34265 10.3021 7.3288C10.1754 7.31495 10.0472 7.33432 9.93016 7.385ZM14.5582 9.387C14.3081 9.29868 14.0331 9.31333 13.7938 9.42773C13.5545 9.54212 13.3705 9.7469 13.2822 9.99699C13.1938 10.2471 13.2085 10.522 13.3229 10.7613C13.4373 11.0006 13.6421 11.1847 13.8922 11.273C14.0052 11.313 14.1002 11.393 14.1602 11.497L14.1972 11.578C14.2855 11.8281 14.4695 12.0329 14.7088 12.1473C14.9481 12.2617 15.2231 12.2763 15.4732 12.188C15.7233 12.0997 15.928 11.9156 16.0424 11.6763C16.1568 11.437 16.1715 11.1621 16.0832 10.912C15.9587 10.5602 15.7571 10.2408 15.4933 9.9769C15.2294 9.71305 14.9099 9.5115 14.5582 9.387ZM14.2822 7.16699C14.2384 7.29083 14.2195 7.42207 14.2265 7.55322C14.2335 7.68437 14.2662 7.81285 14.3229 7.93134C14.3795 8.04983 14.4589 8.156 14.5566 8.24379C14.6543 8.33158 14.7683 8.39927 14.8922 8.443C15.3841 8.61779 15.8308 8.90002 16.2 9.26916C16.5691 9.63831 16.8514 10.0851 17.0262 10.577C17.0699 10.7008 17.1376 10.8148 17.2254 10.9125C17.3132 11.0102 17.4193 11.0896 17.5378 11.1463C17.6563 11.2029 17.7848 11.2357 17.9159 11.2426C18.0471 11.2496 18.1783 11.2307 18.3022 11.187C18.426 11.1433 18.54 11.0756 18.6377 10.9878C18.7354 10.9 18.8148 10.7938 18.8714 10.6753C18.9281 10.5568 18.9608 10.4284 18.9678 10.2972C18.9748 10.1661 18.9559 10.0348 18.9122 9.911C18.638 9.13756 18.1946 8.43509 17.6143 7.85484C17.0341 7.27459 16.3316 6.83119 15.5582 6.557C15.4343 6.51326 15.3031 6.49434 15.1719 6.50132C15.0408 6.50831 14.9123 6.54106 14.7938 6.5977C14.6753 6.65435 14.5691 6.73378 14.4814 6.83146C14.3936 6.92914 14.3259 7.04315 14.2822 7.16699Z" fill="white"/>
</g>
<defs>
<clipPath id="clip0_1_52">
<rect width="24" height="24" fill="white" transform="translate(0.965149 0.5)"/>
</clipPath>
</defs>
</svg>
