<svg width="25" height="25" viewBox="0 0 25 25" fill="none" xmlns="http://www.w3.org/2000/svg">
<g clip-path="url(#clip0_1_56)">
<path fill-rule="evenodd" clip-rule="evenodd" d="M12.9651 2.5C7.44215 2.5 2.96515 6.977 2.96515 12.5C2.96515 14.39 3.49015 16.16 4.40315 17.668L3.51115 20.7C3.45993 20.8741 3.45656 21.0588 3.50139 21.2346C3.54622 21.4104 3.6376 21.5709 3.76591 21.6992C3.89422 21.8276 4.05473 21.9189 4.23057 21.9638C4.4064 22.0086 4.59107 22.0052 4.76515 21.954L7.79715 21.062C9.35583 22.0051 11.1434 22.5025 12.9651 22.5C18.4881 22.5 22.9651 18.023 22.9651 12.5C22.9651 6.977 18.4881 2.5 12.9651 2.5ZM10.7031 14.763C12.7261 16.785 14.6571 17.052 15.3391 17.077C16.3761 17.115 17.3861 16.323 17.7791 15.404C17.8288 15.2897 17.8468 15.1641 17.8313 15.0405C17.8158 14.9168 17.7674 14.7996 17.6911 14.701C17.1431 14.001 16.4021 13.498 15.6781 12.998C15.527 12.8935 15.3412 12.8516 15.1598 12.881C14.9784 12.9105 14.8155 13.009 14.7051 13.156L14.1051 14.071C14.0736 14.1202 14.0244 14.1555 13.9677 14.1696C13.911 14.1837 13.8511 14.1756 13.8001 14.147C13.3931 13.914 12.8001 13.518 12.3741 13.092C11.9481 12.666 11.5761 12.1 11.3671 11.719C11.3412 11.6706 11.3337 11.6144 11.3461 11.5609C11.3584 11.5074 11.3897 11.4602 11.4341 11.428L12.3581 10.742C12.49 10.6273 12.5751 10.4682 12.5972 10.2949C12.6194 10.1215 12.577 9.94611 12.4781 9.802C12.0301 9.146 11.5081 8.312 10.7511 7.759C10.6535 7.6882 10.539 7.64406 10.4191 7.63091C10.2992 7.61776 10.1779 7.63606 10.0671 7.684C9.14715 8.078 8.35115 9.088 8.38915 10.127C8.41415 10.809 8.68115 12.74 10.7031 14.763Z" fill="white"/>
</g>
<defs>
<clipPath id="clip0_1_56">
<rect width="24" height="24" fill="white" transform="translate(0.965149 0.5)"/>
</clipPath>
</defs>
</svg>
