<svg width="23" height="23" viewBox="0 0 23 23" fill="none" xmlns="http://www.w3.org/2000/svg">
<path fill-rule="evenodd" clip-rule="evenodd" d="M0.692167 0.521029C0.056977 1.15622 0.0569752 2.18606 0.692165 2.82125L8.91395 11.043L0.522009 19.435C-0.113181 20.0702 -0.113181 21.1 0.522008 21.7352C1.1572 22.3704 2.18704 22.3704 2.82223 21.7352L11.2142 13.3433L19.6051 21.7342C20.2403 22.3694 21.2702 22.3694 21.9054 21.7342C22.5406 21.099 22.5406 20.0692 21.9054 19.434L13.5144 11.043L21.7352 2.82223C22.3704 2.18704 22.3704 1.15719 21.7352 0.522003C21.1 -0.113187 20.0702 -0.113189 19.435 0.522001L11.2142 8.74281L2.99239 0.521029C2.3572 -0.114161 1.32736 -0.114161 0.692167 0.521029Z" fill="black"/>
</svg>
