<svg width="25" height="25" viewBox="0 0 25 25" fill="none" xmlns="http://www.w3.org/2000/svg">
<g clip-path="url(#clip0_10_141)">
<path d="M22.9652 17.42V20.42C22.9663 20.6985 22.9092 20.9741 22.7977 21.2293C22.6861 21.4845 22.5224 21.7136 22.3172 21.9018C22.112 22.0901 21.8697 22.2335 21.6059 22.3227C21.3421 22.4119 21.0625 22.445 20.7852 22.42C17.708 22.0856 14.7521 21.0341 12.1552 19.35C9.73898 17.8146 7.69049 15.7661 6.15515 13.35C4.46513 10.7412 3.41339 7.77097 3.08515 4.67997C3.06016 4.40344 3.09303 4.12474 3.18165 3.8616C3.27028 3.59846 3.41272 3.35666 3.59992 3.1516C3.78711 2.94653 4.01496 2.78268 4.26894 2.6705C4.52293 2.55831 4.79749 2.50024 5.07515 2.49997H8.07515C8.56046 2.4952 9.03094 2.66705 9.39891 2.98351C9.76688 3.29996 10.0072 3.73942 10.0752 4.21997C10.2018 5.18004 10.4366 6.1227 10.7752 7.02997C10.9097 7.3879 10.9388 7.77689 10.8591 8.15086C10.7793 8.52482 10.594 8.86809 10.3252 9.13998L9.05515 10.41C10.4787 12.9135 12.5516 14.9864 15.0552 16.41L16.3252 15.14C16.597 14.8711 16.9403 14.6858 17.3143 14.6061C17.6882 14.5263 18.0772 14.5554 18.4352 14.69C19.3424 15.0285 20.2851 15.2634 21.2452 15.39C21.7309 15.4585 22.1746 15.7032 22.4917 16.0775C22.8088 16.4518 22.9773 16.9296 22.9652 17.42Z" fill="#1C1A19"/>
<path d="M15.0152 2.5C17.0534 2.71477 18.9573 3.6188 20.412 5.06258C21.8667 6.50636 22.785 8.40341 23.0152 10.44" stroke="#1C1A19" stroke-width="2" stroke-linecap="round" stroke-linejoin="round"/>
<path d="M15.0152 6.5C15.9987 6.69394 16.9012 7.17903 17.6055 7.89231C18.3099 8.60559 18.7836 9.51413 18.9652 10.5" stroke="#1C1A19" stroke-width="2" stroke-linecap="round" stroke-linejoin="round"/>
</g>
<defs>
<clipPath id="clip0_10_141">
<rect width="24" height="24" fill="white" transform="translate(0.965149 0.5)"/>
</clipPath>
</defs>
</svg>
