<svg width="13" height="20" viewBox="0 0 13 20" fill="none" xmlns="http://www.w3.org/2000/svg">
<g clip-path="url(#clip0_186_238)">
<path d="M10.0996 1.092C7.91245 -0.363267 5.08641 -0.363267 2.90051 1.092C0.0834536 2.96452 -0.818362 6.61357 0.80311 9.57914L6.50007 20.0002L12.197 9.57914C13.8185 6.61357 12.918 2.96452 10.0996 1.092ZM11.072 8.96734L6.50135 17.329L1.92942 8.96734C0.628648 6.58669 1.35087 3.65952 3.61247 2.15689C4.48991 1.57325 5.49435 1.28015 6.50007 1.28015C7.5058 1.28015 8.51024 1.57197 9.38768 2.15561C11.6493 3.65952 12.3728 6.58669 11.072 8.96734Z" fill="white"/>
<path d="M6.49999 2.66608C4.73228 2.66608 3.29297 4.10215 3.29297 5.86587C3.29297 7.6296 4.73228 9.06567 6.49999 9.06567C8.26771 9.06567 9.70702 7.6296 9.70702 5.86587C9.70702 4.10215 8.26899 2.66608 6.49999 2.66608ZM6.49999 7.78575C5.43911 7.78575 4.57578 6.92436 4.57578 5.86587C4.57578 4.80738 5.43911 3.94599 6.49999 3.94599C7.56088 3.94599 8.42421 4.80738 8.42421 5.86587C8.42421 6.92436 7.56088 7.78575 6.49999 7.78575Z" fill="white"/>
</g>
<defs>
<clipPath id="clip0_186_238">
<rect width="13" height="20" fill="white"/>
</clipPath>
</defs>
</svg>
