<svg width="13" height="20" viewBox="0 0 13 20" fill="none" xmlns="http://www.w3.org/2000/svg">
<g clip-path="url(#clip0_186_563)">
<path d="M10.0996 1.09194C7.91245 -0.363328 5.08641 -0.363328 2.90051 1.09194C0.0834536 2.96446 -0.818362 6.61351 0.80311 9.57908L6.50007 20.0002L12.197 9.57908C13.8185 6.61351 12.918 2.96446 10.0996 1.09194ZM11.072 8.96727L6.50135 17.329L1.92942 8.96727C0.628648 6.58663 1.35087 3.65945 3.61247 2.15683C4.48991 1.57319 5.49435 1.28009 6.50007 1.28009C7.5058 1.28009 8.51024 1.57191 9.38768 2.15555C11.6493 3.65945 12.3728 6.58663 11.072 8.96727Z" fill="#1B1B1B"/>
<path d="M6.49999 2.66602C4.73228 2.66602 3.29297 4.10208 3.29297 5.86581C3.29297 7.62954 4.73228 9.06561 6.49999 9.06561C8.26771 9.06561 9.70702 7.62954 9.70702 5.86581C9.70702 4.10208 8.26899 2.66602 6.49999 2.66602ZM6.49999 7.78569C5.43911 7.78569 4.57578 6.9243 4.57578 5.86581C4.57578 4.80732 5.43911 3.94593 6.49999 3.94593C7.56088 3.94593 8.42421 4.80732 8.42421 5.86581C8.42421 6.9243 7.56088 7.78569 6.49999 7.78569Z" fill="#1B1B1B"/>
</g>
<defs>
<clipPath id="clip0_186_563">
<rect width="13" height="20" fill="white"/>
</clipPath>
</defs>
</svg>
