<svg width="86" height="86" viewBox="0 0 86 86" fill="none" xmlns="http://www.w3.org/2000/svg">
<circle opacity="0.5" cx="43" cy="43" r="43" fill="#979797"/>
<g opacity="0.9" clip-path="url(#clip0_2026_4)">
<path d="M37.3 53.9C28.8 53.9 21.9 47 21.9 38.5C21.9 30 28.8 23 37.3 23C45.8 23 52.8 30 52.8 38.5C52.8 39.7 52.7 40.9 52.4 42.1C52.3 42.6 51.7 43 51.2 42.8C50.7 42.7 50.3 42.1 50.5 41.6C50.7 40.6 50.9 39.6 50.9 38.5C50.9 31.1 44.9 25 37.4 25C29.9 25 23.9 31.1 23.9 38.5C23.9 45.9 29.9 52 37.4 52C38.5 52 39.5 51.9 40.6 51.6C41.1 51.5 41.7 51.8 41.8 52.3C41.9 52.8 41.6 53.4 41.1 53.5C39.8 53.8 38.6 53.9 37.3 53.9Z" fill="white"/>
<path d="M58.4 62.9998C57.5 62.9998 56.6 62.5998 55.9 61.9998L44.9 50.9998C44.5 50.5998 44.5 49.9998 44.9 49.5998C45.3 49.1998 45.9 49.1998 46.3 49.5998L57.3 60.5998C57.9 61.1998 58.9 61.1998 59.4 60.5998C60 59.9998 60 58.9998 59.4 58.4998L48.4 47.4998C48 47.0998 48 46.4998 48.4 46.0998C48.8 45.6998 49.4 45.6998 49.8 46.0998L60.8 57.0998C62.2 58.4998 62.2 60.6998 60.8 62.0998C60.2 62.5998 59.3 62.9998 58.4 62.9998Z" fill="white"/>
<path d="M37.3 50C31 50 25.8 44.8 25.8 38.5C25.8 32.2 31 27 37.3 27C43.6 27 48.8 32.2 48.8 38.5C48.8 44.8 43.7 50 37.3 50ZM37.3 29C32.1 29 27.8 33.3 27.8 38.5C27.8 43.7 32.1 48 37.3 48C42.5 48 46.8 43.7 46.8 38.5C46.8 33.3 42.6 29 37.3 29Z" fill="white"/>
</g>
<defs>
<clipPath id="clip0_2026_4">
<rect width="40" height="40" fill="white" transform="translate(22 23)"/>
</clipPath>
</defs>
</svg>
