<svg width="311" height="63" viewBox="0 0 311 63" fill="none" xmlns="http://www.w3.org/2000/svg">
<path fill-rule="evenodd" clip-rule="evenodd" d="M9.76746 23.4419C9.76746 17.6571 12.5462 12.2872 16.7817 8.34586C21.0199 4.40194 26.6495 1.95349 32.2326 1.95349C43.4548 1.95349 54.2093 11.8119 54.2093 23.4419C54.2093 30.0494 52.2148 34.2202 49.6188 37.2777C48.3067 38.8231 46.8236 40.1041 45.3134 41.2837C44.7019 41.7613 44.0609 42.2403 43.4243 42.7161C42.5421 43.3754 41.6684 44.0284 40.8931 44.6627C37.3535 47.5587 34.1077 50.4441 32.4062 52.1281C32.3943 52.1399 32.3649 52.1586 32.3111 52.1559C32.2564 52.1532 32.2197 52.13 32.2019 52.1092C30.5063 50.1333 27.1658 46.9426 23.4842 44.5986L23.4708 44.59C18.1205 41.1846 9.76746 35.0908 9.76746 23.4419ZM7.81397 23.4419C7.81397 34.6192 14.8844 41.0725 20.2645 44.8093C15.7111 45.5212 11.2025 46.614 7.63286 47.8957C5.5182 48.655 3.68524 49.4974 2.36175 50.3945C1.70018 50.843 1.12866 51.3298 0.714286 51.859C0.299002 52.3894 0 53.0176 0 53.7209C0 55.3969 1.26346 56.7435 2.91352 57.7797C4.61337 58.8472 7.00818 59.7726 9.88061 60.5356C15.6398 62.0654 23.542 63 32.2326 63C40.9231 63 48.8253 62.0654 54.5845 60.5356C57.457 59.7726 59.8518 58.8472 61.5516 57.7797C63.2017 56.7435 64.4651 55.3969 64.4651 53.7209C64.4651 52.3679 63.4415 51.2513 62.2395 50.3852C60.9786 49.4768 59.2265 48.6299 57.1854 47.8701C53.5667 46.5231 48.8878 45.3946 44.0339 44.6995C44.1956 44.5784 44.3589 44.4566 44.5239 44.3335L44.5239 44.3335L44.524 44.3335C45.1596 43.8593 45.8207 43.3662 46.5159 42.8232C48.0733 41.6067 49.673 40.2322 51.108 38.5421C54.0062 35.1286 56.1628 30.5087 56.1628 23.4419C56.1628 10.6532 44.4522 0 32.2326 0C26.0947 0 20.0034 2.67945 15.4509 6.91577C10.8957 11.1547 7.81397 17.0173 7.81397 23.4419ZM41.8853 46.3886L41.8713 46.3868C40.8251 47.2461 39.8103 48.0998 38.8599 48.9162C42.747 49.092 46.1544 49.4532 48.7235 50.0158C50.2373 50.3473 51.5276 50.7627 52.463 51.2916C53.3602 51.799 54.2093 52.5789 54.2093 53.7209C54.2093 54.3799 53.8181 54.8646 53.4494 55.1766C53.0707 55.4969 52.5737 55.7605 52.0355 55.9843C50.9502 56.4355 49.4682 56.8165 47.7938 57.1261C44.4305 57.7479 40.097 58.1163 36.1395 58.1163C35.6001 58.1163 35.1628 57.679 35.1628 57.1395C35.1628 56.6001 35.6001 56.1628 36.1395 56.1628C39.9959 56.1628 44.209 55.8023 47.4387 55.2051C49.0608 54.9052 50.3869 54.5541 51.2856 54.1805C51.7395 53.9918 52.0284 53.8199 52.1878 53.6851C52.2082 53.6678 52.2247 53.6527 52.238 53.6399C52.193 53.5226 52.0369 53.2949 51.5014 52.992C50.8168 52.6049 49.7482 52.24 48.3056 51.9241C45.4599 51.3009 41.4208 50.9226 36.713 50.7933C35.5081 51.8674 34.4964 52.8079 33.7804 53.5166C32.9151 54.373 31.4903 54.2797 30.7194 53.3814C30.1009 52.6606 29.2394 51.7582 28.2121 50.7936C23.3988 50.9093 19.2458 51.2777 16.3107 51.8994C14.8206 52.2151 13.7115 52.5826 12.9986 52.9759C12.4439 53.2819 12.2783 53.5142 12.2294 53.6351C12.2438 53.6486 12.2618 53.6644 12.284 53.6826C12.4556 53.8226 12.7626 53.9979 13.2372 54.1886C14.1767 54.566 15.5512 54.9171 17.2054 55.2155C20.4998 55.81 24.7146 56.1628 28.3256 56.1628C28.865 56.1628 29.3023 56.6001 29.3023 57.1395C29.3023 57.679 28.865 58.1163 28.3256 58.1163C24.6109 58.1163 20.2792 57.7552 16.8585 57.138C15.1551 56.8306 13.6299 56.4515 12.5091 56.0013C11.9536 55.7782 11.4403 55.5154 11.0491 55.1962C10.6717 54.8883 10.2558 54.3986 10.2558 53.7209C10.2558 52.5582 11.1354 51.7728 12.0549 51.2655C13.0175 50.7344 14.3463 50.3187 15.9059 49.9883C18.5586 49.4264 22.0742 49.0726 26.0704 48.9085C25.0256 48.0469 23.8931 47.1957 22.7231 46.4321C17.5545 47.0959 12.2818 48.302 8.29302 49.7342C6.24755 50.4687 4.58742 51.2458 3.45784 52.0115C2.89288 52.3945 2.49787 52.7498 2.25235 53.0634C2.00775 53.3758 1.95349 53.5908 1.95349 53.7209C1.95349 54.3376 2.43924 55.1751 3.95244 56.1254C5.41586 57.0444 7.59835 57.9081 10.3821 58.6475C15.9353 60.1226 23.661 61.0465 32.2326 61.0465C40.8041 61.0465 48.5298 60.1226 54.083 58.6475C56.8668 57.9081 59.0493 57.0444 60.5127 56.1254C62.0259 55.1751 62.5116 54.3376 62.5116 53.7209C62.5116 53.3818 62.216 52.7761 61.0975 51.9702C60.0379 51.2067 58.4681 50.432 56.5039 49.7008C52.5872 48.2429 47.2939 47.0281 41.8853 46.3886ZM14.6512 23.9302C14.6512 14.2203 22.5227 6.34882 32.2326 6.34882C41.9425 6.34882 49.814 14.2203 49.814 23.9302C49.814 33.6402 41.9425 41.5116 32.2326 41.5116C22.5227 41.5116 14.6512 33.6402 14.6512 23.9302ZM32.2326 4.39533C21.4438 4.39533 12.6977 13.1414 12.6977 23.9302C12.6977 34.719 21.4438 43.4651 32.2326 43.4651C43.0214 43.4651 51.7675 34.719 51.7675 23.9302C51.7675 13.1414 43.0214 4.39533 32.2326 4.39533ZM52.2858 53.5854C52.2859 53.5854 52.2849 53.5873 52.2822 53.5912C52.2842 53.5873 52.2856 53.5854 52.2858 53.5854ZM12.1771 53.5776L12.1765 53.5769C12.1763 53.5769 12.1775 53.579 12.1806 53.5831L12.1782 53.5791L12.1771 53.5776ZM28.093 13.1809C27.6403 13.1774 27.1911 13.1785 26.8178 13.2139C26.5208 13.242 26.1875 13.297 25.8803 13.4265C25.5576 13.5625 25.216 13.8025 25.0101 14.2144C24.6486 14.9374 21.9514 20.0443 20.4101 22.9569C20.3485 22.9611 20.2891 22.9691 20.232 22.9804L19.3173 21.8505C18.9778 21.4313 18.3628 21.3666 17.9435 21.706C17.5243 22.0455 17.4596 22.6605 17.799 23.0798L18.894 24.4322C18.825 24.6448 18.7714 24.8646 18.7281 25.0789C18.6331 25.5497 18.5718 26.0803 18.5333 26.6219C18.4561 27.7061 18.4656 28.9059 18.5079 29.9017C18.5527 30.9546 19.427 31.7442 20.4444 31.7442H21.5719C21.6571 32.2601 21.8159 32.8278 22.0849 33.3508C22.561 34.2766 23.4535 35.1628 24.907 35.1628C26.3604 35.1628 27.253 34.2766 27.7291 33.3508C27.998 32.8278 28.1569 32.2601 28.2421 31.7442H36.223C36.3083 32.2601 36.4671 32.8278 36.7361 33.3508C37.2122 34.2766 38.1047 35.1628 39.5582 35.1628C41.0116 35.1628 41.9041 34.2766 42.3803 33.3508C42.6492 32.8278 42.808 32.2601 42.8933 31.7442H43.5324C44.5521 31.7442 45.4185 30.9544 45.473 29.9113C45.5246 28.9228 45.5589 27.7362 45.5336 26.6683C45.5211 26.1349 45.4934 25.6184 45.4431 25.1647C45.4198 24.9541 45.39 24.7412 45.3503 24.5373L46.6315 23.1202C46.9933 22.7201 46.9622 22.1024 46.5621 21.7406C46.1619 21.3788 45.5443 21.4099 45.1825 21.8101L44.136 22.9675C44.1006 22.962 44.0641 22.958 44.0267 22.9557C42.3413 20.0602 39.4847 14.923 39.1303 14.2144C38.7475 13.4488 37.9166 13.2905 37.4529 13.235C37.1036 13.1931 36.6943 13.1851 36.2847 13.1846C36.0565 12.6832 35.777 12.0964 35.5009 11.5753C35.3055 11.2066 35.097 10.8423 34.8987 10.5596C34.8018 10.4215 34.684 10.2688 34.55 10.1402C34.4827 10.0757 34.3884 9.99482 34.2689 9.92548C34.1551 9.85941 33.9561 9.76747 33.6977 9.76747H30.2791C29.7783 9.76747 29.4715 10.1026 29.3894 10.1945C29.2605 10.3385 29.157 10.5052 29.0776 10.6479C28.914 10.9419 28.7543 11.3157 28.611 11.6867C28.4241 12.1706 28.2427 12.7086 28.093 13.1809ZM30.1469 13.1861H34.127C34.0113 12.9483 33.8921 12.7114 33.7747 12.4899C33.6043 12.1682 33.4506 11.9035 33.3267 11.721H30.7202C30.6361 11.8905 30.5385 12.1182 30.4332 12.3907C30.3357 12.6431 30.2386 12.9155 30.1469 13.1861ZM41.7693 22.9535C40.1524 20.1379 37.9559 16.1878 37.4481 15.2147C37.4028 15.2028 37.3302 15.1877 37.2205 15.1746C36.9028 15.1365 36.5044 15.1376 35.9801 15.139C35.8756 15.1393 35.766 15.1396 35.6512 15.1396H28.814C28.5891 15.1396 28.3827 15.1377 28.1921 15.1359H28.192C27.708 15.1315 27.3257 15.128 27.0018 15.1587C26.8526 15.1728 26.7558 15.1917 26.6968 15.2076C26.2094 16.1618 24.1098 20.14 22.6219 22.9535H41.7693ZM40.901 31.7442H38.2153C38.2755 31.9907 38.36 32.2372 38.4733 32.4574C38.7297 32.956 39.0581 33.2093 39.5582 33.2093C40.0582 33.2093 40.3866 32.956 40.643 32.4574C40.7563 32.2372 40.8408 31.9907 40.901 31.7442ZM26.2498 31.7442H23.5642C23.6244 31.9907 23.7089 32.2372 23.8221 32.4574C24.0785 32.956 24.407 33.2093 24.907 33.2093C25.407 33.2093 25.7354 32.956 25.9919 32.4574C26.1051 32.2372 26.1896 31.9907 26.2498 31.7442ZM20.7981 24.907C20.7506 25.0254 20.6952 25.207 20.643 25.4654C20.5702 25.8261 20.5169 26.2674 20.4818 26.7606C20.4124 27.7362 20.419 28.8444 20.4585 29.7907H43.5231C43.5726 28.835 43.6042 27.7095 43.5807 26.7144C43.5689 26.2131 43.5433 25.7575 43.5015 25.3797C43.4802 25.1875 43.4562 25.0308 43.4321 24.907H20.7981ZM24.907 28.3256C25.4464 28.3256 25.8837 27.8883 25.8837 27.3488C25.8837 26.8094 25.4464 26.3721 24.907 26.3721C24.3676 26.3721 23.9303 26.8094 23.9303 27.3488C23.9303 27.8883 24.3676 28.3256 24.907 28.3256ZM40.5349 27.3488C40.5349 27.8883 40.0976 28.3256 39.5581 28.3256C39.0187 28.3256 38.5814 27.8883 38.5814 27.3488C38.5814 26.8094 39.0187 26.3721 39.5581 26.3721C40.0976 26.3721 40.5349 26.8094 40.5349 27.3488ZM32.2326 58.1163C32.772 58.1163 33.2093 57.679 33.2093 57.1395C33.2093 56.6001 32.772 56.1628 32.2326 56.1628C31.6931 56.1628 31.2558 56.6001 31.2558 57.1395C31.2558 57.679 31.6931 58.1163 32.2326 58.1163Z" fill="#0C0E12" fill-opacity="0.7"/>
<g filter="url(#filter0_ii_10_116)">
<path d="M79.4651 11L74.4651 35H82.4651L84.4651 24.5L87.9651 33H91.4651L97.9651 24.5L95.9651 35H103.465L108.465 11H101.465L91.4651 23.5L86.4651 11H79.4651Z" fill="#FCD86E"/>
<path d="M111.465 11L106.965 35H114.965L119.965 11H111.465Z" fill="#FCD86E"/>
<path d="M137.465 35H118.465L122.965 11H131.465L127.965 28.5H138.965L137.465 35Z" fill="#FCD86E"/>
<path d="M159.465 35H139.465L143.965 11H163.965L162.465 17H150.965L150.465 20H160.465L159.465 25.5H148.965L148.465 28.5H160.465L159.465 35Z" fill="#FCD86E"/>
</g>
<path d="M79.4651 11L74.4651 35H82.4651L84.4651 24.5L87.9651 33H91.4651L97.9651 24.5L95.9651 35H103.465L108.465 11H101.465L91.4651 23.5L86.4651 11H79.4651Z" stroke="#0C0D11" stroke-width="0.5"/>
<path d="M111.465 11L106.965 35H114.965L119.965 11H111.465Z" stroke="#0C0D11" stroke-width="0.5"/>
<path d="M137.465 35H118.465L122.965 11H131.465L127.965 28.5H138.965L137.465 35Z" stroke="#0C0D11" stroke-width="0.5"/>
<path d="M159.465 35H139.465L143.965 11H163.965L162.465 17H150.965L150.465 20H160.465L159.465 25.5H148.965L148.465 28.5H160.465L159.465 35Z" stroke="#0C0D11" stroke-width="0.5"/>
<g filter="url(#filter1_ii_10_116)">
<ellipse cx="167.892" cy="31.4708" rx="4.86653" ry="4.90719" transform="rotate(24.2 167.892 31.4708)" fill="#FCD86E"/>
</g>
<ellipse cx="167.892" cy="31.4708" rx="4.86653" ry="4.90719" transform="rotate(24.2 167.892 31.4708)" stroke="#0C0D11" stroke-width="0.5"/>
<g filter="url(#filter2_ii_10_116)">
<path d="M180.465 11.5L175.965 35.5H183.965L188.465 11.5H180.465Z" fill="#444442"/>
<path d="M194.965 35.5H187.465L191.965 11.5H198.965L205.965 23L207.965 11.5H215.465L210.965 35.5H204.465L197.465 24.5L194.965 35.5Z" fill="#444442"/>
<path d="M221.965 35.5L216.465 11.5H224.965L227.965 25.5L236.465 11.5H244.673L229.965 35.5H221.965Z" fill="#444442"/>
<path d="M240.465 35.5L245.465 11.5H264.465L263.465 17.5H251.965L251.465 20.5H261.465L260.465 26.5H249.965L249.465 29.5H261.465L260.465 35.5H240.465Z" fill="#444442"/>
<path d="M262.465 33.5L265.465 28C267.965 29 270.965 30 274.465 30C279.465 28.5 272.465 26.5 270.965 26C269.465 25.5 264.465 24 264.965 19C265.465 14 271.465 11 277.465 11C282.265 11 285.465 12.6667 286.465 13.5L283.465 19C283.132 18.3333 281.565 17 277.965 17C273.465 17 271.465 19.5 277.965 20.5C284.465 21.5 284.965 26.5 284.465 29.5C283.965 32.5 280.465 36 273.465 36C267.865 36 263.798 34.3333 262.465 33.5Z" fill="#444442"/>
<path d="M293.465 18L289.965 35.5H297.965L301.465 18H308.965L309.965 11.5H287.965L286.465 18H293.465Z" fill="#444442"/>
</g>
<path d="M180.465 11.5L175.965 35.5H183.965L188.465 11.5H180.465Z" stroke="#0C0D11" stroke-width="0.5"/>
<path d="M194.965 35.5H187.465L191.965 11.5H198.965L205.965 23L207.965 11.5H215.465L210.965 35.5H204.465L197.465 24.5L194.965 35.5Z" stroke="#0C0D11" stroke-width="0.5"/>
<path d="M221.965 35.5L216.465 11.5H224.965L227.965 25.5L236.465 11.5H244.673L229.965 35.5H221.965Z" stroke="#0C0D11" stroke-width="0.5"/>
<path d="M240.465 35.5L245.465 11.5H264.465L263.465 17.5H251.965L251.465 20.5H261.465L260.465 26.5H249.965L249.465 29.5H261.465L260.465 35.5H240.465Z" stroke="#0C0D11" stroke-width="0.5"/>
<path d="M262.465 33.5L265.465 28C267.965 29 270.965 30 274.465 30C279.465 28.5 272.465 26.5 270.965 26C269.465 25.5 264.465 24 264.965 19C265.465 14 271.465 11 277.465 11C282.265 11 285.465 12.6667 286.465 13.5L283.465 19C283.132 18.3333 281.565 17 277.965 17C273.465 17 271.465 19.5 277.965 20.5C284.465 21.5 284.965 26.5 284.465 29.5C283.965 32.5 280.465 36 273.465 36C267.865 36 263.798 34.3333 262.465 33.5Z" stroke="#0C0D11" stroke-width="0.5"/>
<path d="M293.465 18L289.965 35.5H297.965L301.465 18H308.965L309.965 11.5H287.965L286.465 18H293.465Z" stroke="#0C0D11" stroke-width="0.5"/>
<path d="M78.9501 46.036C78.4171 46.0533 77.9621 46.0967 77.5851 46.166C77.2125 46.231 76.907 46.3177 76.6686 46.426C76.4346 46.5343 76.2635 46.6622 76.1551 46.8095C76.0511 46.9568 75.9991 47.1215 75.9991 47.3035C75.9991 47.4768 76.0273 47.6263 76.0836 47.752C76.14 47.8777 76.2158 47.9817 76.3111 48.064C76.4108 48.142 76.5256 48.2005 76.6556 48.2395C76.79 48.2742 76.933 48.2915 77.0846 48.2915C77.2883 48.2915 77.4746 48.272 77.6436 48.233C77.8126 48.1897 77.9708 48.129 78.1181 48.051C78.2698 47.973 78.4128 47.8798 78.5471 47.7715C78.6858 47.6632 78.8201 47.5397 78.9501 47.401V46.036ZM75.2126 43.345C75.5766 42.994 75.9688 42.7318 76.3891 42.5585C76.8095 42.3852 77.2753 42.2985 77.7866 42.2985C78.155 42.2985 78.4821 42.3592 78.7681 42.4805C79.0541 42.6018 79.2946 42.7708 79.4896 42.9875C79.6846 43.2042 79.832 43.4663 79.9316 43.774C80.0313 44.0817 80.0811 44.4197 80.0811 44.788V49H79.5676C79.455 49 79.3683 48.9827 79.3076 48.948C79.247 48.909 79.1993 48.8353 79.1646 48.727L79.0346 48.103C78.8613 48.2633 78.6923 48.4063 78.5276 48.532C78.363 48.6533 78.1896 48.7573 78.0076 48.844C77.8256 48.9263 77.6306 48.9892 77.4226 49.0325C77.219 49.0802 76.9915 49.104 76.7401 49.104C76.4845 49.104 76.244 49.0693 76.0186 49C75.7933 48.9263 75.5961 48.818 75.4271 48.675C75.2625 48.532 75.1303 48.3522 75.0306 48.1355C74.9353 47.9145 74.8876 47.6545 74.8876 47.3555C74.8876 47.0955 74.9591 46.8463 75.1021 46.608C75.2451 46.3653 75.477 46.1508 75.7976 45.9645C76.1183 45.7782 76.5365 45.6265 77.0521 45.5095C77.5678 45.3882 78.2005 45.3188 78.9501 45.3015V44.788C78.9501 44.2767 78.8396 43.891 78.6186 43.631C78.3976 43.3667 78.0748 43.2345 77.6501 43.2345C77.3641 43.2345 77.1236 43.2713 76.9286 43.345C76.738 43.4143 76.5711 43.4945 76.4281 43.5855C76.2895 43.6722 76.1681 43.7523 76.0641 43.826C75.9645 43.8953 75.8648 43.93 75.7651 43.93C75.6871 43.93 75.62 43.9105 75.5636 43.8715C75.5073 43.8282 75.4596 43.7762 75.4206 43.7155L75.2126 43.345ZM84.3721 48.1875C84.8054 48.1875 85.1477 48.0878 85.3991 47.8885C85.6504 47.6848 85.7761 47.4075 85.7761 47.0565C85.7761 46.9005 85.7522 46.7597 85.7046 46.634C85.6569 46.504 85.5789 46.3913 85.4706 46.296C85.3622 46.2007 85.2171 46.127 85.0351 46.075C84.8574 46.023 84.6386 45.997 84.3786 45.997H82.9551V48.1875H84.3721ZM82.9551 43.1955V45.2625H84.2226C84.4132 45.2625 84.5887 45.2365 84.7491 45.1845C84.9137 45.1282 85.0546 45.0523 85.1716 44.957C85.2886 44.8573 85.3796 44.7403 85.4446 44.606C85.5096 44.4673 85.5421 44.3157 85.5421 44.151C85.5421 44.0297 85.5204 43.9127 85.4771 43.8C85.4337 43.683 85.3601 43.5812 85.2561 43.4945C85.1521 43.4035 85.0156 43.332 84.8466 43.28C84.6776 43.2237 84.4696 43.1955 84.2226 43.1955H82.9551ZM84.2551 42.4155C84.6624 42.4155 85.0112 42.4567 85.3016 42.539C85.5919 42.6213 85.8302 42.734 86.0166 42.877C86.2029 43.0157 86.3394 43.1803 86.4261 43.371C86.5127 43.5617 86.5561 43.7653 86.5561 43.982C86.5561 44.125 86.5366 44.2745 86.4976 44.4305C86.4586 44.5865 86.3892 44.736 86.2896 44.879C86.1942 45.022 86.0621 45.152 85.8931 45.269C85.7284 45.3817 85.5204 45.4705 85.2691 45.5355C85.7717 45.6222 86.1596 45.7977 86.4326 46.062C86.7056 46.322 86.8421 46.6665 86.8421 47.0955C86.8421 47.4162 86.7771 47.6957 86.6471 47.934C86.5214 48.168 86.3459 48.3652 86.1206 48.5255C85.8996 48.6858 85.6396 48.805 85.3406 48.883C85.0416 48.961 84.7209 49 84.3786 49H81.8436V42.4155H84.2551ZM93.6642 43.2995H91.1357V49H89.9787V43.2995H87.4502V42.4155H93.6642V43.2995ZM97.2763 42.3115C97.7573 42.3115 98.1906 42.3917 98.5763 42.552C98.962 42.7123 99.2913 42.9398 99.5643 43.2345C99.8373 43.5292 100.045 43.8867 100.188 44.307C100.336 44.723 100.409 45.1888 100.409 45.7045C100.409 46.2245 100.336 46.6925 100.188 47.1085C100.045 47.5245 99.8373 47.8798 99.5643 48.1745C99.2913 48.4692 98.962 48.6967 98.5763 48.857C98.1906 49.013 97.7573 49.091 97.2763 49.091C96.791 49.091 96.3533 49.013 95.9633 48.857C95.5776 48.6967 95.2483 48.4692 94.9753 48.1745C94.7023 47.8798 94.4921 47.5245 94.3448 47.1085C94.2018 46.6925 94.1303 46.2245 94.1303 45.7045C94.1303 45.1888 94.2018 44.723 94.3448 44.307C94.4921 43.8867 94.7023 43.5292 94.9753 43.2345C95.2483 42.9398 95.5776 42.7123 95.9633 42.552C96.3533 42.3917 96.791 42.3115 97.2763 42.3115ZM97.2763 48.1875C97.9263 48.1875 98.4116 47.9708 98.7323 47.5375C99.053 47.0998 99.2133 46.491 99.2133 45.711C99.2133 44.9267 99.053 44.3157 98.7323 43.878C98.4116 43.4403 97.9263 43.2215 97.2763 43.2215C96.947 43.2215 96.6588 43.2778 96.4118 43.3905C96.1691 43.5032 95.9655 43.6657 95.8008 43.878C95.6405 44.0903 95.5191 44.3525 95.4368 44.6645C95.3588 44.9722 95.3198 45.321 95.3198 45.711C95.3198 46.491 95.4801 47.0998 95.8008 47.5375C96.1258 47.9708 96.6176 48.1875 97.2763 48.1875ZM107.525 42.4155V49H106.368V44.528C106.368 44.4413 106.373 44.3482 106.381 44.2485C106.39 44.1488 106.401 44.0492 106.414 43.9495C106.375 44.0362 106.336 44.1163 106.297 44.19C106.258 44.2637 106.217 44.3308 106.173 44.3915L102.995 48.714C102.947 48.7833 102.886 48.8505 102.813 48.9155C102.743 48.9762 102.665 49.0065 102.579 49.0065H101.877V42.422H103.04V46.894C103.04 46.9763 103.036 47.0673 103.027 47.167C103.019 47.2623 103.008 47.3598 102.995 47.4595C103.034 47.3772 103.073 47.3013 103.112 47.232C103.151 47.1583 103.19 47.0912 103.229 47.0305L106.407 42.708C106.455 42.6387 106.516 42.5737 106.589 42.513C106.663 42.448 106.743 42.4155 106.83 42.4155H107.525ZM114.84 42.4155V49H113.677V45.919H110.518V49H109.354V42.4155H110.518V45.0415H113.677V42.4155H114.84ZM119.208 48.1875C119.641 48.1875 119.984 48.0878 120.235 47.8885C120.486 47.6848 120.612 47.4075 120.612 47.0565C120.612 46.9005 120.588 46.7597 120.541 46.634C120.493 46.504 120.415 46.3913 120.307 46.296C120.198 46.2007 120.053 46.127 119.871 46.075C119.693 46.023 119.475 45.997 119.215 45.997H117.791V48.1875H119.208ZM117.791 43.1955V45.2625H119.059C119.249 45.2625 119.425 45.2365 119.585 45.1845C119.75 45.1282 119.891 45.0523 120.008 44.957C120.125 44.8573 120.216 44.7403 120.281 44.606C120.346 44.4673 120.378 44.3157 120.378 44.151C120.378 44.0297 120.356 43.9127 120.313 43.8C120.27 43.683 120.196 43.5812 120.092 43.4945C119.988 43.4035 119.852 43.332 119.683 43.28C119.514 43.2237 119.306 43.1955 119.059 43.1955H117.791ZM119.091 42.4155C119.498 42.4155 119.847 42.4567 120.138 42.539C120.428 42.6213 120.666 42.734 120.853 42.877C121.039 43.0157 121.175 43.1803 121.262 43.371C121.349 43.5617 121.392 43.7653 121.392 43.982C121.392 44.125 121.373 44.2745 121.334 44.4305C121.295 44.5865 121.225 44.736 121.126 44.879C121.03 45.022 120.898 45.152 120.729 45.269C120.564 45.3817 120.356 45.4705 120.105 45.5355C120.608 45.6222 120.996 45.7977 121.269 46.062C121.542 46.322 121.678 46.6665 121.678 47.0955C121.678 47.4162 121.613 47.6957 121.483 47.934C121.357 48.168 121.182 48.3652 120.957 48.5255C120.736 48.6858 120.476 48.805 120.177 48.883C119.878 48.961 119.557 49 119.215 49H116.68V42.4155H119.091ZM127.536 44.9895C127.536 44.7208 127.497 44.476 127.419 44.255C127.345 44.0297 127.235 43.8368 127.087 43.6765C126.944 43.5118 126.769 43.3862 126.561 43.2995C126.353 43.2085 126.117 43.163 125.852 43.163C125.298 43.163 124.858 43.3255 124.533 43.6505C124.212 43.9712 124.013 44.4175 123.935 44.9895H127.536ZM128.472 48.077C128.329 48.2503 128.158 48.402 127.958 48.532C127.759 48.6577 127.544 48.7617 127.315 48.844C127.089 48.9263 126.855 48.987 126.613 49.026C126.37 49.0693 126.13 49.091 125.891 49.091C125.436 49.091 125.016 49.0152 124.63 48.8635C124.249 48.7075 123.917 48.4822 123.636 48.1875C123.358 47.8885 123.142 47.5202 122.986 47.0825C122.83 46.6448 122.752 46.1422 122.752 45.5745C122.752 45.1152 122.821 44.6862 122.96 44.2875C123.103 43.8888 123.306 43.5443 123.571 43.254C123.835 42.9593 124.158 42.7297 124.539 42.565C124.921 42.396 125.35 42.3115 125.826 42.3115C126.221 42.3115 126.585 42.3787 126.918 42.513C127.256 42.643 127.547 42.8337 127.789 43.085C128.036 43.332 128.229 43.6397 128.368 44.008C128.506 44.372 128.576 44.788 128.576 45.256C128.576 45.438 128.556 45.5593 128.517 45.62C128.478 45.6807 128.405 45.711 128.296 45.711H123.896C123.909 46.127 123.965 46.4888 124.065 46.7965C124.169 47.1042 124.312 47.362 124.494 47.57C124.676 47.7737 124.892 47.9275 125.144 48.0315C125.395 48.1312 125.677 48.181 125.989 48.181C126.279 48.181 126.528 48.1485 126.736 48.0835C126.949 48.0142 127.131 47.9405 127.282 47.8625C127.434 47.7845 127.56 47.713 127.659 47.648C127.763 47.5787 127.852 47.544 127.926 47.544C128.021 47.544 128.095 47.5808 128.147 47.6545L128.472 48.077ZM134.579 43.5855C134.545 43.6332 134.51 43.67 134.475 43.696C134.441 43.722 134.393 43.735 134.332 43.735C134.267 43.735 134.196 43.709 134.118 43.657C134.04 43.6007 133.942 43.54 133.825 43.475C133.713 43.41 133.572 43.3515 133.403 43.2995C133.238 43.2432 133.035 43.215 132.792 43.215C132.467 43.215 132.181 43.2735 131.934 43.3905C131.687 43.5032 131.479 43.6678 131.31 43.8845C131.145 44.1012 131.02 44.3633 130.933 44.671C130.851 44.9787 130.809 45.3232 130.809 45.7045C130.809 46.1032 130.855 46.4585 130.946 46.7705C131.037 47.0782 131.165 47.3382 131.329 47.5505C131.498 47.7585 131.7 47.9188 131.934 48.0315C132.172 48.1398 132.439 48.194 132.733 48.194C133.015 48.194 133.247 48.1615 133.429 48.0965C133.611 48.0272 133.76 47.9513 133.877 47.869C133.999 47.7867 134.098 47.713 134.176 47.648C134.259 47.5787 134.339 47.544 134.417 47.544C134.512 47.544 134.586 47.5808 134.638 47.6545L134.963 48.077C134.82 48.2547 134.657 48.4063 134.475 48.532C134.293 48.6577 134.096 48.7638 133.884 48.8505C133.676 48.9328 133.457 48.9935 133.227 49.0325C132.998 49.0715 132.764 49.091 132.525 49.091C132.114 49.091 131.73 49.0152 131.375 48.8635C131.024 48.7118 130.718 48.493 130.458 48.207C130.198 47.9167 129.995 47.5613 129.847 47.141C129.7 46.7207 129.626 46.2418 129.626 45.7045C129.626 45.2148 129.694 44.762 129.828 44.346C129.967 43.93 130.166 43.5725 130.426 43.2735C130.69 42.9702 131.013 42.734 131.394 42.565C131.78 42.396 132.222 42.3115 132.72 42.3115C133.184 42.3115 133.591 42.3873 133.942 42.539C134.298 42.6863 134.612 42.8965 134.885 43.1695L134.579 43.5855ZM141.678 43.2995H139.149V49H137.992V43.2995H135.464V42.4155H141.678V43.2995ZM148.43 42.4155V49H147.273V44.528C147.273 44.4413 147.277 44.3482 147.286 44.2485C147.294 44.1488 147.305 44.0492 147.318 43.9495C147.279 44.0362 147.24 44.1163 147.201 44.19C147.162 44.2637 147.121 44.3308 147.078 44.3915L143.899 48.714C143.851 48.7833 143.791 48.8505 143.717 48.9155C143.648 48.9762 143.57 49.0065 143.483 49.0065H142.781V42.422H143.945V46.894C143.945 46.9763 143.94 47.0673 143.932 47.167C143.923 47.2623 143.912 47.3598 143.899 47.4595C143.938 47.3772 143.977 47.3013 144.016 47.232C144.055 47.1583 144.094 47.0912 144.133 47.0305L147.312 42.708C147.359 42.6387 147.42 42.5737 147.494 42.513C147.567 42.448 147.647 42.4155 147.734 42.4155H148.43ZM156.947 48.1225V50.911C156.947 51.0237 156.915 51.1103 156.85 51.171C156.789 51.236 156.709 51.2685 156.609 51.2685H155.901V49H150.259V42.4155H151.422V48.1225H154.581V42.4155H155.745V48.1225H156.947ZM163.766 42.4155V49H162.609V44.528C162.609 44.4413 162.613 44.3482 162.622 44.2485C162.63 44.1488 162.641 44.0492 162.654 43.9495C162.615 44.0362 162.576 44.1163 162.537 44.19C162.498 44.2637 162.457 44.3308 162.414 44.3915L159.235 48.714C159.187 48.7833 159.127 48.8505 159.053 48.9155C158.984 48.9762 158.906 49.0065 158.819 49.0065H158.117V42.422H159.281V46.894C159.281 46.9763 159.276 47.0673 159.268 47.167C159.259 47.2623 159.248 47.3598 159.235 47.4595C159.274 47.3772 159.313 47.3013 159.352 47.232C159.391 47.1583 159.43 47.0912 159.469 47.0305L162.648 42.708C162.695 42.6387 162.756 42.5737 162.83 42.513C162.903 42.448 162.983 42.4155 163.07 42.4155H163.766ZM171.243 42.4155V49H170.086V44.528C170.086 44.4413 170.09 44.3482 170.099 44.2485C170.108 44.1488 170.119 44.0492 170.132 43.9495C170.093 44.0362 170.054 44.1163 170.015 44.19C169.976 44.2637 169.934 44.3308 169.891 44.3915L166.713 48.714C166.665 48.7833 166.604 48.8505 166.531 48.9155C166.461 48.9762 166.383 49.0065 166.297 49.0065H165.595V42.422H166.758V46.894C166.758 46.9763 166.754 47.0673 166.745 47.167C166.736 47.2623 166.726 47.3598 166.713 47.4595C166.752 47.3772 166.791 47.3013 166.83 47.232C166.869 47.1583 166.908 47.0912 166.947 47.0305L170.125 42.708C170.173 42.6387 170.233 42.5737 170.307 42.513C170.381 42.448 170.461 42.4155 170.548 42.4155H171.243Z" fill="#0C0D11"/>
<defs>
<filter id="filter0_ii_10_116" x="73.6577" y="10.25" width="91.1276" height="25.5" filterUnits="userSpaceOnUse" color-interpolation-filters="sRGB">
<feFlood flood-opacity="0" result="BackgroundImageFix"/>
<feBlend mode="normal" in="SourceGraphic" in2="BackgroundImageFix" result="shape"/>
<feColorMatrix in="SourceAlpha" type="matrix" values="0 0 0 0 0 0 0 0 0 0 0 0 0 0 0 0 0 0 127 0" result="hardAlpha"/>
<feOffset dx="-0.5" dy="-1"/>
<feGaussianBlur stdDeviation="0.25"/>
<feComposite in2="hardAlpha" operator="arithmetic" k2="-1" k3="1"/>
<feColorMatrix type="matrix" values="0 0 0 0 0 0 0 0 0 0 0 0 0 0 0 0 0 0 0.25 0"/>
<feBlend mode="normal" in2="shape" result="effect1_innerShadow_10_116"/>
<feColorMatrix in="SourceAlpha" type="matrix" values="0 0 0 0 0 0 0 0 0 0 0 0 0 0 0 0 0 0 127 0" result="hardAlpha"/>
<feOffset dx="0.5" dy="1"/>
<feGaussianBlur stdDeviation="0.25"/>
<feComposite in2="hardAlpha" operator="arithmetic" k2="-1" k3="1"/>
<feColorMatrix type="matrix" values="0 0 0 0 1 0 0 0 0 1 0 0 0 0 1 0 0 0 0.83 0"/>
<feBlend mode="normal" in2="effect1_innerShadow_10_116" result="effect2_innerShadow_10_116"/>
</filter>
<filter id="filter1_ii_10_116" x="162.268" y="25.8191" width="11.2492" height="11.3035" filterUnits="userSpaceOnUse" color-interpolation-filters="sRGB">
<feFlood flood-opacity="0" result="BackgroundImageFix"/>
<feBlend mode="normal" in="SourceGraphic" in2="BackgroundImageFix" result="shape"/>
<feColorMatrix in="SourceAlpha" type="matrix" values="0 0 0 0 0 0 0 0 0 0 0 0 0 0 0 0 0 0 127 0" result="hardAlpha"/>
<feOffset dx="-0.5" dy="-1"/>
<feGaussianBlur stdDeviation="0.25"/>
<feComposite in2="hardAlpha" operator="arithmetic" k2="-1" k3="1"/>
<feColorMatrix type="matrix" values="0 0 0 0 0 0 0 0 0 0 0 0 0 0 0 0 0 0 0.25 0"/>
<feBlend mode="normal" in2="shape" result="effect1_innerShadow_10_116"/>
<feColorMatrix in="SourceAlpha" type="matrix" values="0 0 0 0 0 0 0 0 0 0 0 0 0 0 0 0 0 0 127 0" result="hardAlpha"/>
<feOffset dx="0.5" dy="1"/>
<feGaussianBlur stdDeviation="0.25"/>
<feComposite in2="hardAlpha" operator="arithmetic" k2="-1" k3="1"/>
<feColorMatrix type="matrix" values="0 0 0 0 1 0 0 0 0 1 0 0 0 0 1 0 0 0 0.83 0"/>
<feBlend mode="normal" in2="effect1_innerShadow_10_116" result="effect2_innerShadow_10_116"/>
</filter>
<filter id="filter2_ii_10_116" x="175.164" y="10.25" width="135.593" height="26.5" filterUnits="userSpaceOnUse" color-interpolation-filters="sRGB">
<feFlood flood-opacity="0" result="BackgroundImageFix"/>
<feBlend mode="normal" in="SourceGraphic" in2="BackgroundImageFix" result="shape"/>
<feColorMatrix in="SourceAlpha" type="matrix" values="0 0 0 0 0 0 0 0 0 0 0 0 0 0 0 0 0 0 127 0" result="hardAlpha"/>
<feOffset dx="-0.5" dy="-1"/>
<feGaussianBlur stdDeviation="0.25"/>
<feComposite in2="hardAlpha" operator="arithmetic" k2="-1" k3="1"/>
<feColorMatrix type="matrix" values="0 0 0 0 0 0 0 0 0 0 0 0 0 0 0 0 0 0 0.25 0"/>
<feBlend mode="normal" in2="shape" result="effect1_innerShadow_10_116"/>
<feColorMatrix in="SourceAlpha" type="matrix" values="0 0 0 0 0 0 0 0 0 0 0 0 0 0 0 0 0 0 127 0" result="hardAlpha"/>
<feOffset dx="0.5" dy="1"/>
<feGaussianBlur stdDeviation="0.25"/>
<feComposite in2="hardAlpha" operator="arithmetic" k2="-1" k3="1"/>
<feColorMatrix type="matrix" values="0 0 0 0 1 0 0 0 0 1 0 0 0 0 1 0 0 0 0.83 0"/>
<feBlend mode="normal" in2="effect1_innerShadow_10_116" result="effect2_innerShadow_10_116"/>
</filter>
</defs>
</svg>
