<?xml version="1.0" encoding="utf-8"?><svg viewBox="0 0 25 26" xmlns="http://www.w3.org/2000/svg" xmlns:xlink="http://www.w3.org/1999/xlink"><style>:root>svg{display:none}:root>svg:target{display:block}</style><svg viewBox="0 0 16 26" id="arrow-next" xmlns="http://www.w3.org/2000/svg"><path d="M3 3l10 10L3 23"/></svg><svg viewBox="0 0 16 26" id="arrow-prev" xmlns="http://www.w3.org/2000/svg"><path d="M13 23L3 13 13 3"/></svg><svg viewBox="0 0 25 25" id="telegram" xmlns="http://www.w3.org/2000/svg"><path d="M12.965 2.5c-5.52 0-10 4.48-10 10s4.48 10 10 10 10-4.48 10-10-4.48-10-10-10zm4.64 6.8c-.15 1.58-.8 5.42-1.13 7.19-.14.75-.42 1-.68 1.03-.58.05-1.02-.38-1.58-.75-.88-.58-1.38-.94-2.23-1.5-.99-.65-.35-1.01.22-1.59.15-.15 2.71-2.48 2.76-2.69a.2.2 0 00-.05-.18c-.06-.05-.14-.03-.21-.02-.09.02-1.49.95-4.22 2.79-.4.27-.76.41-1.08.4-.36-.01-1.04-.2-1.55-.37-.63-.2-1.12-.31-1.08-.66.02-.18.27-.36.74-.55 2.92-1.27 4.86-2.11 5.83-2.51 2.78-1.16 3.35-1.36 3.73-1.36.08 0 .27.02.39.12.1.08.13.19.14.27-.01.06.01.24 0 .38z"/></svg><svg viewBox="0 0 25 25" id="viber" xmlns="http://www.w3.org/2000/svg"><g clip-path="url(#dclip0_1_52)"><path fill-rule="evenodd" clip-rule="evenodd" d="M10.33 3.608a56.093 56.093 0 016.27 0l.632.036.582.042c.932.08 1.682.219 2.384.597a5.312 5.312 0 012.035 2.04c.415.774.538 1.593.61 2.639l.053.91a40.227 40.227 0 010 4.256l-.053.91c-.072 1.047-.195 1.865-.61 2.639a5.31 5.31 0 01-2.035 2.04c-.843.454-1.754.563-2.966.639l-.632.037c-1.044.065-2.09.1-3.135.107l-1.634.005c-.165 0-.332-.002-.499-.005l-.5-.012-2.242 1.793a1 1 0 01-1.617-.654l-.008-.127v-1.666a4.223 4.223 0 01-.233-.117 5.31 5.31 0 01-2.035-2.04c-.414-.774-.538-1.592-.61-2.638l-.036-.595-.017-.316a40.051 40.051 0 010-4.256l.053-.91c.072-1.046.196-1.865.61-2.638a5.31 5.31 0 012.035-2.04c.772-.417 1.603-.544 2.67-.62l.605-.038.323-.018zm-.4 3.777c-.977.419-1.813 1.478-1.772 2.58l.01.162.018.195c.004.035.008.07.014.108l.038.24c.18.974.726 2.555 2.365 4.193 1.638 1.639 3.22 2.186 4.193 2.365l.24.038.21.025.254.017c1.101.04 2.16-.79 2.58-1.767a.736.736 0 00-.096-.742c-.433-.556-.982-.993-1.552-1.4l-.573-.4a.75.75 0 00-1.028.166l-.635.967a.242.242 0 01-.322.08c-.43-.245-1.056-.663-1.506-1.114-.45-.45-.843-1.048-1.064-1.45a.24.24 0 01.07-.308l.976-.724a.752.752 0 00.128-.993l-.33-.485c-.4-.586-.874-1.22-1.495-1.674a.735.735 0 00-.723-.079zm4.628 2.002a1 1 0 00-.666 1.886c.113.04.208.12.268.224l.037.081a1 1 0 101.886-.666 2.505 2.505 0 00-1.525-1.525zm-.276-2.22a.999.999 0 00.61 1.276 3.513 3.513 0 012.134 2.134 1 1 0 101.886-.666 5.513 5.513 0 00-3.354-3.354 1 1 0 00-1.276.61z"/></g><defs><clipPath id="dclip0_1_52"><path transform="translate(.965 .5)" d="M0 0h24v24H0z"/></clipPath></defs></svg><svg viewBox="0 0 25 25" id="whatsapp" xmlns="http://www.w3.org/2000/svg"><g clip-path="url(#eclip0_1_56)"><path fill-rule="evenodd" clip-rule="evenodd" d="M12.965 2.5c-5.523 0-10 4.477-10 10 0 1.89.525 3.66 1.438 5.168L3.511 20.7a1.01 1.01 0 001.254 1.254l3.032-.892a9.957 9.957 0 005.168 1.438c5.523 0 10-4.477 10-10s-4.477-10-10-10zm-2.262 12.263c2.023 2.022 3.954 2.289 4.636 2.314 1.037.038 2.047-.754 2.44-1.673a.695.695 0 00-.088-.703c-.548-.7-1.289-1.203-2.013-1.703a.711.711 0 00-.973.158l-.6.915a.229.229 0 01-.305.076c-.407-.233-1-.629-1.426-1.055-.426-.426-.798-.992-1.007-1.373a.227.227 0 01.067-.291l.924-.686a.712.712 0 00.12-.94c-.448-.656-.97-1.49-1.727-2.043a.694.694 0 00-.684-.075c-.92.394-1.716 1.404-1.678 2.443.025.682.292 2.613 2.314 4.636z"/></g><defs><clipPath id="eclip0_1_56"><path transform="translate(.965 .5)" d="M0 0h24v24H0z"/></clipPath></defs></svg></svg>