<svg width="90" height="71" viewBox="0 0 90 71" fill="none" xmlns="http://www.w3.org/2000/svg">
<rect x="14" y="4" width="64" height="62" fill="white"/>
<path d="M86.492 6.0518C83.2433 1.75337 77.2453 0 65.7903 0H24.2088C12.4917 0 6.39203 1.86647 3.15552 6.4428C0 10.9047 0 17.4791 0 26.5781V43.9208C0 61.5485 3.744 70.4985 24.2088 70.4985H65.7906C75.7243 70.4985 81.2288 68.9513 84.7899 65.158C88.4418 61.268 90 54.9166 90 43.9208V26.5781C90 16.9824 89.7558 10.3693 86.492 6.0518ZM57.7803 37.6437L38.8983 48.6277C38.4762 48.8732 38.0145 48.9951 37.5535 48.9951C37.0315 48.9951 36.5107 48.8387 36.0494 48.5278C35.1807 47.9419 34.6503 46.894 34.6503 45.7636V23.8663C34.6503 22.7379 35.1793 21.6909 36.0462 21.1047C36.9134 20.5185 37.9919 20.4785 38.8916 20.9987L57.7736 31.9119C58.7343 32.467 59.3376 33.5709 59.339 34.7752C59.3402 35.9805 58.7395 37.086 57.7803 37.6437Z" fill="#EB0204"/>
</svg>
