<svg width="469" height="450" viewBox="0 0 469 450" fill="none" xmlns="http://www.w3.org/2000/svg">
<path d="M199.84 356H230.16C230.758 355.988 231.337 355.788 231.815 355.43C232.294 355.071 232.647 354.571 232.826 354C232.647 353.429 232.294 352.929 231.815 352.57C231.337 352.212 230.758 352.012 230.16 352H199.84C199.242 352.012 198.663 352.212 198.185 352.57C197.706 352.929 197.353 353.429 197.174 354C197.353 354.571 197.706 355.071 198.185 355.43C198.663 355.788 199.242 355.988 199.84 356ZM199.84 350H230.16C230.758 349.988 231.337 349.788 231.815 349.43C232.294 349.071 232.647 348.571 232.826 348C232.647 347.429 232.294 346.929 231.815 346.57C231.337 346.212 230.758 346.012 230.16 346H199.84C199.242 346.012 198.663 346.212 198.185 346.57C197.706 346.929 197.353 347.429 197.174 348C197.353 348.571 197.706 349.071 198.185 349.43C198.663 349.788 199.242 349.988 199.84 350Z" fill="#A80132"/>
<path d="M195.676 328.54C195.826 328.642 195.984 328.74 196.158 328.844L196.382 328.968C196.582 329.072 196.782 329.168 197.004 329.278L197.204 329.372C198.814 330.044 200.49 330.547 202.204 330.872L202.276 330.886C202.796 330.992 203.338 331.086 203.906 331.186C207.576 331.756 211.286 332.028 215 332C226.04 332 233 330 235 328C235 328 231 324 215 324C199 324 195 328 195 328C195.157 328.152 195.324 328.292 195.5 328.42C195.554 328.46 195.618 328.5 195.676 328.54Z" fill="#DE8800"/>
<path d="M197.2 329.372C197.132 329.343 197.066 329.312 197 329.278L197.2 329.372ZM203.908 331.186L204.6 333.6C205.29 336.019 206.749 338.148 208.757 339.664C210.765 341.18 213.212 342 215.728 342H224.458C226.91 341.99 229.28 341.119 231.154 339.538L235 328C233 330 226.04 332 215 332C211.287 332.028 207.577 331.756 203.908 331.186ZM225.12 358H213.016C204.914 362.586 198.213 369.29 193.63 377.393C189.047 385.496 186.755 394.694 187 404C187 442 265 436 265 418C265 403.52 247.88 366.96 225.12 358Z" fill="#FFC608"/>
<path d="M203.908 331.186C203.34 331.094 202.798 330.986 202.278 330.886C202.8 331 203.34 331.094 203.908 331.186Z" fill="#F09413"/>
<path d="M277 372L270.34 375.34L267 382L263.66 375.34L257 372L263.66 368.66L267 362L270.34 368.66L277 372ZM173 348L166.34 351.34L163 358L159.66 351.34L153 348L159.66 344.66L163 338L166.34 344.66L173 348Z" fill="#FF9C00"/>
<path d="M233.48 401.5C233.162 402.295 232.999 403.144 233 404V432.06C231.02 432.12 229.02 432.12 227 432.02V410C227 406.68 229.48 403.68 233.48 401.5Z" fill="#F09413"/>
<path d="M232.826 354C232.647 353.429 232.294 352.929 231.815 352.57C231.337 352.212 230.758 352.012 230.16 352C230.934 351.977 231.668 351.649 232.2 351.087C232.732 350.524 233.02 349.774 233 349C232.997 348.659 232.938 348.322 232.826 348C232.647 347.429 232.294 346.929 231.815 346.57C231.337 346.212 230.758 346.012 230.16 346H199.84C199.242 346.012 198.663 346.212 198.185 346.57C197.706 346.929 197.353 347.429 197.174 348C197.062 348.322 197.003 348.659 197 349C196.98 349.774 197.268 350.524 197.8 351.087C198.332 351.649 199.066 351.977 199.84 352C199.242 352.012 198.663 352.212 198.185 352.57C197.706 352.929 197.353 353.429 197.174 354C197.062 354.322 197.003 354.659 197 355C196.98 355.774 197.268 356.524 197.8 357.087C198.332 357.649 199.066 357.977 199.84 358H230.16C230.934 357.977 231.668 357.649 232.2 357.087C232.732 356.524 233.02 355.774 233 355C232.997 354.659 232.938 354.322 232.826 354Z" fill="#A80132"/>
<path d="M231.066 330.024C225.852 328.499 220.429 327.816 215 328C209.571 327.816 204.148 328.499 198.934 330.024C204.161 331.48 209.576 332.146 215 332C220.424 332.146 225.839 331.48 231.066 330.024Z" fill="#C97C10"/>
<path d="M227.32 352H230.16C230.934 351.977 231.668 351.649 232.2 351.087C232.732 350.524 233.02 349.774 233 349C232.997 348.659 232.938 348.322 232.826 348C232.647 348.571 232.294 349.071 231.815 349.43C231.337 349.788 230.758 349.988 230.16 350H199.84C199.242 349.988 198.663 349.788 198.185 349.43C197.706 349.071 197.353 348.571 197.174 348C197.062 348.322 197.003 348.659 197 349C196.98 349.774 197.268 350.524 197.8 351.087C198.332 351.649 199.066 351.977 199.84 352H227.32ZM225.12 358H230.16C230.934 357.977 231.668 357.649 232.2 357.087C232.732 356.524 233.02 355.774 233 355C232.997 354.659 232.938 354.322 232.826 354C232.647 354.571 232.294 355.071 231.815 355.43C231.337 355.788 230.758 355.988 230.16 356H199.84C199.242 355.988 198.663 355.788 198.185 355.43C197.706 355.071 197.353 354.571 197.174 354C197.062 354.322 197.003 354.659 197 355C196.98 355.774 197.268 356.524 197.8 357.087C198.332 357.649 199.066 357.977 199.84 358H225.12Z" fill="#7D0126"/>
<path d="M227.32 346H229L231.154 339.538C229.28 341.119 226.91 341.99 224.458 342H215.728C213.212 342 210.765 341.18 208.757 339.664C206.749 338.148 205.29 336.019 204.6 333.6L203.908 331.18C203.34 331.088 202.798 330.98 202.278 330.88L202.2 330.872C200.486 330.547 198.81 330.044 197.2 329.372C197.132 329.343 197.066 329.312 197 329.278C196.788 329.184 196.581 329.08 196.378 328.968L196.154 328.844C195.98 328.744 195.822 328.644 195.672 328.54C195.614 328.5 195.55 328.46 195.496 328.42C195.321 328.292 195.155 328.152 195 328L201 346H227.32Z" fill="#F09413"/>
<path d="M187 404C186.755 394.694 189.047 385.496 193.63 377.393C198.213 369.29 204.914 362.586 213.016 358H204.88C182.12 366.96 165 403.52 165 418C165 434.56 187.38 448 215 448C242.62 448 265 434.56 265 418C265 436 187 442 187 404Z" fill="#FF9C00"/>
<path d="M239 338C238.604 338 238.218 337.883 237.889 337.663C237.56 337.443 237.304 337.131 237.153 336.765C237.001 336.4 236.962 335.998 237.039 335.61C237.116 335.222 237.306 334.866 237.586 334.586L249.586 322.586C249.963 322.222 250.468 322.02 250.993 322.025C251.517 322.029 252.019 322.24 252.39 322.61C252.76 322.981 252.971 323.483 252.975 324.007C252.98 324.532 252.778 325.037 252.414 325.414L240.414 337.414C240.039 337.789 239.53 338 239 338ZM239 350C238.571 350.001 238.152 349.863 237.807 349.607C237.462 349.352 237.208 348.992 237.084 348.581C236.959 348.17 236.97 347.73 237.115 347.325C237.26 346.921 237.531 346.574 237.888 346.336L261.888 330.336C262.107 330.19 262.352 330.089 262.609 330.038C262.867 329.987 263.132 329.987 263.39 330.038C263.647 330.09 263.892 330.192 264.111 330.338C264.329 330.484 264.516 330.671 264.662 330.89C264.808 331.109 264.909 331.354 264.96 331.611C265.011 331.869 265.011 332.134 264.96 332.392C264.908 332.649 264.806 332.894 264.66 333.113C264.514 333.331 264.327 333.518 264.108 333.664L240.108 349.664C239.78 349.883 239.394 350 239 350ZM191 338C190.47 338 189.961 337.789 189.586 337.414L177.586 325.414C177.222 325.037 177.02 324.532 177.025 324.007C177.029 323.483 177.24 322.981 177.61 322.61C177.981 322.24 178.483 322.029 179.007 322.025C179.532 322.02 180.037 322.222 180.414 322.586L192.414 334.586C192.694 334.866 192.884 335.222 192.961 335.61C193.038 335.998 192.999 336.4 192.847 336.765C192.696 337.131 192.44 337.443 192.111 337.663C191.782 337.883 191.395 338 191 338ZM191 350C190.606 350 190.22 349.883 189.892 349.664L165.892 333.664C165.451 333.37 165.144 332.912 165.04 332.392C164.989 332.134 164.989 331.869 165.04 331.611C165.091 331.354 165.192 331.109 165.338 330.89C165.484 330.671 165.671 330.484 165.889 330.338C166.108 330.192 166.353 330.09 166.61 330.038C167.13 329.935 167.671 330.042 168.112 330.336L192.112 346.336C192.469 346.574 192.74 346.921 192.885 347.325C193.03 347.73 193.041 348.17 192.916 348.581C192.792 348.992 192.538 349.352 192.193 349.607C191.848 349.863 191.429 350.001 191 350Z" fill="#FFC608"/>
<path d="M223.112 403.82L217 400.764V384H221V386H225V382C225 381.47 224.789 380.961 224.414 380.586C224.039 380.211 223.53 380 223 380H217V376H213V380H211.652C209.252 380 206.923 380.81 205.041 382.299C203.159 383.788 201.835 385.869 201.284 388.205C200.732 390.54 200.986 392.994 202.003 395.167C203.02 397.341 204.741 399.107 206.888 400.18L213 403.236V420H205V418H201V422C201 422.53 201.211 423.039 201.586 423.414C201.961 423.789 202.47 424 203 424H213V428H217V424H218.348C220.748 424 223.077 423.19 224.959 421.701C226.841 420.212 228.165 418.131 228.716 415.795C229.268 413.46 229.014 411.006 227.997 408.833C226.98 406.659 225.259 404.893 223.112 403.82ZM208.676 396.6C207.337 395.929 206.263 394.826 205.628 393.469C204.994 392.112 204.836 390.581 205.18 389.123C205.525 387.665 206.351 386.366 207.526 385.436C208.7 384.507 210.154 384.001 211.652 384H213V398.764L208.676 396.6ZM218.348 420H217V405.236L221.324 407.4C222.663 408.071 223.737 409.174 224.372 410.531C225.006 411.888 225.164 413.419 224.82 414.877C224.475 416.335 223.649 417.634 222.474 418.564C221.3 419.493 219.846 419.999 218.348 420Z" fill="#FFDF75"/>
<path d="M217 424V425.934C218.519 425.842 220.001 425.423 221.343 424.706C222.686 423.989 223.858 422.991 224.78 421.78C222.94 423.211 220.678 423.991 218.348 424H217ZM213 424H203C202.47 424 201.961 423.789 201.586 423.414C201.211 423.039 201 422.53 201 422V420H199V424C199 424.53 199.211 425.039 199.586 425.414C199.961 425.789 200.47 426 201 426H211V430H215V428H213V424ZM221 384H217V386H219V388H223V386H221V384ZM213 380V378H211V380.066C211.22 380.052 211.428 380 211.652 380H213ZM213 403.236L206.888 400.18C205.483 399.486 204.25 398.487 203.278 397.258C202.306 396.028 201.619 394.598 201.268 393.07C200.917 391.542 200.91 389.956 201.248 388.425C201.585 386.895 202.259 385.458 203.22 384.22C201.777 385.308 200.635 386.747 199.905 388.4C199.174 390.053 198.878 391.865 199.045 393.665C199.213 395.465 199.837 397.192 200.86 398.682C201.882 400.172 203.269 401.377 204.888 402.18L211 405.236V420H213V403.236ZM206.066 387.066C207.134 386.372 208.379 386.002 209.652 386H211V397.764L213 398.764V384H211.652C210.539 384.002 209.444 384.284 208.467 384.82C207.491 385.355 206.666 386.128 206.066 387.066ZM225 413.348C225.004 412.112 224.662 410.9 224.012 409.849C223.362 408.797 222.431 407.949 221.324 407.4L217 405.236V408.236L219.324 409.398C220.159 409.814 220.897 410.402 221.489 411.124C222.081 411.845 222.514 412.683 222.759 413.584C223.005 414.484 223.057 415.426 222.913 416.348C222.769 417.27 222.432 418.151 221.924 418.934C222.864 418.336 223.638 417.51 224.176 416.534C224.714 415.558 224.997 414.462 225 413.348Z" fill="#FFAA00"/>
<path d="M233 436V404C232.999 403.144 233.162 402.295 233.48 401.5C229.48 403.68 227 406.68 227 410V442C227.04 443.771 227.69 445.473 228.84 446.82C232.322 446.245 235.752 445.396 239.1 444.28C235.32 442.14 233 439.22 233 436Z" fill="#FF9C00"/>
<path d="M227.4 407.728C227.138 408.457 227.003 409.225 227 410V419.516C228.227 417.812 228.92 415.781 228.991 413.683C229.062 411.584 228.508 409.512 227.4 407.728Z" fill="#FFC052"/>
<path d="M277 428V436C277 442.62 267.16 448 255 448C242.84 448 233 442.62 233 436V428C233 434.62 242.84 440 255 440C267.16 440 277 434.62 277 428Z" fill="#FFCB52"/>
<path d="M277 412V420C277 426.62 267.16 432 255 432C242.84 432 233 426.62 233 420V412C233 418.62 242.84 424 255 424C267.16 424 277 418.62 277 412Z" fill="#FFCB52"/>
<path d="M277 420V428C277 434.62 267.16 440 255 440C242.84 440 233 434.62 233 428V420C233 426.62 242.84 432 255 432C267.16 432 277 426.62 277 420Z" fill="#F09413"/>
<path d="M277 404V412C277 418.62 267.16 424 255 424C242.84 424 233 418.62 233 412V404C233 410.62 242.84 416 255 416C267.16 416 277 410.62 277 404Z" fill="#F09413"/>
<path d="M277 404C277 410.62 267.16 416 255 416C242.84 416 233 410.62 233 404C233 397.38 242.84 392 255 392C267.16 392 277 397.38 277 404ZM269 404C269 400.68 262.74 398 255 398C247.26 398 241 400.68 241 404C241 407.32 247.26 410 255 410C262.74 410 269 407.32 269 404Z" fill="#FFC052"/>
<path d="M255 410C262.732 410 269 407.314 269 404C269 400.686 262.732 398 255 398C247.268 398 241 400.686 241 404C241 407.314 247.268 410 255 410Z" fill="#FFDF75"/>
<path d="M269 404C269.003 404.344 268.935 404.684 268.8 405C267.7 402.16 261.94 400 255 400C248.06 400 242.3 402.16 241.2 405C241.065 404.684 240.997 404.344 241 404C241 400.68 247.26 398 255 398C262.74 398 269 400.68 269 404Z" fill="#C97C10"/>
<path d="M277 408V412C277 418.62 267.16 424 255 424C250.193 424.072 245.425 423.138 241 421.26C236.12 419.06 233 415.72 233 412V404C233 407.72 236.12 411.06 241 413.26C240.994 414.497 241.394 415.702 242.138 416.69C242.882 417.678 243.929 418.394 245.12 418.73C248.342 419.589 251.665 420.016 255 420C267.16 420 277 414.62 277 408Z" fill="#DE8800"/>
<path d="M277 416V420C277 426.62 267.16 432 255 432C250.193 432.072 245.425 431.138 241 429.26C236.12 427.06 233 423.72 233 420V412C233 415.72 236.12 419.06 241 421.26C240.994 422.497 241.394 423.702 242.138 424.69C242.882 425.678 243.929 426.394 245.12 426.73C248.342 427.589 251.665 428.016 255 428C267.16 428 277 422.62 277 416Z" fill="#DE8800"/>
<path d="M277 424V428C277 434.62 267.16 440 255 440C250.193 440.072 245.425 439.138 241 437.26C236.12 435.06 233 431.72 233 428V420C233 423.72 236.12 427.06 241 429.26C240.994 430.497 241.394 431.702 242.138 432.69C242.882 433.678 243.929 434.394 245.12 434.73C248.342 435.589 251.665 436.016 255 436C267.16 436 277 430.62 277 424Z" fill="#DE8800"/>
<path d="M277 432V436C277 442.62 267.16 448 255 448C250.193 448.072 245.425 447.138 241 445.26C236.12 443.06 233 439.72 233 436V428C233 431.72 236.12 435.06 241 437.26C240.994 438.497 241.394 439.702 242.138 440.69C242.882 441.678 243.929 442.394 245.12 442.73C248.342 443.589 251.665 444.016 255 444C267.16 444 277 438.62 277 432Z" fill="#DE8800"/>
<path d="M51.8932 89.7086L39.8307 81.2221C38.0564 76.7866 35.0992 72.8454 31.7507 70.9116C26.3219 67.7769 21.9217 71.1041 21.9217 78.3414C21.9217 85.5796 26.3219 93.9879 31.7507 97.1216C34.3239 98.6069 36.6647 98.6391 38.4167 97.4926L51.8932 89.7086ZM112.406 124.493L100.071 115.815C98.2849 111.491 95.3824 107.669 92.1012 105.775C86.6737 102.641 82.2732 105.968 82.2732 113.206C82.2732 120.443 86.6734 128.851 92.1012 131.985C94.5242 133.383 96.7399 133.493 98.4537 132.544L98.4529 132.551L112.406 124.493Z" fill="#23292E"/>
<path d="M146.929 91.5113L146.928 91.5103C146.641 90.3758 146.302 89.2548 145.913 88.1508V88.0621L128.583 72.8931L117.155 53.4742C114.346 48.7015 110.352 44.7354 105.56 41.9604L89.0601 32.405C81.5191 28.0377 72.3121 28.114 64.9196 32.366L64.9109 32.357L35.8659 49.1422C33.5557 50.0389 31.3975 51.2863 29.4672 52.8404H29.4662L24.6797 61.5179C23.1397 62.4068 21.8848 63.7161 21.062 65.2924C20.2392 66.8688 19.8826 68.6469 20.034 70.4186L20.5545 76.5251C20.6774 77.9691 21.1467 79.362 21.9228 80.5859C22.6988 81.8098 23.7586 82.8284 25.0122 83.5554L89.9243 121.193C101.04 127.637 114.646 127.84 125.905 121.861C126.059 121.781 126.212 121.698 126.364 121.613C126.837 121.354 127.305 121.086 127.766 120.807L139.303 114.139C142.936 112.041 145.749 108.642 147.11 104.67C148.58 100.373 148.02 95.8316 146.929 91.5113Z" fill="#FFD613"/>
<path d="M146.929 91.5114L146.928 91.5104C146.634 90.3453 146.285 89.1947 145.883 88.0621L142.634 95.7291C141.465 98.4899 139.609 100.906 137.244 102.75C134.212 105.113 130.38 106.447 126.536 106.473L114.401 106.558C114.401 106.558 114.301 106.696 114.13 106.953L96.2378 91.2446L84.8091 71.8257C82.0002 67.0527 78.0059 63.0864 73.2134 60.3112L56.7134 50.7555C48.0739 45.7525 37.2459 46.5805 29.4664 52.8405L24.6797 61.5172C23.1399 62.4062 21.8852 63.7155 21.0624 65.2918C20.2397 66.868 19.8829 68.646 20.034 70.4177L20.5545 76.5252C20.6774 77.9691 21.1469 79.362 21.9229 80.5858C22.699 81.8096 23.7588 82.8282 25.0124 83.5551L89.9243 121.193C101.04 127.637 114.646 127.84 125.904 121.861C126.059 121.781 126.213 121.698 126.365 121.612C126.836 121.355 127.302 121.087 127.762 120.809L139.303 114.14C142.936 112.041 145.749 108.642 147.109 104.67C148.58 100.373 148.02 95.8316 146.929 91.5114H146.929Z" fill="#C98000"/>
<path d="M97.8706 89.7144L126.357 73.3034L114.118 53.8424C113.753 53.2628 113.178 52.8472 112.513 52.683C111.848 52.5189 111.146 52.6191 110.553 52.9624L88.0494 65.9987C86.6149 66.8297 86.1118 68.6587 86.9206 70.1062L97.8706 89.7144Z" fill="#304E75"/>
<path d="M56.2477 53.9977C55.2664 53.5088 54.2777 53.0347 53.282 52.5757C46.5182 49.4635 38.5807 50.4087 32.736 55.0212C32.736 56.6717 33.1713 58.2929 33.9981 59.7213C34.8249 61.1498 36.0138 62.3348 37.445 63.157L56.2477 73.9595V53.9977ZM89.5457 90.5515L83.4607 76.9097C81.5318 72.5854 78.5878 68.7905 74.8787 65.8472C70.0758 62.0375 64.9518 58.6512 59.5642 55.7262V75.866L87.8267 92.1032C88.8485 92.691 90.0252 91.6275 89.5457 90.5515Z" fill="#243B58"/>
<path d="M119.458 73.1919C120.48 73.7799 121.657 72.7164 121.177 71.6402L115.092 57.9987C114.24 56.0887 113.179 54.2887 111.953 52.6129C111.463 52.5965 110.979 52.7176 110.554 52.9624L97.4545 60.5504L119.458 73.1919Z" fill="#59718B"/>
<path d="M121.146 112.869L125.451 110.415C126.156 110.013 126.742 109.432 127.15 108.73C127.557 108.028 127.772 107.231 127.772 106.42C127.361 106.452 126.948 106.47 126.536 106.474L114.401 106.559L112.772 107.879C111.613 108.819 111.505 110.548 112.539 111.624C114.786 113.96 118.33 114.473 121.146 112.869ZM145.883 88.0621L142.634 95.7291C142.148 96.8744 141.541 97.9648 140.824 98.9818L140.821 98.9926L141.39 99.2456C141.996 99.5139 142.656 99.6354 143.318 99.6001C143.979 99.5648 144.623 99.3738 145.197 99.0426L147.953 97.4506C147.663 94.2388 146.961 91.0863 145.883 88.0621H145.883Z" fill="white"/>
<path d="M145.197 99.0426C144.623 99.3738 143.979 99.5649 143.318 99.6001C142.656 99.6354 141.996 99.5139 141.39 99.2456L140.821 98.9936V98.9926C137.823 103.254 133.05 106.014 127.772 106.421C127.772 107.233 127.557 108.029 127.149 108.731C126.742 109.432 126.156 110.013 125.451 110.415L121.146 112.869C120.719 113.11 120.268 113.306 119.8 113.454V113.456L124.642 112.266C133.429 110.109 141.258 105.112 146.915 98.0503L145.197 99.0426ZM142.206 96.6586C142.229 96.6118 142.252 96.5648 142.275 96.5171C142.252 96.5648 142.228 96.6118 142.206 96.6586ZM101.93 124.555C101.93 131.793 97.5298 135.12 92.1011 131.985C86.6736 128.851 82.2721 120.443 82.2721 113.206C82.2721 105.967 86.6733 102.641 92.1011 105.775C97.5298 108.909 101.93 117.317 101.93 124.555Z" fill="#2E373D"/>
<path d="M98.4528 122.547C98.4528 127.224 95.6091 129.375 92.1011 127.349C88.5933 125.324 85.7496 119.89 85.7496 115.213C85.7496 110.536 88.5933 108.386 92.1011 110.412C95.6088 112.436 98.4528 117.87 98.4528 122.547Z" fill="#CECECE"/>
<path d="M95.5466 120.869C95.5466 123.406 94.0046 124.572 92.1011 123.473C90.1986 122.375 88.6558 119.428 88.6558 116.891C88.6558 114.354 90.1988 113.188 92.1011 114.287C94.0046 115.385 95.5466 118.333 95.5466 120.869Z" fill="#627681"/>
<path d="M41.5797 89.6909C41.5797 96.9291 37.1794 100.255 31.7507 97.1216C26.3229 93.9866 21.9224 85.5796 21.9224 78.3414C21.9224 71.1039 26.3229 67.7769 31.7507 70.9106C37.1794 74.0456 41.5797 82.4536 41.5797 89.6909Z" fill="#2E373D"/>
<path d="M38.1022 87.6831C38.1022 92.3609 35.2584 94.5104 31.7507 92.4849C28.2429 90.4604 25.3992 85.0269 25.3992 80.3491C25.3992 75.6724 28.2429 73.5221 31.7507 75.5474C35.2584 77.5726 38.1022 83.0064 38.1022 87.6831Z" fill="#CECECE"/>
<path d="M35.196 86.0054C35.196 88.5426 33.653 89.7086 31.7507 88.6099C29.8485 87.5111 28.3065 84.5641 28.3065 82.0279C28.3065 79.4909 29.8485 78.3246 31.7507 79.4234C33.653 80.5221 35.196 83.4684 35.196 86.0054Z" fill="#627681"/>
<path d="M146.764 102.554C141.137 108.516 134.045 112.897 126.196 115.26L119.646 117.233C118.55 117.563 117.538 118.126 116.68 118.884C115.822 119.641 115.138 120.575 114.674 121.622C114.188 122.719 115.144 123.909 116.321 123.67L121.085 122.707L123.975 118.455L130.028 116.35C135.631 114.401 140.776 111.327 145.148 107.316L145.428 108.17C146.194 106.936 146.826 105.619 147.255 104.219V104.153L146.764 102.554Z" fill="#2E373D"/>
<path d="M83.75 37.6528C94.1053 37.6528 102.5 29.2582 102.5 18.9028C102.5 8.54749 94.1053 0.152832 83.75 0.152832C73.3947 0.152832 65 8.54749 65 18.9028C65 29.2582 73.3947 37.6528 83.75 37.6528Z" fill="#EF7816"/>
<path d="M83.75 33.7838C91.9686 33.7838 98.631 27.1214 98.631 18.9029C98.631 10.6843 91.9686 4.02185 83.75 4.02185C75.5315 4.02185 68.869 10.6843 68.869 18.9029C68.869 27.1214 75.5315 33.7838 83.75 33.7838Z" fill="#FFC91D"/>
<path d="M92.9455 7.2074C95.0126 9.82635 96.1351 13.0665 96.131 16.4029C96.131 24.6214 89.4685 31.2839 81.25 31.2839C77.9136 31.2879 74.6735 30.1654 72.0545 28.0984C74.7795 31.5594 79.0035 33.7839 83.75 33.7839C91.9685 33.7839 98.631 27.1214 98.631 18.9029C98.631 14.1564 96.4065 9.9324 92.9455 7.2074Z" fill="#FFA91A"/>
<path d="M85.2525 17.1518H84.7505V11.6403H85.2525C85.9831 11.6411 86.6836 11.9316 87.2002 12.4482C87.7169 12.9648 88.0076 13.6652 88.0085 14.3958C88.0085 14.661 88.1139 14.9154 88.3014 15.1029C88.4889 15.2904 88.7433 15.3958 89.0085 15.3958C89.2737 15.3958 89.5281 15.2904 89.7156 15.1029C89.9032 14.9154 90.0085 14.661 90.0085 14.3958C90.0085 11.7733 87.875 9.64031 85.2525 9.64031H84.7505V9.13831C84.7505 8.87309 84.6451 8.61874 84.4576 8.4312C84.2701 8.24366 84.0157 8.13831 83.7505 8.13831C83.4853 8.13831 83.2309 8.24366 83.0434 8.4312C82.8559 8.61874 82.7505 8.87309 82.7505 9.13831V9.64031H82.248C79.6255 9.64031 77.492 11.7738 77.492 14.3958C77.492 17.0178 79.6255 19.1518 82.248 19.1518H82.7505V26.1653H82.248C81.5174 26.1645 80.8169 25.874 80.3003 25.3574C79.7836 24.8408 79.4929 24.1404 79.492 23.4098C79.492 23.1446 79.3866 22.8902 79.1991 22.7027C79.0116 22.5152 78.7572 22.4098 78.492 22.4098C78.2268 22.4098 77.9724 22.5152 77.7849 22.7027C77.5974 22.8902 77.492 23.1446 77.492 23.4098C77.492 26.0323 79.6255 28.1653 82.248 28.1653H82.7505V28.6678C82.7505 28.933 82.8559 29.1874 83.0434 29.3749C83.2309 29.5625 83.4853 29.6678 83.7505 29.6678C84.0157 29.6678 84.2701 29.5625 84.4576 29.3749C84.6451 29.1874 84.7505 28.933 84.7505 28.6678V28.1653H85.2525C87.875 28.1653 90.0085 26.0318 90.0085 23.4098V21.9078C90.008 19.2853 87.875 17.1518 85.2525 17.1518ZM82.248 17.1518C80.7285 17.1518 79.492 15.9153 79.492 14.3958C79.492 12.8763 80.7285 11.6403 82.248 11.6403H82.7505V17.1518H82.248ZM88.008 23.4098C88.0071 24.1404 87.7164 24.8408 87.1997 25.3574C86.6831 25.874 85.9826 26.1645 85.252 26.1653H84.75V19.1518H85.252C85.9826 19.1526 86.6831 19.4431 87.1997 19.9597C87.7164 20.4763 88.0071 21.1767 88.008 21.9073V23.4098Z" fill="#995222"/>
<path d="M195.893 89.7086L183.831 81.2221C182.056 76.7866 179.099 72.8454 175.751 70.9116C170.322 67.7769 165.922 71.1041 165.922 78.3414C165.922 85.5796 170.322 93.9879 175.751 97.1216C178.324 98.6069 180.665 98.6391 182.417 97.4926L195.893 89.7086ZM256.406 124.493L244.071 115.815C242.285 111.491 239.382 107.669 236.101 105.775C230.674 102.641 226.273 105.968 226.273 113.206C226.273 120.443 230.673 128.851 236.101 131.985C238.524 133.383 240.74 133.493 242.454 132.544L242.453 132.551L256.406 124.493Z" fill="#23292E"/>
<path d="M290.929 91.5113L290.928 91.5103C290.641 90.3758 290.302 89.2548 289.913 88.1508V88.0621L272.583 72.8931L261.155 53.4742C258.346 48.7015 254.352 44.7354 249.56 41.9604L233.06 32.405C225.519 28.0377 216.312 28.114 208.92 32.366L208.911 32.357L179.866 49.1422C177.556 50.0389 175.397 51.2863 173.467 52.8404H173.466L168.68 61.5179C167.14 62.4068 165.885 63.7161 165.062 65.2924C164.239 66.8688 163.883 68.6469 164.034 70.4186L164.554 76.5251C164.677 77.9691 165.147 79.362 165.923 80.5859C166.699 81.8098 167.759 82.8284 169.012 83.5554L233.924 121.193C245.04 127.637 258.646 127.84 269.905 121.861C270.059 121.781 270.212 121.698 270.364 121.613C270.837 121.354 271.305 121.086 271.766 120.807L283.303 114.139C286.936 112.041 289.749 108.642 291.11 104.67C292.58 100.373 292.02 95.8316 290.929 91.5113Z" fill="#FFD613"/>
<path d="M290.929 91.5114L290.928 91.5104C290.634 90.3453 290.285 89.1947 289.883 88.0621L286.634 95.7291C285.465 98.4899 283.609 100.906 281.244 102.75C278.212 105.113 274.38 106.447 270.536 106.473L258.401 106.558C258.401 106.558 258.301 106.696 258.13 106.953L240.238 91.2446L228.809 71.8257C226 67.0527 222.006 63.0864 217.213 60.3112L200.713 50.7555C192.074 45.7525 181.246 46.5805 173.466 52.8405L168.68 61.5172C167.14 62.4062 165.885 63.7155 165.062 65.2918C164.24 66.868 163.883 68.646 164.034 70.4177L164.554 76.5252C164.677 77.9691 165.147 79.362 165.923 80.5858C166.699 81.8096 167.759 82.8282 169.012 83.5551L233.924 121.193C245.04 127.637 258.646 127.84 269.904 121.861C270.059 121.781 270.213 121.698 270.365 121.612C270.836 121.355 271.302 121.087 271.762 120.809L283.303 114.14C286.936 112.041 289.749 108.642 291.109 104.67C292.58 100.373 292.02 95.8316 290.929 91.5114H290.929Z" fill="#C98000"/>
<path d="M241.871 89.7144L270.357 73.3034L258.118 53.8424C257.753 53.2628 257.178 52.8472 256.513 52.683C255.848 52.5189 255.146 52.6191 254.553 52.9624L232.049 65.9987C230.615 66.8297 230.112 68.6587 230.921 70.1062L241.871 89.7144Z" fill="#304E75"/>
<path d="M200.248 53.9977C199.266 53.5088 198.278 53.0347 197.282 52.5757C190.518 49.4635 182.581 50.4087 176.736 55.0212C176.736 56.6717 177.171 58.2929 177.998 59.7213C178.825 61.1498 180.014 62.3348 181.445 63.157L200.248 73.9595V53.9977ZM233.546 90.5515L227.461 76.9097C225.532 72.5854 222.588 68.7905 218.879 65.8472C214.076 62.0375 208.952 58.6512 203.564 55.7262V75.866L231.827 92.1032C232.848 92.691 234.025 91.6275 233.546 90.5515Z" fill="#243B58"/>
<path d="M263.458 73.1919C264.48 73.7799 265.657 72.7164 265.177 71.6402L259.092 57.9987C258.24 56.0887 257.179 54.2887 255.953 52.6129C255.463 52.5965 254.979 52.7176 254.554 52.9624L241.455 60.5504L263.458 73.1919Z" fill="#59718B"/>
<path d="M265.146 112.869L269.451 110.415C270.156 110.013 270.742 109.432 271.15 108.73C271.557 108.028 271.772 107.231 271.772 106.42C271.361 106.452 270.948 106.47 270.536 106.474L258.401 106.559L256.772 107.879C255.613 108.819 255.505 110.548 256.54 111.624C258.786 113.96 262.331 114.473 265.146 112.869ZM289.883 88.0621L286.634 95.7291C286.148 96.8744 285.541 97.9648 284.824 98.9818L284.821 98.9926L285.39 99.2456C285.996 99.5139 286.656 99.6354 287.318 99.6001C287.979 99.5648 288.623 99.3738 289.197 99.0426L291.954 97.4506C291.664 94.2388 290.962 91.0863 289.884 88.0621H289.883Z" fill="white"/>
<path d="M289.197 99.0426C288.623 99.3738 287.979 99.5649 287.318 99.6001C286.656 99.6354 285.996 99.5139 285.39 99.2456L284.821 98.9936V98.9926C281.823 103.254 277.05 106.014 271.772 106.421C271.772 107.233 271.557 108.029 271.149 108.731C270.742 109.432 270.156 110.013 269.451 110.415L265.146 112.869C264.719 113.11 264.268 113.306 263.8 113.454V113.456L268.642 112.266C277.429 110.109 285.258 105.112 290.915 98.0503L289.197 99.0426ZM286.206 96.6586C286.229 96.6118 286.252 96.5648 286.275 96.5171C286.252 96.5648 286.228 96.6118 286.206 96.6586ZM245.93 124.555C245.93 131.793 241.53 135.12 236.101 131.985C230.674 128.851 226.272 120.443 226.272 113.206C226.272 105.967 230.673 102.641 236.101 105.775C241.53 108.909 245.93 117.317 245.93 124.555Z" fill="#2E373D"/>
<path d="M242.453 122.547C242.453 127.224 239.609 129.375 236.101 127.349C232.593 125.324 229.75 119.89 229.75 115.213C229.75 110.536 232.593 108.386 236.101 110.412C239.609 112.436 242.453 117.87 242.453 122.547Z" fill="#CECECE"/>
<path d="M239.547 120.869C239.547 123.406 238.005 124.572 236.101 123.473C234.199 122.375 232.656 119.428 232.656 116.891C232.656 114.354 234.199 113.188 236.101 114.287C238.005 115.385 239.547 118.333 239.547 120.869Z" fill="#627681"/>
<path d="M185.58 89.6909C185.58 96.9291 181.179 100.255 175.751 97.1216C170.323 93.9866 165.922 85.5796 165.922 78.3414C165.922 71.1039 170.323 67.7769 175.751 70.9106C181.179 74.0456 185.58 82.4536 185.58 89.6909Z" fill="#2E373D"/>
<path d="M182.102 87.6831C182.102 92.3609 179.258 94.5104 175.751 92.4849C172.243 90.4604 169.399 85.0269 169.399 80.3491C169.399 75.6724 172.243 73.5221 175.751 75.5474C179.258 77.5726 182.102 83.0064 182.102 87.6831Z" fill="#CECECE"/>
<path d="M179.196 86.0054C179.196 88.5426 177.653 89.7086 175.751 88.6099C173.848 87.5111 172.306 84.5641 172.306 82.0279C172.306 79.4909 173.848 78.3246 175.751 79.4234C177.653 80.5221 179.196 83.4684 179.196 86.0054Z" fill="#627681"/>
<path d="M290.764 102.554C285.137 108.516 278.045 112.897 270.196 115.26L263.646 117.233C262.55 117.563 261.538 118.126 260.68 118.884C259.822 119.641 259.138 120.575 258.674 121.622C258.188 122.719 259.144 123.909 260.321 123.67L265.085 122.707L267.975 118.455L274.028 116.35C279.631 114.401 284.776 111.327 289.148 107.316L289.428 108.17C290.194 106.936 290.826 105.619 291.255 104.219V104.153L290.764 102.554Z" fill="#2E373D"/>
<path d="M227.75 37.6528C238.105 37.6528 246.5 29.2582 246.5 18.9028C246.5 8.54749 238.105 0.152832 227.75 0.152832C217.395 0.152832 209 8.54749 209 18.9028C209 29.2582 217.395 37.6528 227.75 37.6528Z" fill="#EF7816"/>
<path d="M227.75 33.7838C235.969 33.7838 242.631 27.1214 242.631 18.9029C242.631 10.6843 235.969 4.02185 227.75 4.02185C219.531 4.02185 212.869 10.6843 212.869 18.9029C212.869 27.1214 219.531 33.7838 227.75 33.7838Z" fill="#FFC91D"/>
<path d="M236.946 7.2074C239.013 9.82635 240.135 13.0665 240.131 16.4029C240.131 24.6214 233.469 31.2839 225.25 31.2839C221.914 31.2879 218.673 30.1654 216.055 28.0984C218.78 31.5594 223.004 33.7839 227.75 33.7839C235.969 33.7839 242.631 27.1214 242.631 18.9029C242.631 14.1564 240.407 9.9324 236.946 7.2074Z" fill="#FFA91A"/>
<path d="M229.253 17.1518H228.751V11.6403H229.253C229.983 11.6411 230.684 11.9316 231.2 12.4482C231.717 12.9648 232.008 13.6652 232.009 14.3958C232.009 14.661 232.114 14.9154 232.301 15.1029C232.489 15.2904 232.743 15.3958 233.009 15.3958C233.274 15.3958 233.528 15.2904 233.716 15.1029C233.903 14.9154 234.009 14.661 234.009 14.3958C234.009 11.7733 231.875 9.64031 229.253 9.64031H228.751V9.13831C228.751 8.87309 228.645 8.61874 228.458 8.4312C228.27 8.24366 228.016 8.13831 227.751 8.13831C227.485 8.13831 227.231 8.24366 227.043 8.4312C226.856 8.61874 226.751 8.87309 226.751 9.13831V9.64031H226.248C223.626 9.64031 221.492 11.7738 221.492 14.3958C221.492 17.0178 223.626 19.1518 226.248 19.1518H226.751V26.1653H226.248C225.517 26.1645 224.817 25.874 224.3 25.3574C223.784 24.8408 223.493 24.1404 223.492 23.4098C223.492 23.1446 223.387 22.8902 223.199 22.7027C223.012 22.5152 222.757 22.4098 222.492 22.4098C222.227 22.4098 221.972 22.5152 221.785 22.7027C221.597 22.8902 221.492 23.1446 221.492 23.4098C221.492 26.0323 223.626 28.1653 226.248 28.1653H226.751V28.6678C226.751 28.933 226.856 29.1874 227.043 29.3749C227.231 29.5625 227.485 29.6678 227.751 29.6678C228.016 29.6678 228.27 29.5625 228.458 29.3749C228.645 29.1874 228.751 28.933 228.751 28.6678V28.1653H229.253C231.875 28.1653 234.009 26.0318 234.009 23.4098V21.9078C234.008 19.2853 231.875 17.1518 229.253 17.1518ZM226.248 17.1518C224.729 17.1518 223.492 15.9153 223.492 14.3958C223.492 12.8763 224.729 11.6403 226.248 11.6403H226.751V17.1518H226.248ZM232.008 23.4098C232.007 24.1404 231.716 24.8408 231.2 25.3574C230.683 25.874 229.983 26.1645 229.252 26.1653H228.75V19.1518H229.252C229.983 19.1526 230.683 19.4431 231.2 19.9597C231.716 20.4763 232.007 21.1767 232.008 21.9073V23.4098Z" fill="#995222"/>
<path d="M339.893 89.7086L327.831 81.2221C326.056 76.7866 323.099 72.8454 319.751 70.9116C314.322 67.7769 309.922 71.1041 309.922 78.3414C309.922 85.5796 314.322 93.9879 319.751 97.1216C322.324 98.6069 324.665 98.6391 326.417 97.4926L339.893 89.7086ZM400.406 124.493L388.071 115.815C386.285 111.491 383.382 107.669 380.101 105.775C374.674 102.641 370.273 105.968 370.273 113.206C370.273 120.443 374.673 128.851 380.101 131.985C382.524 133.383 384.74 133.493 386.454 132.544L386.453 132.551L400.406 124.493Z" fill="#23292E"/>
<path d="M434.929 91.5113L434.928 91.5103C434.641 90.3758 434.302 89.2548 433.913 88.1508V88.0621L416.583 72.8931L405.155 53.4742C402.346 48.7015 398.352 44.7354 393.56 41.9604L377.06 32.405C369.519 28.0377 360.312 28.114 352.92 32.366L352.911 32.357L323.866 49.1422C321.556 50.0389 319.397 51.2863 317.467 52.8404H317.466L312.68 61.5179C311.14 62.4068 309.885 63.7161 309.062 65.2924C308.239 66.8688 307.883 68.6469 308.034 70.4186L308.554 76.5251C308.677 77.9691 309.147 79.362 309.923 80.5859C310.699 81.8098 311.759 82.8284 313.012 83.5554L377.924 121.193C389.04 127.637 402.646 127.84 413.905 121.861C414.059 121.781 414.212 121.698 414.364 121.613C414.837 121.354 415.305 121.086 415.766 120.807L427.303 114.139C430.936 112.041 433.749 108.642 435.11 104.67C436.58 100.373 436.02 95.8316 434.929 91.5113Z" fill="#FFD613"/>
<path d="M434.929 91.5114L434.928 91.5104C434.634 90.3453 434.285 89.1947 433.883 88.0621L430.634 95.7291C429.465 98.4899 427.609 100.906 425.244 102.75C422.212 105.113 418.38 106.447 414.536 106.473L402.401 106.558C402.401 106.558 402.301 106.696 402.13 106.953L384.238 91.2446L372.809 71.8257C370 67.0527 366.006 63.0864 361.213 60.3112L344.713 50.7555C336.074 45.7525 325.246 46.5805 317.466 52.8405L312.68 61.5172C311.14 62.4062 309.885 63.7155 309.062 65.2918C308.24 66.868 307.883 68.646 308.034 70.4177L308.554 76.5252C308.677 77.9691 309.147 79.362 309.923 80.5858C310.699 81.8096 311.759 82.8282 313.012 83.5551L377.924 121.193C389.04 127.637 402.646 127.84 413.904 121.861C414.059 121.781 414.213 121.698 414.365 121.612C414.836 121.355 415.302 121.087 415.762 120.809L427.303 114.14C430.936 112.041 433.749 108.642 435.109 104.67C436.58 100.373 436.02 95.8316 434.929 91.5114H434.929Z" fill="#C98000"/>
<path d="M385.871 89.7144L414.357 73.3034L402.118 53.8424C401.753 53.2628 401.178 52.8472 400.513 52.683C399.848 52.5189 399.146 52.6191 398.553 52.9624L376.049 65.9987C374.615 66.8297 374.112 68.6587 374.921 70.1062L385.871 89.7144Z" fill="#304E75"/>
<path d="M344.248 53.9977C343.266 53.5088 342.278 53.0347 341.282 52.5757C334.518 49.4635 326.581 50.4087 320.736 55.0212C320.736 56.6717 321.171 58.2929 321.998 59.7213C322.825 61.1498 324.014 62.3348 325.445 63.157L344.248 73.9595V53.9977ZM377.546 90.5515L371.461 76.9097C369.532 72.5854 366.588 68.7905 362.879 65.8472C358.076 62.0375 352.952 58.6512 347.564 55.7262V75.866L375.827 92.1032C376.848 92.691 378.025 91.6275 377.546 90.5515Z" fill="#243B58"/>
<path d="M407.458 73.1919C408.48 73.7799 409.657 72.7164 409.177 71.6402L403.092 57.9987C402.24 56.0887 401.179 54.2887 399.953 52.6129C399.463 52.5965 398.979 52.7176 398.554 52.9624L385.455 60.5504L407.458 73.1919Z" fill="#59718B"/>
<path d="M409.146 112.869L413.451 110.415C414.156 110.013 414.742 109.432 415.15 108.73C415.557 108.028 415.772 107.231 415.772 106.42C415.361 106.452 414.948 106.47 414.536 106.474L402.401 106.559L400.772 107.879C399.613 108.819 399.505 110.548 400.54 111.624C402.786 113.96 406.331 114.473 409.146 112.869ZM433.883 88.0621L430.634 95.7291C430.148 96.8744 429.541 97.9648 428.824 98.9818L428.821 98.9926L429.39 99.2456C429.996 99.5139 430.656 99.6354 431.318 99.6001C431.979 99.5648 432.623 99.3738 433.197 99.0426L435.954 97.4506C435.664 94.2388 434.962 91.0863 433.884 88.0621H433.883Z" fill="white"/>
<path d="M433.197 99.0426C432.623 99.3738 431.979 99.5649 431.318 99.6001C430.656 99.6354 429.996 99.5139 429.39 99.2456L428.821 98.9936V98.9926C425.823 103.254 421.05 106.014 415.772 106.421C415.772 107.233 415.557 108.029 415.149 108.731C414.742 109.432 414.156 110.013 413.451 110.415L409.146 112.869C408.719 113.11 408.268 113.306 407.8 113.454V113.456L412.642 112.266C421.429 110.109 429.258 105.112 434.915 98.0503L433.197 99.0426ZM430.206 96.6586C430.229 96.6118 430.252 96.5648 430.275 96.5171C430.252 96.5648 430.228 96.6118 430.206 96.6586ZM389.93 124.555C389.93 131.793 385.53 135.12 380.101 131.985C374.674 128.851 370.272 120.443 370.272 113.206C370.272 105.967 374.673 102.641 380.101 105.775C385.53 108.909 389.93 117.317 389.93 124.555Z" fill="#2E373D"/>
<path d="M386.453 122.547C386.453 127.224 383.609 129.375 380.101 127.349C376.593 125.324 373.75 119.89 373.75 115.213C373.75 110.536 376.593 108.386 380.101 110.412C383.609 112.436 386.453 117.87 386.453 122.547Z" fill="#CECECE"/>
<path d="M383.547 120.869C383.547 123.406 382.005 124.572 380.101 123.473C378.199 122.375 376.656 119.428 376.656 116.891C376.656 114.354 378.199 113.188 380.101 114.287C382.005 115.385 383.547 118.333 383.547 120.869Z" fill="#627681"/>
<path d="M329.58 89.6909C329.58 96.9291 325.179 100.255 319.751 97.1216C314.323 93.9866 309.922 85.5796 309.922 78.3414C309.922 71.1039 314.323 67.7769 319.751 70.9106C325.179 74.0456 329.58 82.4536 329.58 89.6909Z" fill="#2E373D"/>
<path d="M326.102 87.6831C326.102 92.3609 323.258 94.5104 319.751 92.4849C316.243 90.4604 313.399 85.0269 313.399 80.3491C313.399 75.6724 316.243 73.5221 319.751 75.5474C323.258 77.5726 326.102 83.0064 326.102 87.6831Z" fill="#CECECE"/>
<path d="M323.196 86.0054C323.196 88.5426 321.653 89.7086 319.751 88.6099C317.848 87.5111 316.306 84.5641 316.306 82.0279C316.306 79.4909 317.848 78.3246 319.751 79.4234C321.653 80.5221 323.196 83.4684 323.196 86.0054Z" fill="#627681"/>
<path d="M434.764 102.554C429.137 108.516 422.045 112.897 414.196 115.26L407.646 117.233C406.55 117.563 405.538 118.126 404.68 118.884C403.822 119.641 403.138 120.575 402.674 121.622C402.188 122.719 403.144 123.909 404.321 123.67L409.085 122.707L411.975 118.455L418.028 116.35C423.631 114.401 428.776 111.327 433.148 107.316L433.428 108.17C434.194 106.936 434.826 105.619 435.255 104.219V104.153L434.764 102.554Z" fill="#2E373D"/>
<path d="M371.75 37.6528C382.105 37.6528 390.5 29.2582 390.5 18.9028C390.5 8.54749 382.105 0.152832 371.75 0.152832C361.395 0.152832 353 8.54749 353 18.9028C353 29.2582 361.395 37.6528 371.75 37.6528Z" fill="#EF7816"/>
<path d="M371.75 33.7838C379.969 33.7838 386.631 27.1214 386.631 18.9029C386.631 10.6843 379.969 4.02185 371.75 4.02185C363.531 4.02185 356.869 10.6843 356.869 18.9029C356.869 27.1214 363.531 33.7838 371.75 33.7838Z" fill="#FFC91D"/>
<path d="M380.946 7.2074C383.013 9.82635 384.135 13.0665 384.131 16.4029C384.131 24.6214 377.469 31.2839 369.25 31.2839C365.914 31.2879 362.673 30.1654 360.055 28.0984C362.78 31.5594 367.004 33.7839 371.75 33.7839C379.969 33.7839 386.631 27.1214 386.631 18.9029C386.631 14.1564 384.407 9.9324 380.946 7.2074Z" fill="#FFA91A"/>
<path d="M373.253 17.1518H372.751V11.6403H373.253C373.983 11.6411 374.684 11.9316 375.2 12.4482C375.717 12.9648 376.008 13.6652 376.009 14.3958C376.009 14.661 376.114 14.9154 376.301 15.1029C376.489 15.2904 376.743 15.3958 377.009 15.3958C377.274 15.3958 377.528 15.2904 377.716 15.1029C377.903 14.9154 378.009 14.661 378.009 14.3958C378.009 11.7733 375.875 9.64031 373.253 9.64031H372.751V9.13831C372.751 8.87309 372.645 8.61874 372.458 8.4312C372.27 8.24366 372.016 8.13831 371.751 8.13831C371.485 8.13831 371.231 8.24366 371.043 8.4312C370.856 8.61874 370.751 8.87309 370.751 9.13831V9.64031H370.248C367.626 9.64031 365.492 11.7738 365.492 14.3958C365.492 17.0178 367.626 19.1518 370.248 19.1518H370.751V26.1653H370.248C369.517 26.1645 368.817 25.874 368.3 25.3574C367.784 24.8408 367.493 24.1404 367.492 23.4098C367.492 23.1446 367.387 22.8902 367.199 22.7027C367.012 22.5152 366.757 22.4098 366.492 22.4098C366.227 22.4098 365.972 22.5152 365.785 22.7027C365.597 22.8902 365.492 23.1446 365.492 23.4098C365.492 26.0323 367.626 28.1653 370.248 28.1653H370.751V28.6678C370.751 28.933 370.856 29.1874 371.043 29.3749C371.231 29.5625 371.485 29.6678 371.751 29.6678C372.016 29.6678 372.27 29.5625 372.458 29.3749C372.645 29.1874 372.751 28.933 372.751 28.6678V28.1653H373.253C375.875 28.1653 378.009 26.0318 378.009 23.4098V21.9078C378.008 19.2853 375.875 17.1518 373.253 17.1518ZM370.248 17.1518C368.729 17.1518 367.492 15.9153 367.492 14.3958C367.492 12.8763 368.729 11.6403 370.248 11.6403H370.751V17.1518H370.248ZM376.008 23.4098C376.007 24.1404 375.716 24.8408 375.2 25.3574C374.683 25.874 373.983 26.1645 373.252 26.1653H372.75V19.1518H373.252C373.983 19.1526 374.683 19.4431 375.2 19.9597C375.716 20.4763 376.007 21.1767 376.008 21.9073V23.4098Z" fill="#995222"/>
<path d="M123.893 233.709L111.831 225.222C110.056 220.787 107.099 216.845 103.751 214.912C98.3219 211.777 93.9217 215.104 93.9217 222.341C93.9217 229.58 98.3219 237.988 103.751 241.122C106.324 242.607 108.665 242.639 110.417 241.493L123.893 233.709ZM184.406 268.493L172.071 259.815C170.285 255.491 167.382 251.669 164.101 249.775C158.674 246.641 154.273 249.968 154.273 257.206C154.273 264.443 158.673 272.851 164.101 275.985C166.524 277.383 168.74 277.493 170.454 276.544L170.453 276.551L184.406 268.493Z" fill="#23292E"/>
<path d="M218.929 235.511L218.928 235.51C218.641 234.376 218.302 233.255 217.913 232.151V232.062L200.583 216.893L189.155 197.474C186.346 192.701 182.352 188.735 177.56 185.96L161.06 176.405C153.519 172.038 144.312 172.114 136.92 176.366L136.911 176.357L107.866 193.142C105.556 194.039 103.397 195.286 101.467 196.84H101.466L96.6797 205.518C95.1397 206.407 93.8848 207.716 93.062 209.292C92.2392 210.869 91.8826 212.647 92.034 214.419L92.5545 220.525C92.6774 221.969 93.1467 223.362 93.9228 224.586C94.6988 225.81 95.7586 226.828 97.0122 227.555L161.924 265.193C173.04 271.637 186.646 271.84 197.905 265.861C198.059 265.781 198.212 265.698 198.364 265.613C198.837 265.354 199.305 265.086 199.766 264.807L211.303 258.139C214.936 256.041 217.749 252.642 219.11 248.67C220.58 244.373 220.02 239.832 218.929 235.511Z" fill="#FFD613"/>
<path d="M218.929 235.511L218.928 235.51C218.634 234.345 218.285 233.195 217.883 232.062L214.634 239.729C213.465 242.49 211.609 244.906 209.244 246.75C206.212 249.113 202.38 250.447 198.536 250.473L186.401 250.558C186.401 250.558 186.301 250.696 186.13 250.953L168.238 235.245L156.809 215.826C154 211.053 150.006 207.086 145.213 204.311L128.713 194.755C120.074 189.752 109.246 190.58 101.466 196.84L96.6797 205.517C95.1399 206.406 93.8852 207.716 93.0624 209.292C92.2397 210.868 91.8829 212.646 92.034 214.418L92.5545 220.525C92.6774 221.969 93.1469 223.362 93.9229 224.586C94.699 225.81 95.7588 226.828 97.0124 227.555L161.924 265.193C173.04 271.637 186.646 271.84 197.904 265.861C198.059 265.781 198.213 265.698 198.365 265.612C198.836 265.355 199.302 265.087 199.762 264.809L211.303 258.14C214.936 256.041 217.749 252.642 219.109 248.67C220.58 244.373 220.02 239.832 218.929 235.511H218.929Z" fill="#C98000"/>
<path d="M169.871 233.714L198.357 217.303L186.118 197.842C185.753 197.263 185.178 196.847 184.513 196.683C183.848 196.519 183.146 196.619 182.553 196.962L160.049 209.999C158.615 210.83 158.112 212.659 158.921 214.106L169.871 233.714Z" fill="#304E75"/>
<path d="M128.248 197.998C127.266 197.509 126.278 197.035 125.282 196.576C118.518 193.463 110.581 194.409 104.736 199.021C104.736 200.672 105.171 202.293 105.998 203.721C106.825 205.15 108.014 206.335 109.445 207.157L128.248 217.959V197.998ZM161.546 234.551L155.461 220.91C153.532 216.585 150.588 212.79 146.879 209.847C142.076 206.038 136.952 202.651 131.564 199.726V219.866L159.827 236.103C160.848 236.691 162.025 235.627 161.546 234.551Z" fill="#243B58"/>
<path d="M191.458 217.192C192.48 217.78 193.657 216.716 193.177 215.64L187.092 201.999C186.24 200.089 185.179 198.289 183.953 196.613C183.463 196.596 182.979 196.718 182.554 196.962L169.455 204.55L191.458 217.192Z" fill="#59718B"/>
<path d="M193.146 256.869L197.451 254.415C198.156 254.013 198.742 253.432 199.15 252.73C199.557 252.028 199.772 251.231 199.772 250.42C199.361 250.452 198.948 250.47 198.536 250.474L186.401 250.559L184.772 251.879C183.613 252.819 183.505 254.548 184.54 255.624C186.786 257.96 190.331 258.473 193.146 256.869ZM217.883 232.062L214.634 239.729C214.148 240.874 213.541 241.965 212.824 242.982L212.821 242.993L213.39 243.246C213.996 243.514 214.656 243.635 215.318 243.6C215.979 243.565 216.623 243.374 217.197 243.043L219.954 241.451C219.664 238.239 218.962 235.086 217.884 232.062H217.883Z" fill="white"/>
<path d="M217.197 243.043C216.623 243.374 215.979 243.565 215.318 243.6C214.656 243.635 213.996 243.514 213.39 243.246L212.821 242.994V242.993C209.823 247.254 205.05 250.014 199.772 250.421C199.772 251.233 199.557 252.029 199.149 252.731C198.742 253.432 198.156 254.013 197.451 254.415L193.146 256.869C192.719 257.11 192.268 257.306 191.8 257.454V257.456L196.642 256.266C205.429 254.109 213.258 249.112 218.915 242.05L217.197 243.043ZM214.206 240.659C214.229 240.612 214.252 240.565 214.275 240.517C214.252 240.565 214.228 240.612 214.206 240.659ZM173.93 268.555C173.93 275.793 169.53 279.12 164.101 275.985C158.674 272.851 154.272 264.443 154.272 257.206C154.272 249.967 158.673 246.641 164.101 249.775C169.53 252.909 173.93 261.317 173.93 268.555Z" fill="#2E373D"/>
<path d="M170.453 266.547C170.453 271.224 167.609 273.375 164.101 271.349C160.593 269.324 157.75 263.89 157.75 259.213C157.75 254.536 160.593 252.386 164.101 254.412C167.609 256.436 170.453 261.87 170.453 266.547Z" fill="#CECECE"/>
<path d="M167.547 264.869C167.547 267.406 166.005 268.572 164.101 267.473C162.199 266.375 160.656 263.428 160.656 260.891C160.656 258.354 162.199 257.188 164.101 258.287C166.005 259.385 167.547 262.333 167.547 264.869Z" fill="#627681"/>
<path d="M113.58 233.691C113.58 240.929 109.179 244.255 103.751 241.122C98.3229 237.987 93.9224 229.58 93.9224 222.341C93.9224 215.104 98.3229 211.777 103.751 214.911C109.179 218.046 113.58 226.454 113.58 233.691Z" fill="#2E373D"/>
<path d="M110.102 231.683C110.102 236.361 107.258 238.51 103.751 236.485C100.243 234.46 97.3992 229.027 97.3992 224.349C97.3992 219.672 100.243 217.522 103.751 219.547C107.258 221.573 110.102 227.006 110.102 231.683Z" fill="#CECECE"/>
<path d="M107.196 230.005C107.196 232.543 105.653 233.709 103.751 232.61C101.848 231.511 100.306 228.564 100.306 226.028C100.306 223.491 101.848 222.325 103.751 223.423C105.653 224.522 107.196 227.468 107.196 230.005Z" fill="#627681"/>
<path d="M218.764 246.554C213.137 252.515 206.045 256.897 198.196 259.26L191.646 261.233C190.55 261.563 189.538 262.126 188.68 262.884C187.822 263.641 187.138 264.575 186.674 265.622C186.188 266.719 187.144 267.909 188.321 267.67L193.085 266.707L195.975 262.455L202.028 260.35C207.631 258.401 212.776 255.327 217.148 251.316L217.428 252.17C218.194 250.936 218.826 249.619 219.255 248.219V248.153L218.764 246.554Z" fill="#2E373D"/>
<path d="M155.75 181.653C166.105 181.653 174.5 173.258 174.5 162.903C174.5 152.547 166.105 144.153 155.75 144.153C145.395 144.153 137 152.547 137 162.903C137 173.258 145.395 181.653 155.75 181.653Z" fill="#EF7816"/>
<path d="M155.75 177.784C163.969 177.784 170.631 171.121 170.631 162.903C170.631 154.684 163.969 148.022 155.75 148.022C147.531 148.022 140.869 154.684 140.869 162.903C140.869 171.121 147.531 177.784 155.75 177.784Z" fill="#FFC91D"/>
<path d="M164.946 151.207C167.013 153.826 168.135 157.066 168.131 160.403C168.131 168.621 161.469 175.284 153.25 175.284C149.914 175.288 146.673 174.165 144.055 172.098C146.78 175.559 151.004 177.784 155.75 177.784C163.969 177.784 170.631 171.121 170.631 162.903C170.631 158.156 168.407 153.932 164.946 151.207Z" fill="#FFA91A"/>
<path d="M157.253 161.152H156.751V155.64H157.253C157.983 155.641 158.684 155.932 159.2 156.448C159.717 156.965 160.008 157.665 160.009 158.396C160.009 158.661 160.114 158.915 160.301 159.103C160.489 159.29 160.743 159.396 161.009 159.396C161.274 159.396 161.528 159.29 161.716 159.103C161.903 158.915 162.009 158.661 162.009 158.396C162.009 155.773 159.875 153.64 157.253 153.64H156.751V153.138C156.751 152.873 156.645 152.619 156.458 152.431C156.27 152.244 156.016 152.138 155.751 152.138C155.485 152.138 155.231 152.244 155.043 152.431C154.856 152.619 154.751 152.873 154.751 153.138V153.64H154.248C151.626 153.64 149.492 155.774 149.492 158.396C149.492 161.018 151.626 163.152 154.248 163.152H154.751V170.165H154.248C153.517 170.165 152.817 169.874 152.3 169.357C151.784 168.841 151.493 168.14 151.492 167.41C151.492 167.145 151.387 166.89 151.199 166.703C151.012 166.515 150.757 166.41 150.492 166.41C150.227 166.41 149.972 166.515 149.785 166.703C149.597 166.89 149.492 167.145 149.492 167.41C149.492 170.032 151.626 172.165 154.248 172.165H154.751V172.668C154.751 172.933 154.856 173.187 155.043 173.375C155.231 173.562 155.485 173.668 155.751 173.668C156.016 173.668 156.27 173.562 156.458 173.375C156.645 173.187 156.751 172.933 156.751 172.668V172.165H157.253C159.875 172.165 162.009 170.032 162.009 167.41V165.908C162.008 163.285 159.875 161.152 157.253 161.152ZM154.248 161.152C152.729 161.152 151.492 159.915 151.492 158.396C151.492 156.876 152.729 155.64 154.248 155.64H154.751V161.152H154.248ZM160.008 167.41C160.007 168.14 159.716 168.841 159.2 169.357C158.683 169.874 157.983 170.165 157.252 170.165H156.75V163.152H157.252C157.983 163.153 158.683 163.443 159.2 163.96C159.716 164.476 160.007 165.177 160.008 165.907V167.41Z" fill="#995222"/>
<path d="M267.893 233.709L255.831 225.222C254.056 220.787 251.099 216.845 247.751 214.912C242.322 211.777 237.922 215.104 237.922 222.341C237.922 229.58 242.322 237.988 247.751 241.122C250.324 242.607 252.665 242.639 254.417 241.493L267.893 233.709ZM328.406 268.493L316.071 259.815C314.285 255.491 311.382 251.669 308.101 249.775C302.674 246.641 298.273 249.968 298.273 257.206C298.273 264.443 302.673 272.851 308.101 275.985C310.524 277.383 312.74 277.493 314.454 276.544L314.453 276.551L328.406 268.493Z" fill="#23292E"/>
<path d="M362.929 235.511L362.928 235.51C362.641 234.376 362.302 233.255 361.913 232.151V232.062L344.583 216.893L333.155 197.474C330.346 192.701 326.352 188.735 321.56 185.96L305.06 176.405C297.519 172.038 288.312 172.114 280.92 176.366L280.911 176.357L251.866 193.142C249.556 194.039 247.397 195.286 245.467 196.84H245.466L240.68 205.518C239.14 206.407 237.885 207.716 237.062 209.292C236.239 210.869 235.883 212.647 236.034 214.419L236.554 220.525C236.677 221.969 237.147 223.362 237.923 224.586C238.699 225.81 239.759 226.828 241.012 227.555L305.924 265.193C317.04 271.637 330.646 271.84 341.905 265.861C342.059 265.781 342.212 265.698 342.364 265.613C342.837 265.354 343.305 265.086 343.766 264.807L355.303 258.139C358.936 256.041 361.749 252.642 363.11 248.67C364.58 244.373 364.02 239.832 362.929 235.511Z" fill="#FFD613"/>
<path d="M362.929 235.511L362.928 235.51C362.634 234.345 362.285 233.195 361.883 232.062L358.634 239.729C357.465 242.49 355.609 244.906 353.244 246.75C350.212 249.113 346.38 250.447 342.536 250.473L330.401 250.558C330.401 250.558 330.301 250.696 330.13 250.953L312.238 235.245L300.809 215.826C298 211.053 294.006 207.086 289.213 204.311L272.713 194.755C264.074 189.752 253.246 190.58 245.466 196.84L240.68 205.517C239.14 206.406 237.885 207.716 237.062 209.292C236.24 210.868 235.883 212.646 236.034 214.418L236.554 220.525C236.677 221.969 237.147 223.362 237.923 224.586C238.699 225.81 239.759 226.828 241.012 227.555L305.924 265.193C317.04 271.637 330.646 271.84 341.904 265.861C342.059 265.781 342.213 265.698 342.365 265.612C342.836 265.355 343.302 265.087 343.762 264.809L355.303 258.14C358.936 256.041 361.749 252.642 363.109 248.67C364.58 244.373 364.02 239.832 362.929 235.511H362.929Z" fill="#C98000"/>
<path d="M313.871 233.714L342.357 217.303L330.118 197.842C329.753 197.263 329.178 196.847 328.513 196.683C327.848 196.519 327.146 196.619 326.553 196.962L304.049 209.999C302.615 210.83 302.112 212.659 302.921 214.106L313.871 233.714Z" fill="#304E75"/>
<path d="M272.248 197.998C271.266 197.509 270.278 197.035 269.282 196.576C262.518 193.463 254.581 194.409 248.736 199.021C248.736 200.672 249.171 202.293 249.998 203.721C250.825 205.15 252.014 206.335 253.445 207.157L272.248 217.959V197.998ZM305.546 234.551L299.461 220.91C297.532 216.585 294.588 212.79 290.879 209.847C286.076 206.038 280.952 202.651 275.564 199.726V219.866L303.827 236.103C304.848 236.691 306.025 235.627 305.546 234.551Z" fill="#243B58"/>
<path d="M335.458 217.192C336.48 217.78 337.657 216.716 337.177 215.64L331.092 201.999C330.24 200.089 329.179 198.289 327.953 196.613C327.463 196.596 326.979 196.718 326.554 196.962L313.455 204.55L335.458 217.192Z" fill="#59718B"/>
<path d="M337.146 256.869L341.451 254.415C342.156 254.013 342.742 253.432 343.15 252.73C343.557 252.028 343.772 251.231 343.772 250.42C343.361 250.452 342.948 250.47 342.536 250.474L330.401 250.559L328.772 251.879C327.613 252.819 327.505 254.548 328.54 255.624C330.786 257.96 334.331 258.473 337.146 256.869ZM361.883 232.062L358.634 239.729C358.148 240.874 357.541 241.965 356.824 242.982L356.821 242.993L357.39 243.246C357.996 243.514 358.656 243.635 359.318 243.6C359.979 243.565 360.623 243.374 361.197 243.043L363.954 241.451C363.664 238.239 362.962 235.086 361.884 232.062H361.883Z" fill="white"/>
<path d="M361.197 243.043C360.623 243.374 359.979 243.565 359.318 243.6C358.656 243.635 357.996 243.514 357.39 243.246L356.821 242.994V242.993C353.823 247.254 349.05 250.014 343.772 250.421C343.772 251.233 343.557 252.029 343.149 252.731C342.742 253.432 342.156 254.013 341.451 254.415L337.146 256.869C336.719 257.11 336.268 257.306 335.8 257.454V257.456L340.642 256.266C349.429 254.109 357.258 249.112 362.915 242.05L361.197 243.043ZM358.206 240.659C358.229 240.612 358.252 240.565 358.275 240.517C358.252 240.565 358.228 240.612 358.206 240.659ZM317.93 268.555C317.93 275.793 313.53 279.12 308.101 275.985C302.674 272.851 298.272 264.443 298.272 257.206C298.272 249.967 302.673 246.641 308.101 249.775C313.53 252.909 317.93 261.317 317.93 268.555Z" fill="#2E373D"/>
<path d="M314.453 266.547C314.453 271.224 311.609 273.375 308.101 271.349C304.593 269.324 301.75 263.89 301.75 259.213C301.75 254.536 304.593 252.386 308.101 254.412C311.609 256.436 314.453 261.87 314.453 266.547Z" fill="#CECECE"/>
<path d="M311.547 264.869C311.547 267.406 310.005 268.572 308.101 267.473C306.199 266.375 304.656 263.428 304.656 260.891C304.656 258.354 306.199 257.188 308.101 258.287C310.005 259.385 311.547 262.333 311.547 264.869Z" fill="#627681"/>
<path d="M257.58 233.691C257.58 240.929 253.179 244.255 247.751 241.122C242.323 237.987 237.922 229.58 237.922 222.341C237.922 215.104 242.323 211.777 247.751 214.911C253.179 218.046 257.58 226.454 257.58 233.691Z" fill="#2E373D"/>
<path d="M254.102 231.683C254.102 236.361 251.258 238.51 247.751 236.485C244.243 234.46 241.399 229.027 241.399 224.349C241.399 219.672 244.243 217.522 247.751 219.547C251.258 221.573 254.102 227.006 254.102 231.683Z" fill="#CECECE"/>
<path d="M251.196 230.005C251.196 232.543 249.653 233.709 247.751 232.61C245.848 231.511 244.306 228.564 244.306 226.028C244.306 223.491 245.848 222.325 247.751 223.423C249.653 224.522 251.196 227.468 251.196 230.005Z" fill="#627681"/>
<path d="M362.764 246.554C357.137 252.515 350.045 256.897 342.196 259.26L335.646 261.233C334.55 261.563 333.538 262.126 332.68 262.884C331.822 263.641 331.138 264.575 330.674 265.622C330.188 266.719 331.144 267.909 332.321 267.67L337.085 266.707L339.975 262.455L346.028 260.35C351.631 258.401 356.776 255.327 361.148 251.316L361.428 252.17C362.194 250.936 362.826 249.619 363.255 248.219V248.153L362.764 246.554Z" fill="#2E373D"/>
<path d="M299.75 181.653C310.105 181.653 318.5 173.258 318.5 162.903C318.5 152.547 310.105 144.153 299.75 144.153C289.395 144.153 281 152.547 281 162.903C281 173.258 289.395 181.653 299.75 181.653Z" fill="#EF7816"/>
<path d="M299.75 177.784C307.969 177.784 314.631 171.121 314.631 162.903C314.631 154.684 307.969 148.022 299.75 148.022C291.531 148.022 284.869 154.684 284.869 162.903C284.869 171.121 291.531 177.784 299.75 177.784Z" fill="#FFC91D"/>
<path d="M308.946 151.207C311.013 153.826 312.135 157.066 312.131 160.403C312.131 168.621 305.469 175.284 297.25 175.284C293.914 175.288 290.673 174.165 288.055 172.098C290.78 175.559 295.004 177.784 299.75 177.784C307.969 177.784 314.631 171.121 314.631 162.903C314.631 158.156 312.407 153.932 308.946 151.207Z" fill="#FFA91A"/>
<path d="M301.253 161.152H300.751V155.64H301.253C301.983 155.641 302.684 155.932 303.2 156.448C303.717 156.965 304.008 157.665 304.009 158.396C304.009 158.661 304.114 158.915 304.301 159.103C304.489 159.29 304.743 159.396 305.009 159.396C305.274 159.396 305.528 159.29 305.716 159.103C305.903 158.915 306.009 158.661 306.009 158.396C306.009 155.773 303.875 153.64 301.253 153.64H300.751V153.138C300.751 152.873 300.645 152.619 300.458 152.431C300.27 152.244 300.016 152.138 299.751 152.138C299.485 152.138 299.231 152.244 299.043 152.431C298.856 152.619 298.751 152.873 298.751 153.138V153.64H298.248C295.626 153.64 293.492 155.774 293.492 158.396C293.492 161.018 295.626 163.152 298.248 163.152H298.751V170.165H298.248C297.517 170.165 296.817 169.874 296.3 169.357C295.784 168.841 295.493 168.14 295.492 167.41C295.492 167.145 295.387 166.89 295.199 166.703C295.012 166.515 294.757 166.41 294.492 166.41C294.227 166.41 293.972 166.515 293.785 166.703C293.597 166.89 293.492 167.145 293.492 167.41C293.492 170.032 295.626 172.165 298.248 172.165H298.751V172.668C298.751 172.933 298.856 173.187 299.043 173.375C299.231 173.562 299.485 173.668 299.751 173.668C300.016 173.668 300.27 173.562 300.458 173.375C300.645 173.187 300.751 172.933 300.751 172.668V172.165H301.253C303.875 172.165 306.009 170.032 306.009 167.41V165.908C306.008 163.285 303.875 161.152 301.253 161.152ZM298.248 161.152C296.729 161.152 295.492 159.915 295.492 158.396C295.492 156.876 296.729 155.64 298.248 155.64H298.751V161.152H298.248ZM304.008 167.41C304.007 168.14 303.716 168.841 303.2 169.357C302.683 169.874 301.983 170.165 301.252 170.165H300.75V163.152H301.252C301.983 163.153 302.683 163.443 303.2 163.96C303.716 164.476 304.007 165.177 304.008 165.907V167.41Z" fill="#995222"/>
<path fill-rule="evenodd" clip-rule="evenodd" d="M23.9551 108.816C23.2693 108.514 22.4685 108.824 22.1665 109.509C21.6818 110.609 21.2148 111.727 20.7663 112.864C20.3084 114.024 19.8763 115.177 19.4693 116.321C19.2186 117.026 19.5878 117.801 20.294 118.052C21.0001 118.303 21.7759 117.935 22.0266 117.229C22.4232 116.114 22.8445 114.99 23.2912 113.858C23.7266 112.754 24.1799 111.669 24.6502 110.602C24.9522 109.918 24.641 109.118 23.9551 108.816ZM18.9361 122.347C18.2136 122.148 17.4667 122.571 17.2679 123.293C16.6005 125.715 16.0463 128.098 15.5989 130.442C15.4586 131.177 15.9416 131.887 16.6777 132.027C17.4138 132.168 18.1243 131.686 18.2646 130.951C18.6982 128.679 19.2359 126.366 19.8844 124.013C20.0832 123.292 19.6586 122.546 18.9361 122.347ZM16.0197 136.506C15.2742 136.43 14.6084 136.972 14.5328 137.716C14.2794 140.208 14.1476 142.651 14.1284 145.045C14.1224 145.793 14.725 146.405 15.4744 146.412C16.2237 146.418 16.836 145.816 16.842 145.068C16.8605 142.759 16.9877 140.4 17.2326 137.991C17.3083 137.247 16.7653 136.582 16.0197 136.506ZM15.6586 150.939C14.9122 151.006 14.3619 151.665 14.4295 152.41C14.6551 154.9 15.003 157.329 15.4615 159.698C15.6038 160.433 16.3156 160.913 17.0513 160.772C17.787 160.63 18.2681 159.919 18.1258 159.184C17.6844 156.905 17.3495 154.565 17.1322 152.167C17.0646 151.422 16.4049 150.872 15.6586 150.939ZM18.1346 165.16C17.417 165.375 17.0103 166.131 17.2262 166.847C17.9446 169.232 18.7746 171.546 19.7019 173.788C19.988 174.48 20.7814 174.809 21.474 174.524C22.1666 174.238 22.4961 173.446 22.2099 172.754C21.3161 170.593 20.5166 168.364 19.8248 166.068C19.6089 165.351 18.8521 164.944 18.1346 165.16ZM23.4031 178.614C22.7411 178.964 22.489 179.784 22.8401 180.446C24.0029 182.636 25.2561 184.746 26.5834 186.775C26.9934 187.402 27.8342 187.578 28.4615 187.169C29.0888 186.76 29.2651 185.92 28.8552 185.294C27.5712 183.331 26.3602 181.292 25.2375 179.177C24.8864 178.516 24.0651 178.264 23.4031 178.614ZM31.1014 190.844C30.5117 191.305 30.4084 192.157 30.8708 192.746C32.4036 194.699 33.9998 196.563 35.6408 198.336C36.1496 198.886 37.008 198.92 37.5582 198.412C38.1084 197.904 38.142 197.047 37.6332 196.497C36.0402 194.776 34.492 192.968 33.0064 191.075C32.544 190.486 31.6912 190.382 31.1014 190.844ZM40.7616 201.612C40.2524 202.161 40.2855 203.018 40.8353 203.527C42.6703 205.225 44.5352 206.818 46.4075 208.306C46.9941 208.772 47.8476 208.675 48.314 208.089C48.7804 207.504 48.6829 206.651 48.0963 206.185C46.2757 204.739 44.4626 203.19 42.6791 201.539C42.1292 201.031 41.2707 201.063 40.7616 201.612ZM51.96 210.77C51.5392 211.389 51.7007 212.232 52.3207 212.652C54.4293 214.083 56.5181 215.377 58.5547 216.532C59.2063 216.902 60.0346 216.675 60.4045 216.024C60.7745 215.373 60.5462 214.546 59.8945 214.176C57.9212 213.056 55.8938 211.8 53.8447 210.411C53.2247 209.99 52.3809 210.151 51.96 210.77ZM64.4494 218.09C64.1422 218.772 64.4472 219.574 65.1307 219.881C65.9579 220.253 71.5896 222.421 75.1937 223.802C74.6125 224.036 73.981 224.285 73.3383 224.539C70.8402 225.525 68.1728 226.579 67.6331 227.006C67.0462 227.471 66.948 228.324 67.4139 228.91C67.8798 229.496 68.7333 229.595 69.3203 229.13C69.8398 228.718 72.4926 227.679 74.9711 226.708C77.0908 225.878 79.0829 225.098 79.5037 224.803C79.8866 224.534 80.088 224.104 80.0805 223.67C80.0837 223.399 80.0063 223.126 79.8413 222.886C79.5108 222.407 78.5919 220.007 77.699 217.674C76.8833 215.544 76.0892 213.469 75.785 212.967C75.397 212.327 74.5628 212.122 73.9217 212.509C73.2806 212.896 73.0754 213.729 73.4634 214.37C73.7789 214.89 74.5817 216.973 75.4082 219.118C75.6948 219.861 75.9842 220.612 76.2571 221.308C72.6915 219.942 67.0422 217.769 66.2433 217.41C65.5598 217.103 64.7567 217.407 64.4494 218.09Z" fill="#FFCC34"/>
<path fill-rule="evenodd" clip-rule="evenodd" d="M345.089 257.811C345.782 257.51 346.588 257.821 346.89 258.507C347.374 259.607 347.84 260.726 348.288 261.864C348.745 263.025 349.176 264.178 349.581 265.324C349.831 266.029 349.456 266.804 348.743 267.054C348.03 267.304 347.249 266.935 346.999 266.229C346.604 265.113 346.184 263.989 345.738 262.856C345.303 261.751 344.851 260.665 344.381 259.597C344.079 258.912 344.396 258.112 345.089 257.811ZM350.095 271.351C350.824 271.153 351.575 271.578 351.773 272.299C352.436 274.723 352.985 277.107 353.427 279.452C353.565 280.187 353.075 280.897 352.332 281.037C351.59 281.176 350.875 280.693 350.737 279.958C350.309 277.685 349.776 275.372 349.132 273.017C348.934 272.295 349.365 271.549 350.095 271.351ZM352.978 285.517C353.73 285.442 354.399 285.985 354.472 286.73C354.717 289.222 354.84 291.666 354.85 294.061C354.853 294.809 354.243 295.421 353.487 295.426C352.732 295.432 352.117 294.829 352.114 294.081C352.104 291.771 351.986 289.411 351.749 287.002C351.675 286.257 352.226 285.592 352.978 285.517ZM353.283 299.955C354.035 300.023 354.588 300.682 354.516 301.428C354.279 303.918 353.918 306.347 353.446 308.716C353.3 309.451 352.58 309.931 351.839 309.788C351.098 309.646 350.615 308.934 350.762 308.199C351.216 305.92 351.563 303.58 351.792 301.182C351.863 300.436 352.531 299.887 353.283 299.955ZM350.729 314.176C351.451 314.392 351.858 315.149 351.638 315.865C350.904 318.25 350.058 320.564 349.113 322.805C348.822 323.497 348.021 323.825 347.324 323.539C346.626 323.253 346.297 322.46 346.589 321.768C347.499 319.608 348.314 317.379 349.021 315.083C349.241 314.366 350.006 313.96 350.729 314.176ZM345.362 327.628C346.028 327.979 346.279 328.8 345.922 329.461C344.741 331.65 343.469 333.76 342.122 335.788C341.706 336.414 340.858 336.59 340.227 336.18C339.596 335.77 339.422 334.93 339.837 334.304C341.14 332.342 342.369 330.303 343.51 328.189C343.867 327.528 344.696 327.277 345.362 327.628ZM337.55 339.853C338.143 340.315 338.243 341.167 337.775 341.756C336.221 343.708 334.604 345.57 332.942 347.342C332.427 347.891 331.562 347.924 331.009 347.416C330.456 346.907 330.426 346.05 330.941 345.5C332.554 343.78 334.123 341.974 335.628 340.082C336.097 339.493 336.957 339.39 337.55 339.853ZM327.766 350.613C328.277 351.163 328.24 352.021 327.684 352.529C325.827 354.225 323.94 355.817 322.046 357.302C321.453 357.768 320.592 357.67 320.125 357.084C319.657 356.498 319.758 355.645 320.352 355.179C322.193 353.735 324.028 352.187 325.833 350.539C326.389 350.03 327.255 350.064 327.766 350.613ZM316.437 359.761C316.859 360.381 316.693 361.224 316.066 361.644C313.934 363.072 311.823 364.364 309.765 365.518C309.106 365.887 308.272 365.658 307.901 365.007C307.531 364.356 307.765 363.529 308.423 363.16C310.417 362.042 312.467 360.788 314.539 359.4C315.165 358.98 316.016 359.141 316.437 359.761ZM303.815 367.069C304.122 367.752 303.811 368.554 303.12 368.861C302.285 369.231 296.598 371.394 292.958 372.771C293.543 373.005 294.179 373.255 294.826 373.51C297.341 374.5 300.026 375.556 300.568 375.985C301.158 376.45 301.254 377.303 300.782 377.889C300.309 378.475 299.448 378.573 298.859 378.107C298.336 377.695 295.666 376.652 293.171 375.678C291.037 374.846 289.031 374.063 288.608 373.767C288.223 373.498 288.022 373.068 288.031 372.633C288.029 372.363 288.108 372.089 288.276 371.85C288.611 371.371 289.547 368.971 290.457 366.639C291.288 364.509 292.097 362.435 292.406 361.933C292.8 361.293 293.642 361.088 294.287 361.476C294.931 361.864 295.135 362.698 294.741 363.338C294.421 363.859 293.603 365.941 292.761 368.085C292.469 368.829 292.174 369.58 291.896 370.275C295.497 368.913 301.202 366.746 302.009 366.387C302.699 366.081 303.508 366.386 303.815 367.069Z" fill="#FFCC34"/>
<path fill-rule="evenodd" clip-rule="evenodd" d="M445.089 108.811C445.782 108.51 446.588 108.821 446.89 109.507C447.374 110.607 447.84 111.726 448.288 112.864C448.745 114.025 449.176 115.178 449.581 116.324C449.831 117.029 449.456 117.804 448.743 118.054C448.03 118.304 447.249 117.935 446.999 117.229C446.604 116.113 446.184 114.989 445.738 113.856C445.303 112.751 444.851 111.665 444.381 110.598C444.079 109.912 444.396 109.112 445.089 108.811ZM450.095 122.351C450.824 122.153 451.575 122.578 451.773 123.299C452.436 125.723 452.985 128.107 453.427 130.452C453.565 131.187 453.075 131.897 452.332 132.037C451.59 132.176 450.875 131.693 450.737 130.958C450.309 128.686 449.776 126.372 449.132 124.017C448.934 123.295 449.365 122.549 450.095 122.351ZM452.978 136.517C453.73 136.442 454.399 136.985 454.472 137.73C454.717 140.223 454.84 142.667 454.85 145.061C454.853 145.809 454.243 146.421 453.487 146.426C452.732 146.432 452.117 145.829 452.114 145.081C452.104 142.771 451.986 140.411 451.749 138.002C451.675 137.257 452.226 136.592 452.978 136.517ZM453.283 150.955C454.035 151.023 454.588 151.682 454.516 152.428C454.279 154.918 453.918 157.347 453.446 159.716C453.3 160.451 452.58 160.931 451.839 160.788C451.098 160.646 450.615 159.934 450.762 159.199C451.216 156.92 451.563 154.58 451.792 152.182C451.863 151.436 452.531 150.887 453.283 150.955ZM450.729 165.176C451.451 165.392 451.858 166.149 451.638 166.865C450.904 169.25 450.058 171.564 449.113 173.805C448.822 174.497 448.021 174.826 447.324 174.539C446.626 174.253 446.297 173.46 446.589 172.768C447.499 170.608 448.314 168.379 449.021 166.083C449.241 165.366 450.006 164.96 450.729 165.176ZM445.362 178.628C446.028 178.979 446.279 179.8 445.922 180.461C444.741 182.651 443.469 184.76 442.122 186.788C441.706 187.415 440.858 187.59 440.227 187.18C439.596 186.77 439.422 185.93 439.837 185.304C441.14 183.342 442.369 181.303 443.51 179.19C443.867 178.528 444.696 178.277 445.362 178.628ZM437.55 190.853C438.143 191.315 438.243 192.167 437.775 192.756C436.221 194.708 434.604 196.57 432.942 198.342C432.427 198.892 431.562 198.925 431.009 198.416C430.456 197.907 430.426 197.05 430.941 196.5C432.554 194.781 434.123 192.974 435.628 191.082C436.097 190.493 436.957 190.391 437.55 190.853ZM427.766 201.613C428.277 202.163 428.24 203.021 427.684 203.529C425.827 205.225 423.94 206.817 422.046 208.303C421.453 208.768 420.592 208.67 420.125 208.084C419.657 207.498 419.758 206.645 420.352 206.18C422.193 204.735 424.028 203.187 425.833 201.539C426.389 201.03 427.255 201.064 427.766 201.613ZM416.437 210.761C416.859 211.381 416.693 212.224 416.066 212.644C413.934 214.072 411.823 215.364 409.765 216.518C409.106 216.887 408.272 216.658 407.901 216.007C407.531 215.356 407.765 214.529 408.423 214.16C410.417 213.042 412.467 211.788 414.539 210.4C415.165 209.98 416.016 210.141 416.437 210.761ZM403.815 218.069C404.122 218.752 403.811 219.554 403.12 219.861C402.285 220.232 396.598 222.394 392.958 223.771C393.543 224.005 394.179 224.256 394.826 224.51C397.341 225.5 400.026 226.556 400.568 226.985C401.158 227.45 401.254 228.303 400.782 228.889C400.309 229.475 399.448 229.573 398.859 229.107C398.336 228.695 395.666 227.652 393.171 226.679C391.037 225.846 389.031 225.063 388.608 224.767C388.223 224.499 388.022 224.068 388.031 223.633C388.029 223.363 388.108 223.089 388.276 222.85C388.611 222.371 389.547 219.971 390.457 217.639C391.288 215.509 392.097 213.435 392.406 212.933C392.8 212.293 393.642 212.088 394.287 212.476C394.931 212.864 395.135 213.698 394.741 214.338C394.421 214.859 393.603 216.941 392.761 219.085C392.469 219.829 392.174 220.58 391.896 221.275C395.497 219.913 401.202 217.746 402.009 217.387C402.699 217.081 403.508 217.386 403.815 218.069Z" fill="#FFCC34"/>
<path fill-rule="evenodd" clip-rule="evenodd" d="M118.955 257.816C118.269 257.514 117.469 257.824 117.167 258.509C116.682 259.609 116.215 260.727 115.766 261.864C115.308 263.024 114.876 264.177 114.469 265.321C114.219 266.026 114.588 266.801 115.294 267.052C116 267.303 116.776 266.935 117.027 266.229C117.423 265.114 117.844 263.99 118.291 262.858C118.727 261.754 119.18 260.669 119.65 259.602C119.952 258.918 119.641 258.118 118.955 257.816ZM113.936 271.347C113.214 271.148 112.467 271.571 112.268 272.293C111.601 274.715 111.046 277.098 110.599 279.442C110.459 280.177 110.942 280.887 111.678 281.027C112.414 281.168 113.124 280.686 113.265 279.951C113.698 277.679 114.236 275.366 114.884 273.013C115.083 272.292 114.659 271.546 113.936 271.347ZM111.02 285.506C110.274 285.43 109.608 285.972 109.533 286.716C109.279 289.208 109.148 291.651 109.128 294.045C109.122 294.793 109.725 295.405 110.474 295.412C111.224 295.418 111.836 294.816 111.842 294.068C111.861 291.759 111.988 289.4 112.233 286.991C112.308 286.247 111.765 285.582 111.02 285.506ZM110.659 299.939C109.912 300.006 109.362 300.665 109.429 301.41C109.655 303.9 110.003 306.329 110.461 308.698C110.604 309.433 111.316 309.913 112.051 309.772C112.787 309.63 113.268 308.919 113.126 308.184C112.684 305.905 112.349 303.565 112.132 301.167C112.065 300.422 111.405 299.872 110.659 299.939ZM113.135 314.16C112.417 314.375 112.01 315.131 112.226 315.847C112.945 318.232 113.775 320.546 114.702 322.788C114.988 323.48 115.781 323.809 116.474 323.524C117.167 323.238 117.496 322.446 117.21 321.754C116.316 319.593 115.517 317.364 114.825 315.068C114.609 314.351 113.852 313.944 113.135 314.16ZM118.403 327.614C117.741 327.964 117.489 328.784 117.84 329.446C119.003 331.636 120.256 333.746 121.583 335.775C121.993 336.402 122.834 336.578 123.462 336.169C124.089 335.76 124.265 334.92 123.855 334.294C122.571 332.331 121.36 330.292 120.238 328.177C119.886 327.516 119.065 327.264 118.403 327.614ZM126.101 339.844C125.512 340.305 125.408 341.157 125.871 341.746C127.404 343.699 129 345.563 130.641 347.336C131.15 347.886 132.008 347.92 132.558 347.412C133.108 346.904 133.142 346.047 132.633 345.497C131.04 343.776 129.492 341.968 128.006 340.075C127.544 339.486 126.691 339.382 126.101 339.844ZM135.762 350.612C135.252 351.161 135.285 352.018 135.835 352.527C137.67 354.225 139.535 355.818 141.408 357.306C141.994 357.772 142.848 357.675 143.314 357.089C143.78 356.504 143.683 355.651 143.096 355.185C141.276 353.739 139.463 352.19 137.679 350.539C137.129 350.031 136.271 350.063 135.762 350.612ZM146.96 359.77C146.539 360.389 146.701 361.232 147.321 361.652C149.429 363.083 151.518 364.377 153.555 365.532C154.206 365.902 155.035 365.675 155.405 365.024C155.775 364.373 155.546 363.546 154.895 363.176C152.921 362.056 150.894 360.8 148.845 359.411C148.225 358.99 147.381 359.151 146.96 359.77ZM159.449 367.09C159.142 367.772 159.447 368.574 160.131 368.881C160.958 369.253 166.59 371.421 170.194 372.802C169.612 373.036 168.981 373.285 168.338 373.539C165.84 374.525 163.173 375.579 162.633 376.006C162.046 376.471 161.948 377.324 162.414 377.91C162.88 378.496 163.733 378.595 164.32 378.13C164.84 377.718 167.493 376.679 169.971 375.708C172.091 374.878 174.083 374.098 174.504 373.803C174.887 373.534 175.088 373.104 175.08 372.67C175.084 372.399 175.006 372.126 174.841 371.886C174.511 371.407 173.592 369.007 172.699 366.674C171.883 364.544 171.089 362.469 170.785 361.967C170.397 361.327 169.563 361.122 168.922 361.509C168.281 361.896 168.075 362.729 168.463 363.37C168.779 363.89 169.582 365.973 170.408 368.118C170.695 368.861 170.984 369.612 171.257 370.308C167.691 368.942 162.042 366.769 161.243 366.41C160.56 366.103 159.757 366.407 159.449 367.09Z" fill="#FFCC34"/>
</svg>
